NotoSansBrahmi-Regular.ufo
<glyph name="candrabindu" format="2">
  <advance width="183"/>
  <unicode hex="11000"/>
  <outline>
    <contour>
      <point x="10" y="548" type="curve" smooth="yes"/>
      <point x="10" y="506"/>
      <point x="32" y="480"/>
      <point x="71" y="480" type="curve" smooth="yes"/>
      <point x="110" y="480"/>
      <point x="134" y="507"/>
      <point x="134" y="548" type="curve" smooth="yes"/>
      <point x="134" y="592"/>
      <point x="112" y="616"/>
      <point x="71" y="616" type="curve" smooth="yes"/>
      <point x="30" y="616"/>
      <point x="10" y="591"/>
    </contour>
  </outline>
</glyph>
<glyph name="anusvara" format="2">
  <unicode hex="11001"/>
  <outline>
    <contour>
      <point x="10" y="859" type="curve" smooth="yes"/>
      <point x="10" y="816"/>
      <point x="32" y="791"/>
      <point x="71" y="791" type="curve" smooth="yes"/>
      <point x="110" y="791"/>
      <point x="134" y="817"/>
      <point x="134" y="859" type="curve" smooth="yes"/>
      <point x="134" y="902"/>
      <point x="112" y="927"/>
      <point x="71" y="927" type="curve" smooth="yes"/>
      <point x="30" y="927"/>
      <point x="10" y="902"/>
    </contour>
  </outline>
</glyph>
<glyph name="visarga" format="2">
  <advance width="144"/>
  <unicode hex="11002"/>
  <outline>
    <contour>
      <point x="10" y="54" type="curve" smooth="yes"/>
      <point x="10" y="11"/>
      <point x="32" y="-14"/>
      <point x="71" y="-14" type="curve" smooth="yes"/>
      <point x="110" y="-14"/>
      <point x="134" y="12"/>
      <point x="134" y="54" type="curve" smooth="yes"/>
      <point x="134" y="97"/>
      <point x="110" y="121"/>
      <point x="71" y="121" type="curve" smooth="yes"/>
      <point x="32" y="121"/>
      <point x="10" y="97"/>
    </contour>
    <contour>
      <point x="10" y="548" type="curve" smooth="yes"/>
      <point x="10" y="506"/>
      <point x="32" y="480"/>
      <point x="71" y="480" type="curve" smooth="yes"/>
      <point x="110" y="480"/>
      <point x="134" y="507"/>
      <point x="134" y="548" type="curve" smooth="yes"/>
      <point x="134" y="592"/>
      <point x="112" y="616"/>
      <point x="71" y="616" type="curve" smooth="yes"/>
      <point x="30" y="616"/>
      <point x="10" y="591"/>
    </contour>
  </outline>
</glyph>
<glyph name="u11003" format="2">
  <advance width="552"/>
  <unicode hex="11003"/>
  <outline>
    <contour>
      <point x="223" y="292" type="line"/>
      <point x="29" y="0" type="line"/>
      <point x="522" y="0" type="line"/>
      <point x="327" y="292" type="line"/>
      <point x="512" y="572" type="line"/>
      <point x="38" y="572" type="line"/>
    </contour>
    <contour>
      <point x="177" y="76" type="line"/>
      <point x="276" y="232" type="line"/>
      <point x="375" y="76" type="line"/>
    </contour>
    <contour>
      <point x="276" y="353" type="line"/>
      <point x="186" y="496" type="line"/>
      <point x="366" y="496" type="line"/>
    </contour>
  </outline>
</glyph>
<glyph name="u11004" format="2">
  <advance width="687"/>
  <unicode hex="11004"/>
  <outline>
    <contour>
      <point x="609" y="287" type="curve" smooth="yes"/>
      <point x="609" y="470"/>
      <point x="504" y="584"/>
      <point x="345" y="584" type="curve" smooth="yes"/>
      <point x="171" y="584"/>
      <point x="78" y="467"/>
      <point x="78" y="287" type="curve" smooth="yes"/>
      <point x="78" y="102"/>
      <point x="186" y="-12"/>
      <point x="341" y="-12" type="curve" smooth="yes"/>
      <point x="515" y="-12"/>
      <point x="609" y="103"/>
    </contour>
    <contour>
      <point x="168" y="287" type="curve" smooth="yes"/>
      <point x="168" y="342"/>
      <point x="177" y="387"/>
      <point x="195" y="421" type="curve"/>
      <point x="292" y="285" type="line"/>
      <point x="196" y="150" type="line"/>
      <point x="177" y="186"/>
      <point x="168" y="231"/>
    </contour>
    <contour>
      <point x="520" y="287" type="curve" smooth="yes"/>
      <point x="520" y="232"/>
      <point x="510" y="187"/>
      <point x="491" y="151" type="curve"/>
      <point x="396" y="285" type="line"/>
      <point x="492" y="421" type="line"/>
      <point x="510" y="386"/>
      <point x="520" y="341"/>
    </contour>
    <contour>
      <point x="345" y="345" type="line"/>
      <point x="250" y="482" type="line"/>
      <point x="276" y="497"/>
      <point x="307" y="505"/>
      <point x="342" y="505" type="curve" smooth="yes"/>
      <point x="379" y="505"/>
      <point x="411" y="497"/>
      <point x="437" y="480" type="curve"/>
    </contour>
    <contour>
      <point x="252" y="90" type="curve"/>
      <point x="345" y="225" type="line"/>
      <point x="436" y="91" type="line"/>
      <point x="409" y="75"/>
      <point x="379" y="67"/>
      <point x="344" y="67" type="curve" smooth="yes"/>
      <point x="308" y="67"/>
      <point x="277" y="75"/>
    </contour>
  </outline>
</glyph>
<glyph name="brm_A" format="2">
  <advance width="593"/>
  <unicode hex="11005"/>
  <outline>
    <contour>
      <point x="405" y="322" type="line"/>
      <point x="405" y="0" type="line"/>
      <point x="495" y="0" type="line"/>
      <point x="495" y="714" type="line"/>
      <point x="405" y="714" type="line"/>
      <point x="405" y="398" type="line"/>
      <point x="387" y="398" type="line" smooth="yes"/>
      <point x="264" y="398"/>
      <point x="178" y="471"/>
      <point x="178" y="593" type="curve" smooth="yes"/>
      <point x="178" y="714" type="line"/>
      <point x="88" y="714" type="line"/>
      <point x="88" y="591" type="line" smooth="yes"/>
      <point x="88" y="486"/>
      <point x="138" y="398"/>
      <point x="229" y="352" type="curve"/>
      <point x="134" y="292"/>
      <point x="78" y="179"/>
      <point x="78" y="64" type="curve" smooth="yes"/>
      <point x="78" y="0" type="line"/>
      <point x="168" y="0" type="line"/>
      <point x="168" y="62" type="line" smooth="yes"/>
      <point x="168" y="205"/>
      <point x="263" y="322"/>
      <point x="397" y="322" type="curve" smooth="yes"/>
    </contour>
  </outline>
</glyph>
<glyph name="brm_AA" format="2">
  <advance width="637"/>
  <unicode hex="11006"/>
  <outline>
    <contour>
      <point x="78" y="0" type="line"/>
      <point x="168" y="0" type="line"/>
      <point x="168" y="65" type="line" smooth="yes"/>
      <point x="168" y="206"/>
      <point x="268" y="322"/>
      <point x="397" y="322" type="curve" smooth="yes"/>
      <point x="405" y="322" type="line"/>
      <point x="405" y="0" type="line"/>
      <point x="495" y="0" type="line"/>
      <point x="495" y="322" type="line"/>
      <point x="617" y="322" type="line"/>
      <point x="617" y="398" type="line"/>
      <point x="495" y="398" type="line"/>
      <point x="495" y="714" type="line"/>
      <point x="405" y="714" type="line"/>
      <point x="405" y="398" type="line"/>
      <point x="387" y="398" type="line" smooth="yes"/>
      <point x="260" y="398"/>
      <point x="178" y="474"/>
      <point x="178" y="593" type="curve" smooth="yes"/>
      <point x="178" y="714" type="line"/>
      <point x="88" y="714" type="line"/>
      <point x="88" y="591" type="line" smooth="yes"/>
      <point x="88" y="484"/>
      <point x="141" y="396"/>
      <point x="229" y="352" type="curve"/>
      <point x="137" y="295"/>
      <point x="78" y="184"/>
      <point x="78" y="64" type="curve" smooth="yes"/>
    </contour>
  </outline>
</glyph>
<glyph name="brm_I" format="2">
  <advance width="544"/>
  <unicode hex="11007"/>
  <outline>
    <contour>
      <point x="98" y="54" type="curve" smooth="yes"/>
      <point x="98" y="11"/>
      <point x="120" y="-14"/>
      <point x="159" y="-14" type="curve" smooth="yes"/>
      <point x="198" y="-14"/>
      <point x="222" y="12"/>
      <point x="222" y="54" type="curve" smooth="yes"/>
      <point x="222" y="97"/>
      <point x="198" y="121"/>
      <point x="159" y="121" type="curve" smooth="yes"/>
      <point x="120" y="121"/>
      <point x="98" y="97"/>
    </contour>
    <contour>
      <point x="98" y="548" type="curve" smooth="yes"/>
      <point x="98" y="506"/>
      <point x="120" y="480"/>
      <point x="159" y="480" type="curve" smooth="yes"/>
      <point x="198" y="480"/>
      <point x="222" y="507"/>
      <point x="222" y="548" type="curve" smooth="yes"/>
      <point x="222" y="592"/>
      <point x="200" y="616"/>
      <point x="159" y="616" type="curve" smooth="yes"/>
      <point x="118" y="616"/>
      <point x="98" y="591"/>
    </contour>
    <contour>
      <point x="322" y="301" type="curve" smooth="yes"/>
      <point x="322" y="258"/>
      <point x="345" y="233"/>
      <point x="383" y="233" type="curve" smooth="yes"/>
      <point x="423" y="233"/>
      <point x="446" y="259"/>
      <point x="446" y="301" type="curve" smooth="yes"/>
      <point x="446" y="344"/>
      <point x="424" y="369"/>
      <point x="383" y="369" type="curve" smooth="yes"/>
      <point x="343" y="369"/>
      <point x="322" y="344"/>
    </contour>
  </outline>
</glyph>
<glyph name="brm_II" format="2">
  <advance width="637"/>
  <unicode hex="11008"/>
  <outline>
    <contour>
      <point x="78" y="362" type="curve" smooth="yes"/>
      <point x="78" y="319"/>
      <point x="100" y="294"/>
      <point x="139" y="294" type="curve" smooth="yes"/>
      <point x="178" y="294"/>
      <point x="202" y="320"/>
      <point x="202" y="362" type="curve" smooth="yes"/>
      <point x="202" y="405"/>
      <point x="178" y="429"/>
      <point x="139" y="429" type="curve" smooth="yes"/>
      <point x="100" y="429"/>
      <point x="78" y="405"/>
    </contour>
    <contour>
      <point x="435" y="362" type="curve" smooth="yes"/>
      <point x="435" y="319"/>
      <point x="457" y="294"/>
      <point x="496" y="294" type="curve" smooth="yes"/>
      <point x="536" y="294"/>
      <point x="559" y="320"/>
      <point x="559" y="362" type="curve" smooth="yes"/>
      <point x="559" y="405"/>
      <point x="536" y="429"/>
      <point x="496" y="429" type="curve" smooth="yes"/>
      <point x="457" y="429"/>
      <point x="435" y="405"/>
    </contour>
    <contour>
      <point x="364" y="714" type="line"/>
      <point x="274" y="714" type="line"/>
      <point x="274" y="0" type="line"/>
      <point x="364" y="0" type="line"/>
    </contour>
  </outline>
</glyph>
<glyph name="brm_UU" format="2">
  <advance width="500"/>
  <unicode hex="1100A"/>
  <outline>
    <contour>
      <point x="187" y="190" type="line"/>
      <point x="451" y="190" type="line"/>
      <point x="451" y="271" type="line"/>
      <point x="187" y="271" type="line"/>
      <point x="187" y="714" type="line"/>
      <point x="98" y="714" type="line"/>
      <point x="98" y="0" type="line"/>
      <point x="451" y="0" type="line"/>
      <point x="451" y="80" type="line"/>
      <point x="187" y="80" type="line"/>
    </contour>
  </outline>
</glyph>
<glyph name="brm_R" format="2">
  <advance width="610"/>
  <unicode hex="1100B"/>
  <outline>
    <contour>
      <point x="252" y="292" type="line"/>
      <point x="59" y="0" type="line"/>
      <point x="158" y="0" type="line"/>
      <point x="306" y="232" type="line"/>
      <point x="452" y="0" type="line"/>
      <point x="552" y="0" type="line"/>
      <point x="356" y="292" type="line"/>
      <point x="542" y="572" type="line"/>
      <point x="442" y="572" type="line"/>
      <point x="306" y="353" type="line"/>
      <point x="167" y="572" type="line"/>
      <point x="67" y="572" type="line"/>
    </contour>
  </outline>
</glyph>
<glyph name="brm_RR" format="2">
  <advance width="680"/>
  <unicode hex="1100C"/>
  <outline>
    <contour>
      <point x="542" y="-12" type="curve" smooth="yes"/>
      <point x="586" y="-12"/>
      <point x="627" y="10"/>
      <point x="665" y="54" type="curve"/>
      <point x="615" y="109" type="line"/>
      <point x="596" y="88"/>
      <point x="575" y="67"/>
      <point x="544" y="67" type="curve" smooth="yes"/>
      <point x="516" y="67"/>
      <point x="494" y="83"/>
      <point x="457" y="139" type="curve" smooth="yes"/>
      <point x="356" y="292" type="line"/>
      <point x="542" y="572" type="line"/>
      <point x="442" y="572" type="line"/>
      <point x="306" y="353" type="line"/>
      <point x="167" y="572" type="line"/>
      <point x="67" y="572" type="line"/>
      <point x="252" y="292" type="line"/>
      <point x="59" y="0" type="line"/>
      <point x="158" y="0" type="line"/>
      <point x="306" y="232" type="line"/>
      <point x="411" y="69" type="line" smooth="yes"/>
      <point x="449" y="10"/>
      <point x="487" y="-12"/>
    </contour>
  </outline>
</glyph>
<glyph name="brm_L" format="2">
  <advance width="575"/>
  <unicode hex="1100D"/>
  <outline>
    <contour>
      <point x="321" y="-15" type="curve" smooth="yes"/>
      <point x="393" y="-15"/>
      <point x="443" y="17"/>
      <point x="496" y="104" type="curve"/>
      <point x="424" y="143" type="line"/>
      <point x="386" y="87"/>
      <point x="362" y="64"/>
      <point x="324" y="64" type="curve" smooth="yes"/>
      <point x="296" y="64"/>
      <point x="284" y="78"/>
      <point x="284" y="105" type="curve" smooth="yes"/>
      <point x="284" y="140"/>
      <point x="317" y="184"/>
      <point x="375" y="251" type="curve" smooth="yes"/>
      <point x="447" y="335"/>
      <point x="497" y="424"/>
      <point x="497" y="528" type="curve" smooth="yes"/>
      <point x="497" y="649"/>
      <point x="418" y="726"/>
      <point x="293" y="726" type="curve" smooth="yes"/>
      <point x="166" y="726"/>
      <point x="78" y="647"/>
      <point x="78" y="523" type="curve" smooth="yes"/>
      <point x="78" y="499"/>
      <point x="81" y="477"/>
      <point x="87" y="457" type="curve"/>
      <point x="175" y="468" type="line"/>
      <point x="170" y="487"/>
      <point x="168" y="506"/>
      <point x="168" y="526" type="curve" smooth="yes"/>
      <point x="168" y="602"/>
      <point x="211" y="642"/>
      <point x="292" y="642" type="curve" smooth="yes"/>
      <point x="359" y="642"/>
      <point x="401" y="593"/>
      <point x="401" y="521" type="curve" smooth="yes"/>
      <point x="401" y="440"/>
      <point x="366" y="361"/>
      <point x="298" y="282" type="curve" smooth="yes"/>
      <point x="239" y="213"/>
      <point x="194" y="159"/>
      <point x="194" y="104" type="curve" smooth="yes"/>
      <point x="194" y="43"/>
      <point x="238" y="-15"/>
    </contour>
  </outline>
</glyph>
<glyph name="brm_LL" format="2">
  <advance width="603"/>
  <unicode hex="1100E"/>
  <outline>
    <contour>
      <point x="321" y="-15" type="curve" smooth="yes"/>
      <point x="393" y="-15"/>
      <point x="443" y="17"/>
      <point x="496" y="104" type="curve"/>
      <point x="424" y="143" type="line"/>
      <point x="386" y="87"/>
      <point x="362" y="64"/>
      <point x="324" y="64" type="curve" smooth="yes"/>
      <point x="296" y="64"/>
      <point x="284" y="78"/>
      <point x="284" y="105" type="curve" smooth="yes"/>
      <point x="284" y="139"/>
      <point x="311" y="177"/>
      <point x="349" y="220" type="curve" smooth="yes"/>
      <point x="371" y="245"/>
      <point x="394" y="273"/>
      <point x="416" y="304" type="curve"/>
      <point x="527" y="224" type="line"/>
      <point x="573" y="289" type="line"/>
      <point x="456" y="369" type="line"/>
      <point x="483" y="422"/>
      <point x="497" y="475"/>
      <point x="497" y="528" type="curve" smooth="yes"/>
      <point x="497" y="649"/>
      <point x="418" y="726"/>
      <point x="293" y="726" type="curve" smooth="yes"/>
      <point x="165" y="726"/>
      <point x="78" y="647"/>
      <point x="78" y="523" type="curve" smooth="yes"/>
      <point x="78" y="499"/>
      <point x="81" y="477"/>
      <point x="87" y="457" type="curve"/>
      <point x="175" y="468" type="line"/>
      <point x="170" y="487"/>
      <point x="168" y="506"/>
      <point x="168" y="526" type="curve" smooth="yes"/>
      <point x="168" y="602"/>
      <point x="211" y="642"/>
      <point x="292" y="642" type="curve" smooth="yes"/>
      <point x="359" y="642"/>
      <point x="401" y="593"/>
      <point x="401" y="521" type="curve" smooth="yes"/>
      <point x="401" y="440"/>
      <point x="366" y="362"/>
      <point x="298" y="282" type="curve" smooth="yes"/>
      <point x="239" y="213"/>
      <point x="194" y="159"/>
      <point x="194" y="104" type="curve" smooth="yes"/>
      <point x="194" y="43"/>
      <point x="238" y="-15"/>
    </contour>
  </outline>
</glyph>
<glyph name="brm_E" format="2">
  <advance width="659"/>
  <unicode hex="1100F"/>
  <outline>
    <contour>
      <point x="284" y="719" type="line"/>
      <point x="49" y="0" type="line"/>
      <point x="610" y="0" type="line"/>
      <point x="375" y="719" type="line"/>
    </contour>
    <contour>
      <point x="172" y="80" type="line"/>
      <point x="329" y="604" type="line"/>
      <point x="485" y="80" type="line"/>
    </contour>
  </outline>
</glyph>
<glyph name="brm_AI" format="2">
  <advance width="659"/>
  <unicode hex="11010"/>
  <outline>
    <contour>
      <point x="104" y="714" type="line"/>
      <point x="104" y="634" type="line"/>
      <point x="258" y="634" type="line"/>
      <point x="49" y="0" type="line"/>
      <point x="610" y="0" type="line"/>
      <point x="375" y="714" type="line"/>
    </contour>
    <contour>
      <point x="172" y="80" type="line"/>
      <point x="329" y="599" type="line"/>
      <point x="485" y="80" type="line"/>
    </contour>
  </outline>
</glyph>
<glyph name="brm_O" format="2">
  <advance width="606"/>
  <unicode hex="11011"/>
  <outline>
    <contour>
      <point x="294" y="714" type="line"/>
      <point x="49" y="714" type="line"/>
      <point x="49" y="634" type="line"/>
      <point x="205" y="634" type="line"/>
      <point x="205" y="0" type="line"/>
      <point x="558" y="0" type="line"/>
      <point x="558" y="80" type="line"/>
      <point x="294" y="80" type="line"/>
    </contour>
  </outline>
</glyph>
<glyph name="brm_AU" format="2">
  <advance width="606"/>
  <unicode hex="11012"/>
  <outline>
    <contour>
      <point x="294" y="714" type="line"/>
      <point x="49" y="714" type="line"/>
      <point x="49" y="634" type="line"/>
      <point x="205" y="634" type="line"/>
      <point x="205" y="0" type="line"/>
      <point x="558" y="0" type="line"/>
      <point x="558" y="80" type="line"/>
      <point x="294" y="80" type="line"/>
      <point x="294" y="190" type="line"/>
      <point x="558" y="190" type="line"/>
      <point x="558" y="271" type="line"/>
      <point x="294" y="271" type="line"/>
    </contour>
  </outline>
</glyph>
<glyph name="brm_KA" format="2">
  <advance width="754"/>
  <unicode hex="11013"/>
  <outline>
    <contour>
      <point x="332" y="0" type="line"/>
      <point x="422" y="0" type="line"/>
      <point x="422" y="333" type="line"/>
      <point x="676" y="333" type="line"/>
      <point x="676" y="412" type="line"/>
      <point x="422" y="412" type="line"/>
      <point x="422" y="714" type="line"/>
      <point x="332" y="714" type="line"/>
      <point x="332" y="412" type="line"/>
      <point x="78" y="412" type="line"/>
      <point x="78" y="333" type="line"/>
      <point x="332" y="333" type="line"/>
    </contour>
  </outline>
</glyph>
<glyph name="brm_KHA" format="2">
  <advance width="589"/>
  <unicode hex="11014"/>
  <outline>
    <contour>
      <point x="59" y="461" type="line"/>
      <point x="148" y="461" type="line"/>
      <point x="148" y="464" type="line" smooth="yes"/>
      <point x="148" y="580"/>
      <point x="168" y="642"/>
      <point x="278" y="642" type="curve" smooth="yes"/>
      <point x="384" y="642"/>
      <point x="402" y="586"/>
      <point x="402" y="465" type="curve" smooth="yes"/>
      <point x="402" y="0" type="line"/>
      <point x="492" y="0" type="line"/>
      <point x="492" y="462" type="line" smooth="yes"/>
      <point x="492" y="634"/>
      <point x="446" y="726"/>
      <point x="278" y="726" type="curve" smooth="yes"/>
      <point x="179" y="726"/>
      <point x="120" y="696"/>
      <point x="87" y="632" type="curve" smooth="yes"/>
      <point x="66" y="591"/>
      <point x="59" y="534"/>
      <point x="59" y="464" type="curve" smooth="yes"/>
    </contour>
  </outline>
</glyph>
<glyph name="brm_GA" format="2">
  <advance width="659"/>
  <unicode hex="11015"/>
  <outline>
    <contour>
      <point x="284" y="714" type="line"/>
      <point x="49" y="0" type="line"/>
      <point x="148" y="0" type="line"/>
      <point x="329" y="599" type="line"/>
      <point x="510" y="0" type="line"/>
      <point x="610" y="0" type="line"/>
      <point x="375" y="714" type="line"/>
    </contour>
  </outline>
</glyph>
<glyph name="brm_GHA" format="2">
  <advance width="702"/>
  <unicode hex="11016"/>
  <outline>
    <contour>
      <point x="360" y="-12" type="curve" smooth="yes"/>
      <point x="481" y="-12"/>
      <point x="558" y="21"/>
      <point x="595" y="92" type="curve" smooth="yes"/>
      <point x="614" y="128"/>
      <point x="624" y="181"/>
      <point x="624" y="250" type="curve" smooth="yes"/>
      <point x="624" y="277" type="line"/>
      <point x="534" y="277" type="line"/>
      <point x="534" y="250" type="line" smooth="yes"/>
      <point x="532" y="121"/>
      <point x="506" y="89"/>
      <point x="406" y="75" type="curve"/>
      <point x="406" y="274" type="line"/>
      <point x="316" y="274" type="line"/>
      <point x="316" y="74" type="line"/>
      <point x="221" y="82"/>
      <point x="187" y="123"/>
      <point x="187" y="249" type="curve" smooth="yes"/>
      <point x="187" y="714" type="line"/>
      <point x="98" y="714" type="line"/>
      <point x="98" y="244" type="line" smooth="yes"/>
      <point x="98" y="60"/>
      <point x="178" y="-12"/>
    </contour>
  </outline>
</glyph>
<glyph name="brm_NGA" format="2">
  <advance width="529"/>
  <unicode hex="11017"/>
  <outline>
    <contour>
      <point x="98" y="0" type="line"/>
      <point x="451" y="0" type="line"/>
      <point x="451" y="80" type="line"/>
      <point x="187" y="80" type="line"/>
      <point x="187" y="634" type="line"/>
      <point x="451" y="634" type="line"/>
      <point x="451" y="714" type="line"/>
      <point x="98" y="714" type="line"/>
    </contour>
  </outline>
</glyph>
<glyph name="brm_CA" format="2">
  <advance width="542"/>
  <unicode hex="11018"/>
  <outline>
    <contour>
      <point x="315" y="0" type="curve" smooth="yes"/>
      <point x="444" y="0" type="line"/>
      <point x="444" y="714" type="line"/>
      <point x="354" y="714" type="line"/>
      <point x="354" y="345" type="line"/>
      <point x="346" y="345" type="line" smooth="yes"/>
      <point x="163" y="345"/>
      <point x="78" y="288"/>
      <point x="78" y="165" type="curve" smooth="yes"/>
      <point x="78" y="61"/>
      <point x="166" y="0"/>
    </contour>
    <contour>
      <point x="354" y="80" type="line"/>
      <point x="234" y="80"/>
      <point x="173" y="107"/>
      <point x="173" y="168" type="curve" smooth="yes"/>
      <point x="173" y="189"/>
      <point x="179" y="226"/>
      <point x="205" y="242" type="curve" smooth="yes"/>
      <point x="231" y="258"/>
      <point x="276" y="265"/>
      <point x="354" y="265" type="curve"/>
    </contour>
  </outline>
</glyph>
<glyph name="brm_CHA" format="2">
  <advance width="609"/>
  <unicode hex="11019"/>
  <outline>
    <contour>
      <point x="305" y="-12" type="curve" smooth="yes"/>
      <point x="439" y="-12"/>
      <point x="546" y="92"/>
      <point x="546" y="222" type="curve" smooth="yes"/>
      <point x="546" y="337"/>
      <point x="461" y="433"/>
      <point x="350" y="451" type="curve"/>
      <point x="350" y="714" type="line"/>
      <point x="260" y="714" type="line"/>
      <point x="260" y="451" type="line"/>
      <point x="145" y="433"/>
      <point x="63" y="336"/>
      <point x="63" y="222" type="curve" smooth="yes"/>
      <point x="63" y="92"/>
      <point x="171" y="-12"/>
    </contour>
    <contour>
      <point x="260" y="75" type="line"/>
      <point x="197" y="95"/>
      <point x="153" y="157"/>
      <point x="153" y="224" type="curve" smooth="yes"/>
      <point x="153" y="289"/>
      <point x="196" y="349"/>
      <point x="260" y="369" type="curve"/>
    </contour>
    <contour>
      <point x="350" y="74" type="curve"/>
      <point x="350" y="369" type="line"/>
      <point x="411" y="349"/>
      <point x="456" y="291"/>
      <point x="456" y="224" type="curve" smooth="yes"/>
      <point x="456" y="156"/>
      <point x="413" y="95"/>
    </contour>
  </outline>
</glyph>
<glyph name="brm_JA" format="2">
  <advance width="514"/>
  <unicode hex="1101A"/>
  <outline>
    <contour>
      <point x="320" y="0" type="curve" smooth="yes"/>
      <point x="440" y="0" type="line"/>
      <point x="440" y="80" type="line"/>
      <point x="317" y="80" type="line" smooth="yes"/>
      <point x="228" y="80"/>
      <point x="173" y="120"/>
      <point x="173" y="188" type="curve" smooth="yes"/>
      <point x="173" y="279"/>
      <point x="235" y="320"/>
      <point x="358" y="320" type="curve" smooth="yes"/>
      <point x="422" y="320" type="line"/>
      <point x="422" y="400" type="line"/>
      <point x="358" y="400" type="line" smooth="yes"/>
      <point x="231" y="400"/>
      <point x="173" y="437"/>
      <point x="173" y="526" type="curve" smooth="yes"/>
      <point x="173" y="593"/>
      <point x="231" y="634"/>
      <point x="322" y="634" type="curve" smooth="yes"/>
      <point x="440" y="634" type="line"/>
      <point x="440" y="714" type="line"/>
      <point x="330" y="714" type="line" smooth="yes"/>
      <point x="177" y="714"/>
      <point x="78" y="635"/>
      <point x="78" y="526" type="curve" smooth="yes"/>
      <point x="78" y="451"/>
      <point x="115" y="393"/>
      <point x="179" y="360" type="curve"/>
      <point x="115" y="327"/>
      <point x="78" y="266"/>
      <point x="78" y="187" type="curve" smooth="yes"/>
      <point x="78" y="76"/>
      <point x="169" y="0"/>
    </contour>
  </outline>
</glyph>
<glyph name="brm_JHA" format="2">
  <advance width="594"/>
  <unicode hex="1101B"/>
  <outline>
    <contour>
      <point x="98" y="0" type="line"/>
      <point x="187" y="0" type="line"/>
      <point x="187" y="340" type="line"/>
      <point x="219" y="319"/>
      <point x="268" y="306"/>
      <point x="316" y="306" type="curve" smooth="yes"/>
      <point x="447" y="306"/>
      <point x="516" y="365"/>
      <point x="516" y="502" type="curve" smooth="yes"/>
      <point x="516" y="714" type="line"/>
      <point x="426" y="714" type="line"/>
      <point x="426" y="519" type="line" smooth="yes"/>
      <point x="426" y="428"/>
      <point x="394" y="390"/>
      <point x="306" y="390" type="curve" smooth="yes"/>
      <point x="258" y="390"/>
      <point x="215" y="408"/>
      <point x="187" y="432" type="curve"/>
      <point x="187" y="714" type="line"/>
      <point x="98" y="714" type="line"/>
    </contour>
  </outline>
</glyph>
<glyph name="brm_TTA" format="2">
  <advance width="515"/>
  <unicode hex="1101D"/>
  <outline>
    <contour>
      <point x="447" y="0" type="line"/>
      <point x="447" y="80" type="line"/>
      <point x="386" y="80" type="line" smooth="yes"/>
      <point x="264" y="80"/>
      <point x="173" y="180"/>
      <point x="173" y="357" type="curve" smooth="yes"/>
      <point x="173" y="531"/>
      <point x="263" y="634"/>
      <point x="386" y="634" type="curve" smooth="yes"/>
      <point x="447" y="634" type="line"/>
      <point x="447" y="714" type="line"/>
      <point x="386" y="714" type="line" smooth="yes"/>
      <point x="204" y="714"/>
      <point x="78" y="580"/>
      <point x="78" y="358" type="curve" smooth="yes"/>
      <point x="78" y="127"/>
      <point x="209" y="0"/>
      <point x="386" y="0" type="curve" smooth="yes"/>
    </contour>
  </outline>
</glyph>
<glyph name="brm_DDA" format="2">
  <advance width="485"/>
  <unicode hex="1101F"/>
  <outline>
    <contour>
      <point x="168" y="332" type="line"/>
      <point x="407" y="332" type="line"/>
      <point x="407" y="714" type="line"/>
      <point x="317" y="714" type="line"/>
      <point x="317" y="412" type="line"/>
      <point x="78" y="412" type="line"/>
      <point x="78" y="0" type="line"/>
      <point x="168" y="0" type="line"/>
    </contour>
  </outline>
</glyph>
<glyph name="brm_DDHA" format="2">
  <advance width="600"/>
  <unicode hex="11020"/>
  <outline>
    <contour>
      <point x="300" y="-12" type="curve" smooth="yes"/>
      <point x="449" y="-12"/>
      <point x="537" y="51"/>
      <point x="537" y="162" type="curve" smooth="yes"/>
      <point x="537" y="245"/>
      <point x="480" y="299"/>
      <point x="393" y="299" type="curve" smooth="yes"/>
      <point x="314" y="299"/>
      <point x="266" y="257"/>
      <point x="243" y="194" type="curve"/>
      <point x="327" y="155" type="line"/>
      <point x="341" y="198"/>
      <point x="365" y="220"/>
      <point x="399" y="220" type="curve" smooth="yes"/>
      <point x="427" y="220"/>
      <point x="447" y="201"/>
      <point x="447" y="162" type="curve" smooth="yes"/>
      <point x="447" y="103"/>
      <point x="395" y="72"/>
      <point x="310" y="72" type="curve" smooth="yes"/>
      <point x="215" y="72"/>
      <point x="159" y="124"/>
      <point x="159" y="211" type="curve" smooth="yes"/>
      <point x="159" y="295"/>
      <point x="226" y="362"/>
      <point x="310" y="362" type="curve" smooth="yes"/>
      <point x="355" y="362" type="line"/>
      <point x="355" y="714" type="line"/>
      <point x="265" y="714" type="line"/>
      <point x="265" y="437" type="line"/>
      <point x="148" y="419"/>
      <point x="63" y="323"/>
      <point x="63" y="209" type="curve" smooth="yes"/>
      <point x="63" y="84"/>
      <point x="164" y="-12"/>
    </contour>
  </outline>
</glyph>
<glyph name="brm_TA" format="2">
  <advance width="625"/>
  <unicode hex="11022"/>
  <outline>
    <contour>
      <point x="127" y="0" type="line"/>
      <point x="312" y="351" type="line"/>
      <point x="499" y="0" type="line"/>
      <point x="595" y="0" type="line"/>
      <point x="357" y="437" type="line"/>
      <point x="357" y="714" type="line"/>
      <point x="267" y="714" type="line"/>
      <point x="267" y="441" type="line"/>
      <point x="29" y="0" type="line"/>
    </contour>
  </outline>
</glyph>
<glyph name="brm_THA" format="2">
  <advance width="818"/>
  <unicode hex="11023"/>
  <outline>
    <contour>
      <point x="408" y="294" type="curve" smooth="yes"/>
      <point x="448" y="294"/>
      <point x="471" y="320"/>
      <point x="471" y="362" type="curve" smooth="yes"/>
      <point x="471" y="405"/>
      <point x="449" y="430"/>
      <point x="408" y="430" type="curve" smooth="yes"/>
      <point x="368" y="430"/>
      <point x="347" y="405"/>
      <point x="347" y="362" type="curve" smooth="yes"/>
      <point x="347" y="319"/>
      <point x="370" y="294"/>
    </contour>
    <contour>
      <point x="409" y="27" type="curve" smooth="yes"/>
      <point x="603" y="27"/>
      <point x="740" y="174"/>
      <point x="740" y="358" type="curve" smooth="yes"/>
      <point x="740" y="543"/>
      <point x="602" y="689"/>
      <point x="409" y="689" type="curve" smooth="yes"/>
      <point x="217" y="689"/>
      <point x="78" y="546"/>
      <point x="78" y="358" type="curve" smooth="yes"/>
      <point x="78" y="173"/>
      <point x="215" y="27"/>
    </contour>
    <contour>
      <point x="409" y="111" type="curve" smooth="yes"/>
      <point x="279" y="111"/>
      <point x="173" y="221"/>
      <point x="173" y="359" type="curve" smooth="yes"/>
      <point x="173" y="493"/>
      <point x="275" y="605"/>
      <point x="409" y="605" type="curve" smooth="yes"/>
      <point x="544" y="605"/>
      <point x="645" y="493"/>
      <point x="645" y="359" type="curve" smooth="yes"/>
      <point x="645" y="220"/>
      <point x="537" y="111"/>
    </contour>
  </outline>
</glyph>
<glyph name="brm_DA" format="2">
  <advance width="462"/>
  <unicode hex="11024"/>
  <outline>
    <contour>
      <point x="98" y="0" type="line"/>
      <point x="187" y="0" type="line"/>
      <point x="187" y="119" type="line"/>
      <point x="306" y="133"/>
      <point x="384" y="223"/>
      <point x="384" y="339" type="curve" smooth="yes"/>
      <point x="384" y="400"/>
      <point x="366" y="452"/>
      <point x="329" y="493" type="curve" smooth="yes"/>
      <point x="291" y="535"/>
      <point x="245" y="558"/>
      <point x="187" y="563" type="curve"/>
      <point x="187" y="714" type="line"/>
      <point x="98" y="714" type="line"/>
      <point x="98" y="493" type="line"/>
      <point x="129" y="493" type="line" smooth="yes"/>
      <point x="226" y="493"/>
      <point x="294" y="430"/>
      <point x="294" y="341" type="curve" smooth="yes"/>
      <point x="294" y="251"/>
      <point x="220" y="189"/>
      <point x="129" y="189" type="curve" smooth="yes"/>
      <point x="98" y="189" type="line"/>
    </contour>
  </outline>
</glyph>
<glyph name="brm_DHA" format="2">
  <advance width="608"/>
  <unicode hex="11025"/>
  <outline>
    <contour>
      <point x="98" y="0" type="line"/>
      <point x="202" y="0" type="line" smooth="yes"/>
      <point x="415" y="0"/>
      <point x="530" y="127"/>
      <point x="530" y="358" type="curve" smooth="yes"/>
      <point x="530" y="578"/>
      <point x="404" y="714"/>
      <point x="187" y="714" type="curve" smooth="yes"/>
      <point x="98" y="714" type="line"/>
    </contour>
    <contour>
      <point x="187" y="80" type="line"/>
      <point x="187" y="634" type="line"/>
      <point x="344" y="634"/>
      <point x="436" y="532"/>
      <point x="436" y="357" type="curve" smooth="yes"/>
      <point x="436" y="180"/>
      <point x="349" y="80"/>
      <point x="189" y="80" type="curve" smooth="yes"/>
    </contour>
  </outline>
</glyph>
<glyph name="brm_NA" format="2">
  <advance width="538"/>
  <unicode hex="11026"/>
  <outline>
    <contour>
      <point x="314" y="714" type="line"/>
      <point x="224" y="714" type="line"/>
      <point x="224" y="80" type="line"/>
      <point x="49" y="80" type="line"/>
      <point x="49" y="0" type="line"/>
      <point x="489" y="0" type="line"/>
      <point x="489" y="80" type="line"/>
      <point x="314" y="80" type="line"/>
    </contour>
  </outline>
</glyph>
<glyph name="brm_PA" format="2">
  <advance width="609"/>
  <unicode hex="11027"/>
  <outline>
    <contour>
      <point x="311" y="-12" type="curve" smooth="yes"/>
      <point x="478" y="-12"/>
      <point x="531" y="73"/>
      <point x="531" y="250" type="curve" smooth="yes"/>
      <point x="531" y="252" type="line"/>
      <point x="441" y="252" type="line"/>
      <point x="441" y="250" type="line" smooth="yes"/>
      <point x="441" y="139"/>
      <point x="423" y="72"/>
      <point x="312" y="72" type="curve" smooth="yes"/>
      <point x="204" y="72"/>
      <point x="187" y="127"/>
      <point x="187" y="248" type="curve" smooth="yes"/>
      <point x="187" y="714" type="line"/>
      <point x="98" y="714" type="line"/>
      <point x="98" y="252" type="line" smooth="yes"/>
      <point x="98" y="79"/>
      <point x="144" y="-12"/>
    </contour>
  </outline>
</glyph>
<glyph name="brm_PHA" format="2">
  <advance width="576"/>
  <unicode hex="11028"/>
  <outline>
    <contour>
      <point x="300" y="-12" type="curve" smooth="yes"/>
      <point x="430" y="-12"/>
      <point x="513" y="82"/>
      <point x="513" y="205" type="curve" smooth="yes"/>
      <point x="513" y="323"/>
      <point x="432" y="400"/>
      <point x="312" y="400" type="curve" smooth="yes"/>
      <point x="283" y="400"/>
      <point x="255" y="394"/>
      <point x="228" y="383" type="curve"/>
      <point x="265" y="308" type="line"/>
      <point x="284" y="313"/>
      <point x="302" y="316"/>
      <point x="321" y="316" type="curve" smooth="yes"/>
      <point x="378" y="316"/>
      <point x="418" y="269"/>
      <point x="418" y="204" type="curve" smooth="yes"/>
      <point x="418" y="117"/>
      <point x="381" y="72"/>
      <point x="302" y="72" type="curve" smooth="yes"/>
      <point x="233" y="72"/>
      <point x="187" y="98"/>
      <point x="187" y="208" type="curve" smooth="yes"/>
      <point x="187" y="714" type="line"/>
      <point x="98" y="714" type="line"/>
      <point x="98" y="215" type="line" smooth="yes"/>
      <point x="98" y="63"/>
      <point x="161" y="-12"/>
    </contour>
  </outline>
</glyph>
<glyph name="brm_BA" format="2">
  <advance width="773"/>
  <unicode hex="11029"/>
  <outline>
    <contour>
      <point x="98" y="70" type="line"/>
      <point x="675" y="70" type="line"/>
      <point x="675" y="652" type="line"/>
      <point x="98" y="652" type="line"/>
    </contour>
    <contour>
      <point x="187" y="150" type="line"/>
      <point x="187" y="572" type="line"/>
      <point x="585" y="572" type="line"/>
      <point x="585" y="150" type="line"/>
    </contour>
  </outline>
</glyph>
<glyph name="brm_BHA" format="2">
  <advance width="898"/>
  <unicode hex="1102A"/>
  <outline>
    <contour>
      <point x="566" y="0" type="line"/>
      <point x="656" y="0" type="line"/>
      <point x="656" y="420" type="line"/>
      <point x="830" y="420" type="line"/>
      <point x="830" y="714" type="line"/>
      <point x="740" y="714" type="line"/>
      <point x="740" y="500" type="line"/>
      <point x="98" y="500" type="line"/>
      <point x="98" y="0" type="line"/>
      <point x="187" y="0" type="line"/>
      <point x="187" y="420" type="line"/>
      <point x="566" y="420" type="line"/>
    </contour>
  </outline>
</glyph>
<glyph name="brm_MA" format="2">
  <advance width="698"/>
  <unicode hex="1102B"/>
  <outline>
    <contour>
      <point x="347" y="-12" type="curve" smooth="yes"/>
      <point x="486" y="-12"/>
      <point x="562" y="55"/>
      <point x="562" y="174" type="curve" smooth="yes"/>
      <point x="562" y="262"/>
      <point x="523" y="332"/>
      <point x="427" y="395" type="curve"/>
      <point x="553" y="472"/>
      <point x="620" y="538"/>
      <point x="620" y="674" type="curve" smooth="yes"/>
      <point x="620" y="714" type="line"/>
      <point x="530" y="714" type="line"/>
      <point x="530" y="674" type="line" smooth="yes"/>
      <point x="530" y="550"/>
      <point x="442" y="498"/>
      <point x="349" y="442" type="curve"/>
      <point x="256" y="497"/>
      <point x="168" y="550"/>
      <point x="168" y="674" type="curve" smooth="yes"/>
      <point x="168" y="714" type="line"/>
      <point x="78" y="714" type="line"/>
      <point x="78" y="674" type="line" smooth="yes"/>
      <point x="78" y="538"/>
      <point x="144" y="469"/>
      <point x="272" y="394" type="curve"/>
      <point x="179" y="333"/>
      <point x="136" y="263"/>
      <point x="136" y="174" type="curve" smooth="yes"/>
      <point x="136" y="57"/>
      <point x="212" y="-12"/>
    </contour>
    <contour>
      <point x="347" y="72" type="curve" smooth="yes"/>
      <point x="275" y="72"/>
      <point x="231" y="107"/>
      <point x="231" y="178" type="curve" smooth="yes"/>
      <point x="231" y="246"/>
      <point x="270" y="299"/>
      <point x="351" y="350" type="curve"/>
      <point x="431" y="299"/>
      <point x="467" y="246"/>
      <point x="467" y="178" type="curve" smooth="yes"/>
      <point x="467" y="106"/>
      <point x="423" y="72"/>
    </contour>
  </outline>
</glyph>
<glyph name="brm_YA" format="2">
  <advance width="807"/>
  <unicode hex="1102C"/>
  <outline>
    <contour>
      <point x="259" y="-12" type="curve" smooth="yes"/>
      <point x="326" y="-12"/>
      <point x="374" y="6"/>
      <point x="403" y="42" type="curve"/>
      <point x="432" y="6"/>
      <point x="480" y="-12"/>
      <point x="547" y="-12" type="curve" smooth="yes"/>
      <point x="683" y="-12"/>
      <point x="743" y="54"/>
      <point x="743" y="218" type="curve" smooth="yes"/>
      <point x="743" y="251" type="line"/>
      <point x="653" y="251" type="line"/>
      <point x="653" y="218" type="line" smooth="yes"/>
      <point x="653" y="110"/>
      <point x="628" y="72"/>
      <point x="553" y="72" type="curve" smooth="yes"/>
      <point x="474" y="72"/>
      <point x="448" y="109"/>
      <point x="448" y="208" type="curve" smooth="yes"/>
      <point x="448" y="714" type="line"/>
      <point x="358" y="714" type="line"/>
      <point x="358" y="208" type="line" smooth="yes"/>
      <point x="358" y="112"/>
      <point x="331" y="72"/>
      <point x="254" y="72" type="curve" smooth="yes"/>
      <point x="178" y="72"/>
      <point x="153" y="110"/>
      <point x="153" y="218" type="curve" smooth="yes"/>
      <point x="153" y="251" type="line"/>
      <point x="63" y="251" type="line"/>
      <point x="63" y="218" type="line" smooth="yes"/>
      <point x="63" y="53"/>
      <point x="124" y="-12"/>
    </contour>
  </outline>
</glyph>
<glyph name="brm_RA" format="2">
  <advance width="324"/>
  <unicode hex="1102D"/>
  <outline>
    <contour>
      <point x="117" y="0" type="line"/>
      <point x="207" y="0" type="line"/>
      <point x="207" y="714" type="line"/>
      <point x="117" y="714" type="line"/>
    </contour>
  </outline>
</glyph>
<glyph name="brm_LA" format="2">
  <advance width="732"/>
  <unicode hex="1102E"/>
  <outline>
    <contour>
      <point x="421" y="-12" type="curve" smooth="yes"/>
      <point x="587" y="-12"/>
      <point x="635" y="78"/>
      <point x="635" y="254" type="curve" smooth="yes"/>
      <point x="635" y="714" type="line"/>
      <point x="545" y="714" type="line"/>
      <point x="545" y="251" type="line" smooth="yes"/>
      <point x="545" y="134"/>
      <point x="528" y="73"/>
      <point x="421" y="73" type="curve" smooth="yes"/>
      <point x="311" y="73"/>
      <point x="291" y="133"/>
      <point x="291" y="251" type="curve" smooth="yes"/>
      <point x="291" y="255" type="line"/>
      <point x="49" y="255" type="line"/>
      <point x="49" y="175" type="line"/>
      <point x="205" y="175" type="line"/>
      <point x="220" y="44"/>
      <point x="286" y="-12"/>
    </contour>
  </outline>
</glyph>
<glyph name="brm_VA" format="2">
  <advance width="509"/>
  <unicode hex="1102F"/>
  <outline>
    <contour>
      <point x="254" y="-12" type="curve" smooth="yes"/>
      <point x="357" y="-12"/>
      <point x="445" y="68"/>
      <point x="445" y="171" type="curve" smooth="yes"/>
      <point x="445" y="256"/>
      <point x="387" y="330"/>
      <point x="299" y="350" type="curve"/>
      <point x="299" y="714" type="line"/>
      <point x="209" y="714" type="line"/>
      <point x="209" y="350" type="line"/>
      <point x="122" y="329"/>
      <point x="63" y="256"/>
      <point x="63" y="171" type="curve" smooth="yes"/>
      <point x="63" y="72"/>
      <point x="150" y="-12"/>
    </contour>
    <contour>
      <point x="254" y="67" type="curve" smooth="yes"/>
      <point x="197" y="67"/>
      <point x="153" y="115"/>
      <point x="153" y="171" type="curve" smooth="yes"/>
      <point x="153" y="230"/>
      <point x="197" y="276"/>
      <point x="254" y="276" type="curve" smooth="yes"/>
      <point x="313" y="276"/>
      <point x="355" y="230"/>
      <point x="355" y="171" type="curve" smooth="yes"/>
      <point x="355" y="114"/>
      <point x="311" y="67"/>
    </contour>
  </outline>
</glyph>
<glyph name="brm_SHA" format="2">
  <advance width="659"/>
  <unicode hex="11030"/>
  <outline>
    <contour>
      <point x="289" y="0" type="line"/>
      <point x="367" y="0" type="line"/>
      <point x="367" y="547" type="line"/>
      <point x="391" y="445" type="line"/>
      <point x="534" y="0" type="line"/>
      <point x="629" y="0" type="line"/>
      <point x="372" y="714" type="line"/>
      <point x="287" y="714" type="line"/>
      <point x="29" y="0" type="line"/>
      <point x="124" y="0" type="line"/>
      <point x="269" y="451" type="line"/>
      <point x="289" y="537" type="line"/>
    </contour>
  </outline>
</glyph>
<glyph name="SA" format="2">
  <advance width="878"/>
  <unicode hex="11032"/>
  <outline>
    <contour>
      <point x="577" y="-12" type="curve" smooth="yes"/>
      <point x="735" y="-12"/>
      <point x="814" y="60"/>
      <point x="814" y="250" type="curve" smooth="yes"/>
      <point x="814" y="252" type="line"/>
      <point x="725" y="252" type="line"/>
      <point x="725" y="250" type="line" smooth="yes"/>
      <point x="725" y="122"/>
      <point x="680" y="72"/>
      <point x="581" y="72" type="curve" smooth="yes"/>
      <point x="481" y="72"/>
      <point x="442" y="117"/>
      <point x="442" y="249" type="curve" smooth="yes"/>
      <point x="442" y="714" type="line"/>
      <point x="352" y="714" type="line"/>
      <point x="352" y="348" type="line"/>
      <point x="327" y="355"/>
      <point x="302" y="359"/>
      <point x="277" y="359" type="curve" smooth="yes"/>
      <point x="148" y="359"/>
      <point x="78" y="300"/>
      <point x="78" y="163" type="curve" smooth="yes"/>
      <point x="78" y="0" type="line"/>
      <point x="168" y="0" type="line"/>
      <point x="168" y="146" type="line" smooth="yes"/>
      <point x="168" y="237"/>
      <point x="200" y="275"/>
      <point x="288" y="275" type="curve" smooth="yes"/>
      <point x="313" y="275"/>
      <point x="334" y="272"/>
      <point x="352" y="267" type="curve"/>
      <point x="352" y="252" type="line" smooth="yes"/>
      <point x="352" y="68"/>
      <point x="423" y="-12"/>
    </contour>
  </outline>
</glyph>
<glyph name="brm_HA" format="2">
  <advance width="732"/>
  <unicode hex="11033"/>
  <outline>
    <contour>
      <point x="311" y="-12" type="curve" smooth="yes"/>
      <point x="446" y="-12"/>
      <point x="514" y="44"/>
      <point x="527" y="175" type="curve"/>
      <point x="684" y="175" type="line"/>
      <point x="684" y="255" type="line"/>
      <point x="441" y="255" type="line"/>
      <point x="441" y="136"/>
      <point x="422" y="72"/>
      <point x="312" y="72" type="curve" smooth="yes"/>
      <point x="202" y="72"/>
      <point x="187" y="129"/>
      <point x="187" y="249" type="curve" smooth="yes"/>
      <point x="187" y="714" type="line"/>
      <point x="98" y="714" type="line"/>
      <point x="98" y="252" type="line" smooth="yes"/>
      <point x="98" y="79"/>
      <point x="144" y="-12"/>
    </contour>
  </outline>
</glyph>
<glyph name="brm_LLA" format="2">
  <advance width="989"/>
  <unicode hex="11034"/>
  <outline>
    <contour>
      <point x="421" y="-12" type="curve" smooth="yes"/>
      <point x="587" y="-12"/>
      <point x="635" y="77"/>
      <point x="635" y="252" type="curve" smooth="yes"/>
      <point x="635" y="266" type="line"/>
      <point x="654" y="272"/>
      <point x="676" y="275"/>
      <point x="701" y="275" type="curve" smooth="yes"/>
      <point x="788" y="275"/>
      <point x="821" y="237"/>
      <point x="821" y="146" type="curve" smooth="yes"/>
      <point x="821" y="0" type="line"/>
      <point x="911" y="0" type="line"/>
      <point x="911" y="163" type="line" smooth="yes"/>
      <point x="911" y="300"/>
      <point x="842" y="359"/>
      <point x="711" y="359" type="curve" smooth="yes"/>
      <point x="684" y="359"/>
      <point x="659" y="355"/>
      <point x="635" y="347" type="curve"/>
      <point x="635" y="714" type="line"/>
      <point x="545" y="714" type="line"/>
      <point x="545" y="247" type="line" smooth="yes"/>
      <point x="545" y="130"/>
      <point x="524" y="72"/>
      <point x="428" y="72" type="curve" smooth="yes"/>
      <point x="327" y="72"/>
      <point x="292" y="107"/>
      <point x="291" y="255" type="curve"/>
      <point x="49" y="255" type="line"/>
      <point x="49" y="175" type="line"/>
      <point x="205" y="175" type="line"/>
      <point x="220" y="44"/>
      <point x="288" y="-12"/>
    </contour>
  </outline>
</glyph>
<glyph name="brm_LLLA" format="2">
  <advance width="582"/>
  <unicode hex="11035"/>
  <outline>
    <contour>
      <point x="63" y="0" type="line"/>
      <point x="153" y="0" type="line"/>
      <point x="153" y="179" type="line"/>
      <point x="373" y="179" type="line"/>
      <point x="373" y="333" type="line"/>
      <point x="462" y="352"/>
      <point x="533" y="429"/>
      <point x="533" y="527" type="curve" smooth="yes"/>
      <point x="533" y="639"/>
      <point x="438" y="724"/>
      <point x="328" y="724" type="curve" smooth="yes"/>
      <point x="218" y="724"/>
      <point x="122" y="637"/>
      <point x="122" y="526" type="curve" smooth="yes"/>
      <point x="122" y="429"/>
      <point x="191" y="353"/>
      <point x="283" y="333" type="curve"/>
      <point x="283" y="259" type="line"/>
      <point x="63" y="259" type="line"/>
    </contour>
    <contour>
      <point x="286" y="412" type="line"/>
      <point x="238" y="429"/>
      <point x="208" y="473"/>
      <point x="208" y="525" type="curve" smooth="yes"/>
      <point x="208" y="580"/>
      <point x="238" y="624"/>
      <point x="286" y="640" type="curve"/>
    </contour>
    <contour>
      <point x="370" y="412" type="curve"/>
      <point x="370" y="640" type="line"/>
      <point x="417" y="623"/>
      <point x="448" y="580"/>
      <point x="448" y="525" type="curve" smooth="yes"/>
      <point x="448" y="473"/>
      <point x="418" y="429"/>
    </contour>
  </outline>
</glyph>
<glyph name="brm_RRA" format="2">
  <advance width="525"/>
  <unicode hex="11036"/>
  <outline>
    <contour>
      <point x="63" y="0" type="line"/>
      <point x="153" y="0" type="line"/>
      <point x="153" y="122" type="line" smooth="yes"/>
      <point x="153" y="209"/>
      <point x="184" y="246"/>
      <point x="273" y="246" type="curve" smooth="yes"/>
      <point x="297" y="246"/>
      <point x="319" y="243"/>
      <point x="338" y="237" type="curve"/>
      <point x="338" y="0" type="line"/>
      <point x="428" y="0" type="line"/>
      <point x="428" y="513" type="line"/>
      <point x="344" y="513" type="line" smooth="yes"/>
      <point x="277" y="513"/>
      <point x="243" y="532"/>
      <point x="243" y="569" type="curve" smooth="yes"/>
      <point x="243" y="617"/>
      <point x="273" y="634"/>
      <point x="344" y="634" type="curve" smooth="yes"/>
      <point x="428" y="634" type="line"/>
      <point x="428" y="714" type="line"/>
      <point x="342" y="714" type="line" smooth="yes"/>
      <point x="222" y="714"/>
      <point x="153" y="666"/>
      <point x="153" y="569" type="curve" smooth="yes"/>
      <point x="153" y="481"/>
      <point x="219" y="434"/>
      <point x="338" y="433" type="curve"/>
      <point x="338" y="318" type="line"/>
      <point x="313" y="326"/>
      <point x="288" y="330"/>
      <point x="263" y="330" type="curve" smooth="yes"/>
      <point x="126" y="330"/>
      <point x="63" y="268"/>
      <point x="63" y="139" type="curve" smooth="yes"/>
    </contour>
  </outline>
</glyph>
<glyph name="brm_NNNA" format="2">
  <advance width="627"/>
  <unicode hex="11037"/>
  <outline>
    <contour>
      <point x="49" y="0" type="line"/>
      <point x="549" y="0" type="line"/>
      <point x="549" y="79" type="line"/>
      <point x="254" y="79" type="line"/>
      <point x="254" y="497" type="line" smooth="yes"/>
      <point x="254" y="604"/>
      <point x="280" y="642"/>
      <point x="359" y="642" type="curve" smooth="yes"/>
      <point x="435" y="642"/>
      <point x="459" y="604"/>
      <point x="459" y="496" type="curve" smooth="yes"/>
      <point x="459" y="482" type="line"/>
      <point x="549" y="482" type="line"/>
      <point x="549" y="496" type="line" smooth="yes"/>
      <point x="549" y="661"/>
      <point x="489" y="726"/>
      <point x="354" y="726" type="curve" smooth="yes"/>
      <point x="221" y="726"/>
      <point x="165" y="659"/>
      <point x="165" y="494" type="curve" smooth="yes"/>
      <point x="165" y="79" type="line"/>
      <point x="49" y="79" type="line"/>
    </contour>
  </outline>
</glyph>
<glyph name="brm_vowelAA" format="2">
  <unicode hex="11038"/>
  <outline>
    <contour>
      <point x="0" y="714" type="line"/>
      <point x="0" y="634" type="line"/>
      <point x="278" y="634" type="line"/>
      <point x="278" y="714" type="line"/>
    </contour>
  </outline>
</glyph>
<glyph name="brm_vowelBHATTIPROLUAA" format="2">
  <unicode hex="11039"/>
  <outline>
    <contour>
      <point x="0" y="839" type="line"/>
      <point x="0" y="759" type="line"/>
      <point x="201" y="759" type="line"/>
      <point x="201" y="624" type="line"/>
      <point x="286" y="624" type="line"/>
      <point x="286" y="839" type="line"/>
    </contour>
  </outline>
</glyph>
<glyph name="brm_vowelI" format="2">
  <unicode hex="1103A"/>
  <outline>
    <contour>
      <point x="0" y="714" type="line"/>
      <point x="0" y="634" type="line"/>
      <point x="286" y="634" type="line"/>
      <point x="286" y="839" type="line"/>
      <point x="201" y="839" type="line"/>
      <point x="201" y="714" type="line"/>
    </contour>
  </outline>
</glyph>
<glyph name="brm_vowelII" format="2">
  <unicode hex="1103B"/>
  <outline>
    <contour>
      <point x="0" y="634" type="line"/>
      <point x="315" y="634" type="line"/>
      <point x="315" y="839" type="line"/>
      <point x="230" y="839" type="line"/>
      <point x="230" y="714" type="line"/>
      <point x="164" y="714" type="line"/>
      <point x="164" y="839" type="line"/>
      <point x="79" y="839" type="line"/>
      <point x="79" y="714" type="line"/>
      <point x="0" y="714" type="line"/>
    </contour>
  </outline>
</glyph>
<glyph name="brm_vowelU" format="2">
  <unicode hex="1103C"/>
  <outline>
    <contour>
      <point x="0" y="80" type="line"/>
      <point x="0" y="0" type="line"/>
      <point x="269" y="0" type="line"/>
      <point x="269" y="80" type="line"/>
    </contour>
  </outline>
</glyph>
<glyph name="brm_vowelUU" format="2">
  <unicode hex="1103D"/>
  <outline>
    <contour>
      <point x="0" y="80" type="line"/>
      <point x="0" y="0" type="line"/>
      <point x="269" y="0" type="line"/>
      <point x="269" y="80" type="line"/>
    </contour>
    <contour>
      <point x="0" y="236" type="line"/>
      <point x="0" y="156" type="line"/>
      <point x="269" y="156" type="line"/>
      <point x="269" y="236" type="line"/>
    </contour>
  </outline>
</glyph>
<glyph name="brm_VOCALIC_R" format="2">
  <unicode hex="1103E"/>
  <outline>
    <contour>
      <point x="-269" y="80" type="line"/>
      <point x="-269" y="0" type="line"/>
      <point x="0" y="0" type="line"/>
      <point x="0" y="80" type="line"/>
    </contour>
  </outline>
</glyph>
<glyph name="brm_VOCALIC_LL" format="2">
  <unicode hex="11041"/>
  <outline>
    <contour>
      <point x="152" y="-273" type="curve" smooth="yes"/>
      <point x="169" y="-273"/>
      <point x="184" y="-271"/>
      <point x="199" y="-266" type="curve"/>
      <point x="188" y="-199" type="line"/>
      <point x="179" y="-202"/>
      <point x="167" y="-204"/>
      <point x="152" y="-204" type="curve" smooth="yes"/>
      <point x="109" y="-204"/>
      <point x="75" y="-175"/>
      <point x="75" y="-132" type="curve" smooth="yes"/>
      <point x="75" y="-93"/>
      <point x="107" y="-64"/>
      <point x="147" y="-64" type="curve" smooth="yes"/>
      <point x="190" y="-64"/>
      <point x="226" y="-90"/>
      <point x="277" y="-147" type="curve" smooth="yes"/>
      <point x="326" y="-202"/>
      <point x="366" y="-229"/>
      <point x="414" y="-229" type="curve" smooth="yes"/>
      <point x="478" y="-229"/>
      <point x="519" y="-190"/>
      <point x="519" y="-131" type="curve" smooth="yes"/>
      <point x="519" y="-86"/>
      <point x="504" y="-53"/>
      <point x="475" y="-33" type="curve"/>
      <point x="414" y="-74" type="line"/>
      <point x="431" y="-86"/>
      <point x="444" y="-110"/>
      <point x="444" y="-126" type="curve" smooth="yes"/>
      <point x="444" y="-150"/>
      <point x="431" y="-160"/>
      <point x="412" y="-160" type="curve" smooth="yes"/>
      <point x="383" y="-160"/>
      <point x="358" y="-135"/>
      <point x="333" y="-106" type="curve"/>
      <point x="388" y="-34" type="line"/>
      <point x="336" y="6" type="line"/>
      <point x="287" y="-58" type="line"/>
      <point x="244" y="-16"/>
      <point x="196" y="5"/>
      <point x="143" y="5" type="curve" smooth="yes"/>
      <point x="59" y="5"/>
      <point x="0" y="-51"/>
      <point x="0" y="-132" type="curve" smooth="yes"/>
      <point x="0" y="-221"/>
      <point x="57" y="-273"/>
    </contour>
  </outline>
</glyph>
<glyph name="brm_vowelEE" format="2">
  <unicode hex="11042"/>
  <outline>
    <contour>
      <point x="-269" y="714" type="line"/>
      <point x="-269" y="634" type="line"/>
      <point x="0" y="634" type="line"/>
      <point x="0" y="714" type="line"/>
    </contour>
  </outline>
</glyph>
<glyph name="brm_vowelAI" format="2">
  <unicode hex="11043"/>
  <outline>
    <contour>
      <point x="-259" y="714" type="line"/>
      <point x="-259" y="634" type="line"/>
      <point x="0" y="634" type="line"/>
      <point x="0" y="714" type="line"/>
    </contour>
    <contour>
      <point x="-259" y="874" type="line"/>
      <point x="-259" y="794" type="line"/>
      <point x="0" y="794" type="line"/>
      <point x="0" y="874" type="line"/>
    </contour>
  </outline>
</glyph>
<glyph name="brm_vowelOO" format="2">
  <unicode hex="11044"/>
  <outline>
    <contour>
      <point x="0" y="714" type="line"/>
      <point x="0" y="634" type="line"/>
      <point x="259" y="634" type="line"/>
      <point x="259" y="714" type="line"/>
    </contour>
    <contour>
      <point x="275" y="714" type="line"/>
      <point x="275" y="634" type="line"/>
      <point x="534" y="634" type="line"/>
      <point x="534" y="714" type="line"/>
    </contour>
  </outline>
</glyph>
<glyph name="brm_vowelAU" format="2">
  <unicode hex="11045"/>
  <outline>
    <contour>
      <point x="0" y="554" type="line"/>
      <point x="0" y="474" type="line"/>
      <point x="269" y="474" type="line"/>
      <point x="269" y="554" type="line"/>
    </contour>
    <contour>
      <point x="0" y="714" type="line"/>
      <point x="0" y="634" type="line"/>
      <point x="269" y="634" type="line"/>
      <point x="269" y="714" type="line"/>
    </contour>
    <contour>
      <point x="310" y="634" type="line"/>
      <point x="310" y="554" type="line"/>
      <point x="578" y="554" type="line"/>
      <point x="578" y="634" type="line"/>
    </contour>
  </outline>
</glyph>
<glyph name="brm_virama" format="2">
  <unicode hex="11046"/>
  <outline>
    <contour>
      <point x="0" y="881" type="line"/>
      <point x="0" y="801" type="line"/>
      <point x="290" y="801" type="line"/>
      <point x="290" y="881" type="line"/>
    </contour>
  </outline>
</glyph>
<glyph name="brm_danda" format="2">
  <advance width="345"/>
  <unicode hex="11047"/>
  <outline>
    <contour>
      <point x="137" y="825" type="line"/>
      <point x="137" y="0" type="line"/>
      <point x="208" y="0" type="line"/>
      <point x="208" y="825" type="line"/>
    </contour>
  </outline>
</glyph>
<glyph name="brm_doubledanda" format="2">
  <advance width="491"/>
  <unicode hex="11048"/>
  <outline>
    <contour>
      <point x="137" y="825" type="line"/>
      <point x="137" y="0" type="line"/>
      <point x="208" y="0" type="line"/>
      <point x="208" y="825" type="line"/>
    </contour>
    <contour>
      <point x="283" y="825" type="line"/>
      <point x="283" y="0" type="line"/>
      <point x="354" y="0" type="line"/>
      <point x="354" y="825" type="line"/>
    </contour>
  </outline>
</glyph>
<glyph name="brm_punctDOT" format="2">
  <advance width="522"/>
  <unicode hex="11049"/>
  <outline>
    <contour>
      <point x="146" y="412" type="line"/>
      <point x="146" y="332" type="line"/>
      <point x="376" y="332" type="line"/>
      <point x="376" y="412" type="line"/>
    </contour>
  </outline>
</glyph>
<glyph name="brm_punctDBLDOT" format="2">
  <advance width="522"/>
  <unicode hex="1104A"/>
  <outline>
    <contour>
      <point x="146" y="492" type="line"/>
      <point x="146" y="412" type="line"/>
      <point x="376" y="412" type="line"/>
      <point x="376" y="492" type="line"/>
    </contour>
    <contour>
      <point x="146" y="332" type="line"/>
      <point x="146" y="252" type="line"/>
      <point x="376" y="252" type="line"/>
      <point x="376" y="332" type="line"/>
    </contour>
  </outline>
</glyph>
<glyph name="brm_punctLINE" format="2">
  <advance width="962"/>
  <unicode hex="1104B"/>
  <outline>
    <contour>
      <point x="49" y="412" type="line"/>
      <point x="49" y="332" type="line"/>
      <point x="913" y="332" type="line"/>
      <point x="913" y="412" type="line"/>
    </contour>
  </outline>
</glyph>
<glyph name="brm_punctBAR" format="2">
  <advance width="896"/>
  <unicode hex="1104C"/>
  <outline>
    <contour>
      <point x="372" y="-10" type="curve" smooth="yes"/>
      <point x="577" y="-10"/>
      <point x="692" y="126"/>
      <point x="700" y="333" type="curve"/>
      <point x="847" y="333" type="line"/>
      <point x="847" y="412" type="line"/>
      <point x="698" y="412" type="line"/>
      <point x="679" y="612"/>
      <point x="561" y="725"/>
      <point x="373" y="725" type="curve" smooth="yes"/>
      <point x="238" y="725"/>
      <point x="141" y="671"/>
      <point x="89" y="574" type="curve"/>
      <point x="176" y="544" type="line"/>
      <point x="215" y="612"/>
      <point x="280" y="646"/>
      <point x="373" y="646" type="curve" smooth="yes"/>
      <point x="511" y="646"/>
      <point x="588" y="568"/>
      <point x="603" y="412" type="curve"/>
      <point x="49" y="412" type="line"/>
      <point x="49" y="333" type="line"/>
      <point x="605" y="333" type="line"/>
      <point x="598" y="158"/>
      <point x="517" y="68"/>
      <point x="372" y="68" type="curve" smooth="yes"/>
      <point x="262" y="68"/>
      <point x="190" y="118"/>
      <point x="156" y="218" type="curve"/>
      <point x="65" y="197" type="line"/>
      <point x="110" y="62"/>
      <point x="215" y="-10"/>
    </contour>
  </outline>
</glyph>
<glyph name="brm_Lotus" format="2">
  <advance width="934"/>
  <unicode hex="1104D"/>
  <outline>
    <contour>
      <point x="467" y="-94" type="curve"/>
      <point x="482" y="-87"/>
      <point x="504" y="-67"/>
      <point x="533" y="-32" type="curve" smooth="yes"/>
      <point x="562" y="3"/>
      <point x="581" y="28"/>
      <point x="590" y="45" type="curve"/>
      <point x="617" y="36"/>
      <point x="655" y="32"/>
      <point x="704" y="32" type="curve" smooth="yes"/>
      <point x="717" y="32"/>
      <point x="773" y="33"/>
      <point x="778" y="35" type="curve"/>
      <point x="780" y="103" type="line" smooth="yes"/>
      <point x="781" y="150"/>
      <point x="776" y="195"/>
      <point x="767" y="223" type="curve"/>
      <point x="820" y="248"/>
      <point x="892" y="331"/>
      <point x="904" y="345" type="curve"/>
      <point x="895" y="356"/>
      <point x="881" y="371"/>
      <point x="861" y="392" type="curve" smooth="yes"/>
      <point x="841" y="413"/>
      <point x="823" y="429"/>
      <point x="806" y="442" type="curve" smooth="yes"/>
      <point x="790" y="455"/>
      <point x="777" y="464"/>
      <point x="766" y="469" type="curve"/>
      <point x="775" y="495"/>
      <point x="781" y="536"/>
      <point x="780" y="587" type="curve" smooth="yes"/>
      <point x="778" y="656" type="line"/>
      <point x="769" y="657"/>
      <point x="738" y="659"/>
      <point x="704" y="659" type="curve" smooth="yes"/>
      <point x="655" y="659"/>
      <point x="617" y="655"/>
      <point x="590" y="646" type="curve"/>
      <point x="577" y="668"/>
      <point x="557" y="695"/>
      <point x="529" y="727" type="curve" smooth="yes"/>
      <point x="501" y="760"/>
      <point x="480" y="779"/>
      <point x="467" y="785" type="curve"/>
      <point x="444" y="766"/>
      <point x="419" y="743"/>
      <point x="394" y="716" type="curve" smooth="yes"/>
      <point x="369" y="689"/>
      <point x="352" y="667"/>
      <point x="344" y="648" type="curve"/>
      <point x="315" y="655"/>
      <point x="277" y="659"/>
      <point x="229" y="659" type="curve" smooth="yes"/>
      <point x="195" y="659"/>
      <point x="163" y="657"/>
      <point x="156" y="656" type="curve"/>
      <point x="154" y="598" type="line" smooth="yes"/>
      <point x="152" y="539"/>
      <point x="158" y="495"/>
      <point x="168" y="469" type="curve"/>
      <point x="149" y="460"/>
      <point x="125" y="444"/>
      <point x="97" y="417" type="curve" smooth="yes"/>
      <point x="70" y="391"/>
      <point x="47" y="367"/>
      <point x="29" y="345" type="curve"/>
      <point x="40" y="331"/>
      <point x="60" y="309"/>
      <point x="91" y="279" type="curve" smooth="yes"/>
      <point x="122" y="249"/>
      <point x="148" y="231"/>
      <point x="167" y="223" type="curve"/>
      <point x="158" y="195"/>
      <point x="151" y="159"/>
      <point x="154" y="87" type="curve" smooth="yes"/>
      <point x="156" y="35" type="line"/>
      <point x="160" y="34"/>
      <point x="213" y="32"/>
      <point x="229" y="32" type="curve" smooth="yes"/>
      <point x="267" y="32"/>
      <point x="305" y="37"/>
      <point x="342" y="46" type="curve"/>
      <point x="349" y="29"/>
      <point x="366" y="6"/>
      <point x="391" y="-22" type="curve" smooth="yes"/>
      <point x="416" y="-50"/>
      <point x="442" y="-74"/>
    </contour>
    <contour>
      <point x="386" y="250" type="curve" smooth="yes"/>
      <point x="403" y="250"/>
      <point x="457" y="305"/>
      <point x="457" y="328" type="curve" smooth="yes"/>
      <point x="457" y="332"/>
      <point x="456" y="335"/>
      <point x="451" y="335" type="curve" smooth="yes"/>
      <point x="434" y="335"/>
      <point x="378" y="278"/>
      <point x="378" y="257" type="curve" smooth="yes"/>
      <point x="378" y="253"/>
      <point x="379" y="250"/>
    </contour>
    <contour>
      <point x="394" y="330" type="curve" smooth="yes"/>
      <point x="425" y="330"/>
      <point x="450" y="337"/>
      <point x="450" y="346" type="curve" smooth="yes"/>
      <point x="450" y="355"/>
      <point x="423" y="361"/>
      <point x="394" y="361" type="curve" smooth="yes"/>
      <point x="363" y="361"/>
      <point x="339" y="354"/>
      <point x="339" y="346" type="curve" smooth="yes"/>
      <point x="339" y="337"/>
      <point x="363" y="330"/>
    </contour>
    <contour>
      <point x="467" y="218" type="curve" smooth="yes"/>
      <point x="476" y="218"/>
      <point x="482" y="242"/>
      <point x="482" y="273" type="curve" smooth="yes"/>
      <point x="482" y="302"/>
      <point x="475" y="329"/>
      <point x="467" y="329" type="curve" smooth="yes"/>
      <point x="458" y="329"/>
      <point x="452" y="301"/>
      <point x="452" y="273" type="curve" smooth="yes"/>
      <point x="452" y="242"/>
      <point x="458" y="218"/>
    </contour>
    <contour>
      <point x="548" y="250" type="curve" smooth="yes"/>
      <point x="552" y="250"/>
      <point x="556" y="250"/>
      <point x="556" y="256" type="curve" smooth="yes"/>
      <point x="556" y="278"/>
      <point x="501" y="335"/>
      <point x="483" y="335" type="curve" smooth="yes"/>
      <point x="478" y="335"/>
      <point x="477" y="332"/>
      <point x="477" y="328" type="curve" smooth="yes"/>
      <point x="477" y="306"/>
      <point x="528" y="250"/>
    </contour>
    <contour>
      <point x="467" y="-47" type="curve"/>
      <point x="448" y="-34"/>
      <point x="428" y="-15"/>
      <point x="407" y="10" type="curve" smooth="yes"/>
      <point x="386" y="36"/>
      <point x="376" y="54"/>
      <point x="376" y="64" type="curve" smooth="yes"/>
      <point x="376" y="87"/>
      <point x="397" y="139"/>
      <point x="430" y="196" type="curve"/>
      <point x="398" y="218" type="line"/>
      <point x="367" y="153"/>
      <point x="348" y="108"/>
      <point x="341" y="84" type="curve"/>
      <point x="334" y="79"/>
      <point x="319" y="75"/>
      <point x="295" y="70" type="curve" smooth="yes"/>
      <point x="272" y="65"/>
      <point x="250" y="64"/>
      <point x="231" y="64" type="curve" smooth="yes"/>
      <point x="214" y="64"/>
      <point x="200" y="65"/>
      <point x="189" y="68" type="curve"/>
      <point x="187" y="77"/>
      <point x="186" y="90"/>
      <point x="186" y="107" type="curve" smooth="yes"/>
      <point x="186" y="158"/>
      <point x="195" y="205"/>
      <point x="205" y="215" type="curve" smooth="yes"/>
      <point x="211" y="221" type="line"/>
      <point x="239" y="228"/>
      <point x="283" y="247"/>
      <point x="342" y="277" type="curve"/>
      <point x="319" y="310" type="line"/>
      <point x="270" y="279"/>
      <point x="215" y="256"/>
      <point x="187" y="256" type="curve" smooth="yes"/>
      <point x="177" y="256"/>
      <point x="159" y="266"/>
      <point x="134" y="286" type="curve" smooth="yes"/>
      <point x="109" y="306"/>
      <point x="90" y="326"/>
      <point x="76" y="346" type="curve"/>
      <point x="88" y="363"/>
      <point x="107" y="382"/>
      <point x="133" y="403" type="curve" smooth="yes"/>
      <point x="159" y="424"/>
      <point x="177" y="436"/>
      <point x="187" y="436" type="curve" smooth="yes"/>
      <point x="192" y="436"/>
      <point x="204" y="434"/>
      <point x="221" y="428" type="curve" smooth="yes"/>
      <point x="240" y="421"/>
      <point x="276" y="407"/>
      <point x="329" y="386" type="curve"/>
      <point x="336" y="426" type="line"/>
      <point x="313" y="431"/>
      <point x="288" y="439"/>
      <point x="261" y="450" type="curve" smooth="yes"/>
      <point x="234" y="461"/>
      <point x="216" y="471"/>
      <point x="205" y="481" type="curve" smooth="yes"/>
      <point x="193" y="492"/>
      <point x="186" y="540"/>
      <point x="186" y="583" type="curve" smooth="yes"/>
      <point x="186" y="601"/>
      <point x="187" y="615"/>
      <point x="189" y="624" type="curve"/>
      <point x="201" y="625"/>
      <point x="215" y="626"/>
      <point x="231" y="626" type="curve" smooth="yes"/>
      <point x="248" y="626"/>
      <point x="267" y="624"/>
      <point x="290" y="620" type="curve" smooth="yes"/>
      <point x="313" y="616"/>
      <point x="330" y="611"/>
      <point x="341" y="605" type="curve"/>
      <point x="352" y="571"/>
      <point x="371" y="527"/>
      <point x="398" y="473" type="curve"/>
      <point x="430" y="495" type="line"/>
      <point x="397" y="554"/>
      <point x="376" y="606"/>
      <point x="376" y="627" type="curve" smooth="yes"/>
      <point x="376" y="638"/>
      <point x="386" y="656"/>
      <point x="407" y="681" type="curve" smooth="yes"/>
      <point x="428" y="707"/>
      <point x="448" y="726"/>
      <point x="467" y="738" type="curve"/>
      <point x="486" y="725"/>
      <point x="506" y="705"/>
      <point x="526" y="680" type="curve" smooth="yes"/>
      <point x="546" y="655"/>
      <point x="557" y="638"/>
      <point x="557" y="627" type="curve" smooth="yes"/>
      <point x="557" y="603"/>
      <point x="536" y="554"/>
      <point x="503" y="495" type="curve"/>
      <point x="535" y="473" type="line"/>
      <point x="558" y="522"/>
      <point x="573" y="555"/>
      <point x="582" y="577" type="curve" smooth="yes"/>
      <point x="597" y="613"/>
      <point x="611" y="618"/>
      <point x="646" y="622" type="curve" smooth="yes"/>
      <point x="663" y="624"/>
      <point x="682" y="626"/>
      <point x="702" y="626" type="curve" smooth="yes"/>
      <point x="718" y="626"/>
      <point x="732" y="625"/>
      <point x="745" y="624" type="curve"/>
      <point x="746" y="614"/>
      <point x="747" y="600"/>
      <point x="747" y="583" type="curve" smooth="yes"/>
      <point x="747" y="536"/>
      <point x="738" y="490"/>
      <point x="729" y="481" type="curve" smooth="yes"/>
      <point x="718" y="470"/>
      <point x="698" y="460"/>
      <point x="671" y="449" type="curve" smooth="yes"/>
      <point x="644" y="438"/>
      <point x="620" y="431"/>
      <point x="597" y="426" type="curve"/>
      <point x="605" y="386" type="line"/>
      <point x="658" y="406"/>
      <point x="689" y="418"/>
      <point x="706" y="425" type="curve" smooth="yes"/>
      <point x="722" y="432"/>
      <point x="741" y="436"/>
      <point x="746" y="436" type="curve" smooth="yes"/>
      <point x="757" y="436"/>
      <point x="774" y="425"/>
      <point x="799" y="404" type="curve" smooth="yes"/>
      <point x="824" y="383"/>
      <point x="844" y="364"/>
      <point x="857" y="346" type="curve"/>
      <point x="844" y="327"/>
      <point x="824" y="307"/>
      <point x="799" y="286" type="curve" smooth="yes"/>
      <point x="774" y="265"/>
      <point x="757" y="256"/>
      <point x="746" y="256" type="curve" smooth="yes"/>
      <point x="721" y="256"/>
      <point x="669" y="277"/>
      <point x="614" y="310" type="curve"/>
      <point x="591" y="277" type="line"/>
      <point x="646" y="249"/>
      <point x="690" y="230"/>
      <point x="722" y="221" type="curve"/>
      <point x="729" y="215" type="line" smooth="yes"/>
      <point x="739" y="207"/>
      <point x="747" y="158"/>
      <point x="747" y="107" type="curve" smooth="yes"/>
      <point x="747" y="91"/>
      <point x="746" y="78"/>
      <point x="745" y="68" type="curve"/>
      <point x="734" y="65"/>
      <point x="720" y="64"/>
      <point x="702" y="64" type="curve" smooth="yes"/>
      <point x="655" y="64"/>
      <point x="616" y="71"/>
      <point x="604" y="81" type="curve" smooth="yes"/>
      <point x="598" y="86"/>
      <point x="589" y="96"/>
      <point x="583" y="111" type="curve" smooth="yes"/>
      <point x="574" y="133"/>
      <point x="564" y="156"/>
      <point x="553" y="179" type="curve" smooth="yes"/>
      <point x="547" y="192"/>
      <point x="541" y="205"/>
      <point x="535" y="218" type="curve"/>
      <point x="503" y="196" type="line"/>
      <point x="536" y="139"/>
      <point x="557" y="88"/>
      <point x="557" y="64" type="curve" smooth="yes"/>
      <point x="557" y="54"/>
      <point x="547" y="36"/>
      <point x="527" y="11" type="curve" smooth="yes"/>
      <point x="507" y="-14"/>
      <point x="487" y="-33"/>
    </contour>
    <contour>
      <point x="449" y="357" type="curve" smooth="yes"/>
      <point x="455" y="357"/>
      <point x="457" y="359"/>
      <point x="457" y="364" type="curve" smooth="yes"/>
      <point x="457" y="381"/>
      <point x="404" y="441"/>
      <point x="384" y="441" type="curve" smooth="yes"/>
      <point x="380" y="441"/>
      <point x="378" y="438"/>
      <point x="378" y="434" type="curve" smooth="yes"/>
      <point x="378" y="412"/>
      <point x="432" y="357"/>
    </contour>
    <contour>
      <point x="539" y="330" type="curve" smooth="yes"/>
      <point x="570" y="330"/>
      <point x="595" y="337"/>
      <point x="595" y="346" type="curve" smooth="yes"/>
      <point x="595" y="355"/>
      <point x="568" y="361"/>
      <point x="539" y="361" type="curve" smooth="yes"/>
      <point x="508" y="361"/>
      <point x="484" y="354"/>
      <point x="484" y="346" type="curve" smooth="yes"/>
      <point x="484" y="337"/>
      <point x="508" y="330"/>
    </contour>
    <contour>
      <point x="467" y="363" type="curve" smooth="yes"/>
      <point x="476" y="363"/>
      <point x="482" y="387"/>
      <point x="482" y="418" type="curve" smooth="yes"/>
      <point x="482" y="447"/>
      <point x="475" y="474"/>
      <point x="467" y="474" type="curve" smooth="yes"/>
      <point x="458" y="474"/>
      <point x="452" y="446"/>
      <point x="452" y="418" type="curve" smooth="yes"/>
      <point x="452" y="387"/>
      <point x="458" y="363"/>
    </contour>
    <contour>
      <point x="484" y="357" type="curve" smooth="yes"/>
      <point x="503" y="357"/>
      <point x="556" y="413"/>
      <point x="556" y="435" type="curve" smooth="yes"/>
      <point x="556" y="437"/>
      <point x="553" y="441"/>
      <point x="550" y="441" type="curve" smooth="yes"/>
      <point x="531" y="441"/>
      <point x="477" y="385"/>
      <point x="477" y="364" type="curve" smooth="yes"/>
      <point x="477" y="360"/>
      <point x="478" y="357"/>
    </contour>
  </outline>
</glyph>
<glyph name="brm_num1" format="2">
  <advance width="769"/>
  <unicode hex="11052"/>
  <outline>
    <contour>
      <point x="671" y="301" type="line"/>
      <point x="671" y="381" type="line"/>
      <point x="98" y="381" type="line"/>
      <point x="98" y="301" type="line"/>
    </contour>
  </outline>
</glyph>
<glyph name="brm_num2" format="2">
  <advance width="769"/>
  <unicode hex="11053"/>
  <outline>
    <contour>
      <point x="671" y="398" type="line"/>
      <point x="671" y="478" type="line"/>
      <point x="98" y="478" type="line"/>
      <point x="98" y="398" type="line"/>
    </contour>
    <contour>
      <point x="671" y="203" type="line"/>
      <point x="671" y="283" type="line"/>
      <point x="98" y="283" type="line"/>
      <point x="98" y="203" type="line"/>
    </contour>
  </outline>
</glyph>
<glyph name="brm_num3" format="2">
  <advance width="791"/>
  <unicode hex="11054"/>
  <outline>
    <contour>
      <point x="670" y="301" type="line"/>
      <point x="670" y="381" type="line"/>
      <point x="97" y="381" type="line"/>
      <point x="97" y="301" type="line"/>
    </contour>
    <contour>
      <point x="670" y="496" type="line"/>
      <point x="670" y="576" type="line"/>
      <point x="97" y="576" type="line"/>
      <point x="97" y="496" type="line"/>
    </contour>
    <contour>
      <point x="670" y="105" type="line"/>
      <point x="670" y="186" type="line"/>
      <point x="97" y="186" type="line"/>
      <point x="97" y="105" type="line"/>
    </contour>
  </outline>
</glyph>
<glyph name="brm_num4" format="2">
  <advance width="793"/>
  <unicode hex="11055"/>
  <outline>
    <contour>
      <point x="352" y="36" type="line"/>
      <point x="441" y="36" type="line"/>
      <point x="441" y="301" type="line"/>
      <point x="695" y="301" type="line"/>
      <point x="695" y="381" type="line"/>
      <point x="441" y="381" type="line"/>
      <point x="441" y="634" type="line"/>
      <point x="352" y="634" type="line"/>
      <point x="352" y="381" type="line"/>
      <point x="98" y="381" type="line"/>
      <point x="98" y="301" type="line"/>
      <point x="352" y="301" type="line"/>
    </contour>
  </outline>
</glyph>
<glyph name="brm_num5" format="2">
  <advance width="608"/>
  <unicode hex="11056"/>
  <outline>
    <contour>
      <point x="146" y="0" type="line"/>
      <point x="236" y="0" type="line"/>
      <point x="236" y="413" type="line"/>
      <point x="255" y="419"/>
      <point x="277" y="422"/>
      <point x="301" y="422" type="curve" smooth="yes"/>
      <point x="388" y="422"/>
      <point x="421" y="383"/>
      <point x="421" y="292" type="curve" smooth="yes"/>
      <point x="421" y="170" type="line"/>
      <point x="511" y="170" type="line"/>
      <point x="511" y="310" type="line" smooth="yes"/>
      <point x="511" y="446"/>
      <point x="441" y="505"/>
      <point x="312" y="505" type="curve" smooth="yes"/>
      <point x="286" y="505"/>
      <point x="261" y="501"/>
      <point x="236" y="494" type="curve"/>
      <point x="236" y="714" type="line"/>
      <point x="146" y="714" type="line"/>
    </contour>
  </outline>
</glyph>
<glyph name="brm_num6" format="2">
  <advance width="604"/>
  <unicode hex="11057"/>
  <outline>
    <contour>
      <point x="409" y="-10" type="curve" smooth="yes"/>
      <point x="443" y="-10"/>
      <point x="479" y="-8"/>
      <point x="516" y="-4" type="curve"/>
      <point x="516" y="77" type="line"/>
      <point x="481" y="72"/>
      <point x="447" y="70"/>
      <point x="414" y="70" type="curve" smooth="yes"/>
      <point x="247" y="70"/>
      <point x="178" y="121"/>
      <point x="178" y="225" type="curve" smooth="yes"/>
      <point x="178" y="289"/>
      <point x="233" y="334"/>
      <point x="295" y="334" type="curve" smooth="yes"/>
      <point x="304" y="334"/>
      <point x="314" y="333"/>
      <point x="326" y="331" type="curve" smooth="yes"/>
      <point x="374" y="321" type="line"/>
      <point x="374" y="401" type="line"/>
      <point x="326" y="411" type="line" smooth="yes"/>
      <point x="253" y="426"/>
      <point x="196" y="477"/>
      <point x="196" y="550" type="curve" smooth="yes"/>
      <point x="196" y="606"/>
      <point x="238" y="643"/>
      <point x="297" y="643" type="curve" smooth="yes"/>
      <point x="353" y="643"/>
      <point x="393" y="626"/>
      <point x="436" y="589" type="curve"/>
      <point x="510" y="632" type="line"/>
      <point x="444" y="696"/>
      <point x="394" y="723"/>
      <point x="297" y="723" type="curve" smooth="yes"/>
      <point x="181" y="723"/>
      <point x="105" y="635"/>
      <point x="105" y="549" type="curve" smooth="yes"/>
      <point x="105" y="472"/>
      <point x="127" y="425"/>
      <point x="198" y="373" type="curve"/>
      <point x="129" y="342"/>
      <point x="88" y="285"/>
      <point x="88" y="217" type="curve" smooth="yes"/>
      <point x="88" y="65"/>
      <point x="190" y="-10"/>
    </contour>
  </outline>
</glyph>
<glyph name="brm_num7" format="2">
  <advance width="596"/>
  <unicode hex="11058"/>
  <outline>
    <contour>
      <point x="90" y="0" type="line"/>
      <point x="197" y="0" type="line"/>
      <point x="303" y="131" type="line" smooth="yes"/>
      <point x="404" y="255"/>
      <point x="508" y="398"/>
      <point x="508" y="528" type="curve" smooth="yes"/>
      <point x="508" y="649"/>
      <point x="427" y="726"/>
      <point x="304" y="726" type="curve" smooth="yes"/>
      <point x="175" y="726"/>
      <point x="88" y="649"/>
      <point x="88" y="528" type="curve" smooth="yes"/>
      <point x="88" y="504"/>
      <point x="91" y="482"/>
      <point x="97" y="461" type="curve"/>
      <point x="186" y="473" type="line"/>
      <point x="181" y="492"/>
      <point x="179" y="511"/>
      <point x="179" y="531" type="curve" smooth="yes"/>
      <point x="179" y="607"/>
      <point x="224" y="646"/>
      <point x="304" y="646" type="curve" smooth="yes"/>
      <point x="371" y="646"/>
      <point x="417" y="597"/>
      <point x="417" y="525" type="curve" smooth="yes"/>
      <point x="417" y="414"/>
      <point x="321" y="284"/>
      <point x="216" y="155" type="curve" smooth="yes"/>
    </contour>
  </outline>
</glyph>
<glyph name="brm_num8" format="2">
  <advance width="603"/>
  <unicode hex="11059"/>
  <outline>
    <contour>
      <point x="186" y="0" type="line"/>
      <point x="293" y="0" type="line"/>
      <point x="399" y="131" type="line" smooth="yes"/>
      <point x="466" y="213"/>
      <point x="515" y="276"/>
      <point x="515" y="348" type="curve" smooth="yes"/>
      <point x="515" y="417"/>
      <point x="466" y="464"/>
      <point x="390" y="464" type="curve" smooth="yes"/>
      <point x="293" y="464" type="line" smooth="yes"/>
      <point x="208" y="464"/>
      <point x="178" y="499"/>
      <point x="178" y="592" type="curve" smooth="yes"/>
      <point x="178" y="714" type="line"/>
      <point x="88" y="714" type="line"/>
      <point x="88" y="575" type="line" smooth="yes"/>
      <point x="88" y="443"/>
      <point x="147" y="385"/>
      <point x="282" y="385" type="curve" smooth="yes"/>
      <point x="374" y="385" type="line" smooth="yes"/>
      <point x="403" y="385"/>
      <point x="424" y="367"/>
      <point x="424" y="339" type="curve" smooth="yes"/>
      <point x="424" y="306"/>
      <point x="399" y="263"/>
      <point x="327" y="174" type="curve" smooth="yes"/>
    </contour>
  </outline>
</glyph>
<glyph name="brm_num9" format="2">
  <advance width="493"/>
  <unicode hex="1105A"/>
  <outline>
    <contour>
      <point x="109" y="0" type="line"/>
      <point x="199" y="0" type="line"/>
      <point x="199" y="276" type="line" smooth="yes"/>
      <point x="199" y="319"/>
      <point x="219" y="348"/>
      <point x="264" y="371" type="curve" smooth="yes"/>
      <point x="363" y="422"/>
      <point x="405" y="464"/>
      <point x="405" y="571" type="curve" smooth="yes"/>
      <point x="405" y="666"/>
      <point x="335" y="714"/>
      <point x="203" y="714" type="curve" smooth="yes"/>
      <point x="98" y="714" type="line"/>
      <point x="98" y="634" type="line"/>
      <point x="192" y="634" type="line" smooth="yes"/>
      <point x="276" y="634"/>
      <point x="314" y="614"/>
      <point x="314" y="561" type="curve" smooth="yes"/>
      <point x="314" y="496"/>
      <point x="277" y="470"/>
      <point x="212" y="433" type="curve" smooth="yes"/>
      <point x="150" y="398"/>
      <point x="109" y="370"/>
      <point x="109" y="308" type="curve" smooth="yes"/>
    </contour>
  </outline>
</glyph>
<glyph name="brm_num10" format="2">
  <advance width="1033"/>
  <unicode hex="1105B"/>
  <outline>
    <contour>
      <point x="421" y="-15" type="curve" smooth="yes"/>
      <point x="557" y="-15"/>
      <point x="662" y="32"/>
      <point x="717" y="117" type="curve"/>
      <point x="764" y="58"/>
      <point x="841" y="24"/>
      <point x="945" y="24" type="curve"/>
      <point x="945" y="104" type="line"/>
      <point x="830" y="104"/>
      <point x="759" y="170"/>
      <point x="759" y="266" type="curve" smooth="yes"/>
      <point x="759" y="370"/>
      <point x="829" y="433"/>
      <point x="945" y="433" type="curve"/>
      <point x="945" y="512" type="line"/>
      <point x="844" y="512"/>
      <point x="765" y="477"/>
      <point x="718" y="417" type="curve"/>
      <point x="665" y="501"/>
      <point x="558" y="552"/>
      <point x="425" y="552" type="curve" smooth="yes"/>
      <point x="219" y="552"/>
      <point x="88" y="441"/>
      <point x="88" y="269" type="curve" smooth="yes"/>
      <point x="88" y="98"/>
      <point x="227" y="-15"/>
    </contour>
    <contour>
      <point x="424" y="65" type="curve" smooth="yes"/>
      <point x="268" y="65"/>
      <point x="179" y="141"/>
      <point x="179" y="269" type="curve" smooth="yes"/>
      <point x="179" y="400"/>
      <point x="269" y="472"/>
      <point x="422" y="472" type="curve" smooth="yes"/>
      <point x="577" y="472"/>
      <point x="668" y="400"/>
      <point x="668" y="269" type="curve" smooth="yes"/>
      <point x="668" y="140"/>
      <point x="579" y="65"/>
    </contour>
  </outline>
</glyph>
<glyph name="brm_num20" format="2">
  <advance width="827"/>
  <unicode hex="1105C"/>
  <outline>
    <contour>
      <point x="414" y="-10" type="curve" smooth="yes"/>
      <point x="619" y="-10"/>
      <point x="739" y="126"/>
      <point x="739" y="358" type="curve" smooth="yes"/>
      <point x="739" y="590"/>
      <point x="620" y="725"/>
      <point x="415" y="725" type="curve" smooth="yes"/>
      <point x="204" y="725"/>
      <point x="88" y="595"/>
      <point x="88" y="359" type="curve" smooth="yes"/>
      <point x="88" y="122"/>
      <point x="205" y="-10"/>
    </contour>
    <contour>
      <point x="414" y="68" type="curve" smooth="yes"/>
      <point x="269" y="68"/>
      <point x="187" y="160"/>
      <point x="179" y="333" type="curve"/>
      <point x="647" y="333" type="line"/>
      <point x="640" y="158"/>
      <point x="561" y="68"/>
    </contour>
    <contour>
      <point x="181" y="412" type="line"/>
      <point x="196" y="565"/>
      <point x="276" y="646"/>
      <point x="415" y="646" type="curve" smooth="yes"/>
      <point x="554" y="646"/>
      <point x="631" y="568"/>
      <point x="646" y="412" type="curve"/>
    </contour>
  </outline>
</glyph>
<glyph name="brm_num30" format="2">
  <advance width="861"/>
  <unicode hex="1105D"/>
  <outline>
    <contour>
      <point x="0" y="-107" type="curve"/>
      <point x="91" y="-107" type="line"/>
      <point x="91" y="-55"/>
      <point x="121" y="-14"/>
      <point x="178" y="21" type="curve" smooth="yes"/>
      <point x="207" y="39"/>
      <point x="265" y="64"/>
      <point x="352" y="99" type="curve" smooth="yes"/>
      <point x="527" y="169"/>
      <point x="612" y="232"/>
      <point x="612" y="353" type="curve" smooth="yes"/>
      <point x="612" y="435"/>
      <point x="579" y="502"/>
      <point x="513" y="554" type="curve"/>
      <point x="773" y="554" type="line"/>
      <point x="773" y="634" type="line"/>
      <point x="254" y="634" type="line"/>
      <point x="254" y="554" type="line"/>
      <point x="383" y="554" type="line"/>
      <point x="463" y="520"/>
      <point x="521" y="434"/>
      <point x="521" y="367" type="curve" smooth="yes"/>
      <point x="521" y="303"/>
      <point x="488" y="255"/>
      <point x="423" y="216" type="curve" smooth="yes"/>
      <point x="390" y="196"/>
      <point x="336" y="173"/>
      <point x="261" y="144" type="curve" smooth="yes"/>
      <point x="132" y="94"/>
      <point x="65" y="56"/>
      <point x="28" y="-4" type="curve" smooth="yes"/>
      <point x="9" y="-35"/>
      <point x="0" y="-69"/>
    </contour>
  </outline>
</glyph>
<glyph name="brm_num40" format="2">
  <advance width="796"/>
  <unicode hex="1105E"/>
  <outline>
    <contour>
      <point x="646" y="-107" type="curve"/>
      <point x="737" y="-107" type="line"/>
      <point x="737" y="-11"/>
      <point x="708" y="60"/>
      <point x="651" y="105" type="curve" smooth="yes"/>
      <point x="595" y="150"/>
      <point x="511" y="172"/>
      <point x="364" y="172" type="curve" smooth="yes"/>
      <point x="309" y="172" type="line"/>
      <point x="748" y="634" type="line"/>
      <point x="645" y="634" type="line"/>
      <point x="530" y="515" type="line"/>
      <point x="499" y="496"/>
      <point x="467" y="490"/>
      <point x="402" y="490" type="curve" smooth="yes"/>
      <point x="252" y="490"/>
      <point x="159" y="513"/>
      <point x="159" y="634" type="curve"/>
      <point x="68" y="634" type="line"/>
      <point x="68" y="485"/>
      <point x="178" y="410"/>
      <point x="383" y="410" type="curve" smooth="yes"/>
      <point x="399" y="410"/>
      <point x="415" y="411"/>
      <point x="431" y="413" type="curve"/>
      <point x="199" y="172" type="line"/>
      <point x="244" y="92" type="line"/>
      <point x="303" y="92" type="line" smooth="yes"/>
      <point x="385" y="92"/>
      <point x="445" y="89"/>
      <point x="484" y="82" type="curve" smooth="yes"/>
      <point x="597" y="62"/>
      <point x="646" y="7"/>
    </contour>
  </outline>
</glyph>
<glyph name="brm_num50" format="2">
  <advance width="683"/>
  <unicode hex="1105F"/>
  <outline>
    <contour>
      <point x="269" y="-117" type="curve" smooth="yes"/>
      <point x="412" y="-117"/>
      <point x="489" y="-25"/>
      <point x="531" y="104" type="curve" smooth="yes"/>
      <point x="575" y="239"/>
      <point x="583" y="404"/>
      <point x="591" y="565" type="curve"/>
      <point x="591" y="634" type="line"/>
      <point x="135" y="634" type="line"/>
      <point x="135" y="554" type="line"/>
      <point x="505" y="554" type="line"/>
      <point x="497" y="393"/>
      <point x="484" y="272"/>
      <point x="467" y="192" type="curve" smooth="yes"/>
      <point x="437" y="54"/>
      <point x="390" y="-33"/>
      <point x="269" y="-33" type="curve" smooth="yes"/>
      <point x="186" y="-33"/>
      <point x="144" y="4"/>
      <point x="144" y="77" type="curve" smooth="yes"/>
      <point x="144" y="97"/>
      <point x="146" y="116"/>
      <point x="151" y="135" type="curve"/>
      <point x="62" y="147" type="line"/>
      <point x="56" y="126"/>
      <point x="53" y="104"/>
      <point x="53" y="80" type="curve" smooth="yes"/>
      <point x="53" y="20"/>
      <point x="73" y="-28"/>
      <point x="112" y="-63" type="curve" smooth="yes"/>
      <point x="152" y="-99"/>
      <point x="204" y="-117"/>
    </contour>
  </outline>
</glyph>
<glyph name="brm_num60" format="2">
  <advance width="549"/>
  <unicode hex="11060"/>
  <outline>
    <contour>
      <point x="342" y="36" type="line"/>
      <point x="432" y="36" type="line"/>
      <point x="432" y="634" type="line"/>
      <point x="342" y="634" type="line"/>
      <point x="342" y="381" type="line"/>
      <point x="88" y="381" type="line"/>
      <point x="88" y="301" type="line"/>
      <point x="342" y="301" type="line"/>
    </contour>
  </outline>
</glyph>
<glyph name="brm_num70" format="2">
  <advance width="623"/>
  <unicode hex="11061"/>
  <outline>
    <contour>
      <point x="371" y="-117" type="line"/>
      <point x="450" y="-42"/>
      <point x="491" y="43"/>
      <point x="491" y="127" type="curve" smooth="yes"/>
      <point x="491" y="204"/>
      <point x="439" y="279"/>
      <point x="362" y="311" type="curve"/>
      <point x="535" y="591" type="line"/>
      <point x="461" y="634" type="line"/>
      <point x="396" y="528" type="line"/>
      <point x="392" y="524"/>
      <point x="377" y="521"/>
      <point x="362" y="521" type="curve" smooth="yes"/>
      <point x="295" y="521"/>
      <point x="248" y="566"/>
      <point x="240" y="634" type="curve"/>
      <point x="149" y="634" type="line"/>
      <point x="160" y="515"/>
      <point x="224" y="451"/>
      <point x="342" y="441" type="curve"/>
      <point x="88" y="29" type="line"/>
      <point x="161" y="-14" type="line"/>
      <point x="317" y="238" type="line"/>
      <point x="373" y="213"/>
      <point x="401" y="175"/>
      <point x="401" y="122" type="curve" smooth="yes"/>
      <point x="401" y="61"/>
      <point x="367" y="-5"/>
      <point x="299" y="-75" type="curve"/>
    </contour>
  </outline>
</glyph>
<glyph name="brm_num80" format="2">
  <advance width="999"/>
  <unicode hex="11062"/>
  <outline>
    <contour>
      <point x="499" y="-10" type="curve" smooth="yes"/>
      <point x="709" y="-10"/>
      <point x="911" y="75"/>
      <point x="911" y="269" type="curve" smooth="yes"/>
      <point x="911" y="461"/>
      <point x="713" y="552"/>
      <point x="500" y="552" type="curve" smooth="yes"/>
      <point x="287" y="552"/>
      <point x="88" y="461"/>
      <point x="88" y="269" type="curve" smooth="yes"/>
      <point x="88" y="75"/>
      <point x="289" y="-10"/>
    </contour>
    <contour>
      <point x="455" y="72" type="line"/>
      <point x="282" y="83"/>
      <point x="179" y="156"/>
      <point x="179" y="269" type="curve" smooth="yes"/>
      <point x="179" y="386"/>
      <point x="279" y="459"/>
      <point x="455" y="470" type="curve"/>
    </contour>
    <contour>
      <point x="544" y="72" type="curve"/>
      <point x="544" y="470" type="line"/>
      <point x="721" y="457"/>
      <point x="820" y="385"/>
      <point x="820" y="269" type="curve" smooth="yes"/>
      <point x="820" y="157"/>
      <point x="716" y="83"/>
    </contour>
  </outline>
</glyph>
<glyph name="brm_num90" format="2">
  <advance width="835"/>
  <unicode hex="11063"/>
  <outline>
    <contour>
      <point x="418" y="-10" type="curve" smooth="yes"/>
      <point x="633" y="-10"/>
      <point x="747" y="137"/>
      <point x="747" y="358" type="curve" smooth="yes"/>
      <point x="747" y="578"/>
      <point x="633" y="725"/>
      <point x="419" y="725" type="curve" smooth="yes"/>
      <point x="206" y="725"/>
      <point x="88" y="591"/>
      <point x="88" y="359" type="curve" smooth="yes"/>
      <point x="88" y="124"/>
      <point x="207" y="-10"/>
    </contour>
    <contour>
      <point x="373" y="71" type="line"/>
      <point x="252" y="88"/>
      <point x="186" y="181"/>
      <point x="179" y="333" type="curve"/>
      <point x="373" y="333" type="line"/>
    </contour>
    <contour>
      <point x="462" y="71" type="curve"/>
      <point x="462" y="333" type="line"/>
      <point x="656" y="333" type="line"/>
      <point x="648" y="177"/>
      <point x="582" y="87"/>
    </contour>
    <contour>
      <point x="181" y="412" type="line"/>
      <point x="193" y="543"/>
      <point x="257" y="626"/>
      <point x="373" y="643" type="curve"/>
      <point x="373" y="412" type="line"/>
    </contour>
    <contour>
      <point x="462" y="412" type="line"/>
      <point x="462" y="643" type="line"/>
      <point x="574" y="628"/>
      <point x="641" y="549"/>
      <point x="654" y="412" type="curve"/>
    </contour>
  </outline>
</glyph>
<glyph name="brm_digit0" format="2">
  <advance width="378"/>
  <unicode hex="11066"/>
  <outline>
    <contour>
      <point x="127" y="371" type="curve" smooth="yes"/>
      <point x="127" y="328"/>
      <point x="149" y="303"/>
      <point x="188" y="303" type="curve" smooth="yes"/>
      <point x="228" y="303"/>
      <point x="251" y="329"/>
      <point x="251" y="371" type="curve" smooth="yes"/>
      <point x="251" y="414"/>
      <point x="228" y="438"/>
      <point x="188" y="438" type="curve" smooth="yes"/>
      <point x="149" y="438"/>
      <point x="127" y="414"/>
    </contour>
  </outline>
</glyph>
<glyph name="brm_digit1" format="2">
  <advance width="763"/>
  <unicode hex="11067"/>
  <outline>
    <contour>
      <point x="631" y="-4" type="curve"/>
      <point x="714" y="30" type="line"/>
      <point x="685" y="171"/>
      <point x="528" y="306"/>
      <point x="382" y="430" type="curve" smooth="yes"/>
      <point x="257" y="536"/>
      <point x="141" y="635"/>
      <point x="119" y="724" type="curve"/>
      <point x="49" y="687" type="line"/>
      <point x="63" y="586"/>
      <point x="194" y="478"/>
      <point x="328" y="367" type="curve" smooth="yes"/>
      <point x="458" y="259"/>
      <point x="601" y="129"/>
    </contour>
  </outline>
</glyph>
<glyph name="brm_digit2" format="2">
  <advance width="647"/>
  <unicode hex="11068"/>
  <outline>
    <contour>
      <point x="510" y="-5" type="curve"/>
      <point x="583" y="24" type="line"/>
      <point x="551" y="175"/>
      <point x="441" y="304"/>
      <point x="285" y="372" type="curve"/>
      <point x="362" y="424"/>
      <point x="401" y="492"/>
      <point x="401" y="576" type="curve" smooth="yes"/>
      <point x="401" y="669"/>
      <point x="338" y="724"/>
      <point x="233" y="724" type="curve" smooth="yes"/>
      <point x="173" y="724"/>
      <point x="119" y="694"/>
      <point x="88" y="645" type="curve"/>
      <point x="147" y="591" type="line"/>
      <point x="167" y="630"/>
      <point x="195" y="649"/>
      <point x="230" y="649" type="curve" smooth="yes"/>
      <point x="277" y="649"/>
      <point x="311" y="618"/>
      <point x="311" y="578" type="curve" smooth="yes"/>
      <point x="311" y="490"/>
      <point x="247" y="413"/>
      <point x="146" y="380" type="curve"/>
      <point x="146" y="333" type="line"/>
      <point x="311" y="310"/>
      <point x="480" y="152"/>
    </contour>
  </outline>
</glyph>
<glyph name="brm_digit3" format="2">
  <advance width="611"/>
  <unicode hex="11069"/>
  <outline>
    <contour>
      <point x="448" y="-10" type="curve"/>
      <point x="523" y="20" type="line"/>
      <point x="483" y="135"/>
      <point x="410" y="214"/>
      <point x="301" y="265" type="curve"/>
      <point x="360" y="291"/>
      <point x="389" y="334"/>
      <point x="389" y="394" type="curve" smooth="yes"/>
      <point x="389" y="443"/>
      <point x="367" y="479"/>
      <point x="322" y="502" type="curve"/>
      <point x="359" y="530"/>
      <point x="373" y="562"/>
      <point x="373" y="609" type="curve" smooth="yes"/>
      <point x="373" y="672"/>
      <point x="317" y="724"/>
      <point x="232" y="724" type="curve" smooth="yes"/>
      <point x="172" y="724"/>
      <point x="132" y="709"/>
      <point x="88" y="664" type="curve"/>
      <point x="144" y="612" type="line"/>
      <point x="165" y="636"/>
      <point x="188" y="649"/>
      <point x="225" y="649" type="curve" smooth="yes"/>
      <point x="258" y="649"/>
      <point x="283" y="635"/>
      <point x="283" y="595" type="curve" smooth="yes"/>
      <point x="283" y="552"/>
      <point x="253" y="525"/>
      <point x="208" y="525" type="curve" smooth="yes"/>
      <point x="177" y="525" type="line"/>
      <point x="177" y="452" type="line"/>
      <point x="208" y="452" type="line" smooth="yes"/>
      <point x="268" y="452"/>
      <point x="298" y="429"/>
      <point x="298" y="389" type="curve" smooth="yes"/>
      <point x="298" y="336"/>
      <point x="243" y="303"/>
      <point x="132" y="289" type="curve"/>
      <point x="132" y="237" type="line"/>
      <point x="276" y="221"/>
      <point x="400" y="125"/>
    </contour>
  </outline>
</glyph>
<glyph name="brm_digit4" format="2">
  <advance width="797"/>
  <unicode hex="1106A"/>
  <outline>
    <contour>
      <point x="672" y="110" type="curve"/>
      <point x="749" y="161" type="line"/>
      <point x="714" y="230"/>
      <point x="660" y="289"/>
      <point x="588" y="337" type="curve" smooth="yes"/>
      <point x="552" y="361"/>
      <point x="491" y="394"/>
      <point x="404" y="436" type="curve" smooth="yes"/>
      <point x="257" y="507"/>
      <point x="163" y="577"/>
      <point x="156" y="724" type="curve"/>
      <point x="80" y="704" type="line"/>
      <point x="79" y="695"/>
      <point x="78" y="685"/>
      <point x="78" y="676" type="curve" smooth="yes"/>
      <point x="78" y="576"/>
      <point x="124" y="501"/>
      <point x="245" y="432" type="curve"/>
      <point x="170" y="409"/>
      <point x="126" y="359"/>
      <point x="126" y="298" type="curve" smooth="yes"/>
      <point x="126" y="203"/>
      <point x="196" y="136"/>
      <point x="324" y="136" type="curve" smooth="yes"/>
      <point x="437" y="136"/>
      <point x="512" y="190"/>
      <point x="521" y="283" type="curve"/>
      <point x="592" y="234"/>
      <point x="642" y="177"/>
    </contour>
    <contour>
      <point x="324" y="211" type="curve" smooth="yes"/>
      <point x="256" y="211"/>
      <point x="217" y="240"/>
      <point x="217" y="292" type="curve" smooth="yes"/>
      <point x="217" y="339"/>
      <point x="253" y="368"/>
      <point x="324" y="368" type="curve" smooth="yes"/>
      <point x="395" y="368"/>
      <point x="431" y="339"/>
      <point x="431" y="292" type="curve" smooth="yes"/>
      <point x="431" y="240"/>
      <point x="392" y="211"/>
    </contour>
  </outline>
</glyph>
<glyph name="brm_digit5" format="2">
  <advance width="771"/>
  <unicode hex="1106B"/>
  <outline>
    <contour>
      <point x="611" y="-3" type="curve"/>
      <point x="702" y="6" type="line"/>
      <point x="702" y="29" type="line" smooth="yes"/>
      <point x="702" y="90"/>
      <point x="684" y="153"/>
      <point x="651" y="225" type="curve" smooth="yes"/>
      <point x="634" y="262"/>
      <point x="610" y="312"/>
      <point x="572" y="375" type="curve" smooth="yes"/>
      <point x="509" y="480"/>
      <point x="473" y="540"/>
      <point x="443" y="628" type="curve" smooth="yes"/>
      <point x="433" y="657"/>
      <point x="428" y="686"/>
      <point x="425" y="714" type="curve"/>
      <point x="333" y="714" type="line"/>
      <point x="333" y="693"/>
      <point x="338" y="667"/>
      <point x="348" y="636" type="curve" smooth="yes"/>
      <point x="358" y="605"/>
      <point x="363" y="585"/>
      <point x="363" y="574" type="curve" smooth="yes"/>
      <point x="363" y="519"/>
      <point x="319" y="483"/>
      <point x="256" y="483" type="curve" smooth="yes"/>
      <point x="189" y="483"/>
      <point x="149" y="512"/>
      <point x="149" y="564" type="curve" smooth="yes"/>
      <point x="149" y="604"/>
      <point x="160" y="623"/>
      <point x="203" y="644" type="curve"/>
      <point x="173" y="712" type="line"/>
      <point x="106" y="692"/>
      <point x="59" y="635"/>
      <point x="59" y="570" type="curve" smooth="yes"/>
      <point x="59" y="469"/>
      <point x="131" y="408"/>
      <point x="256" y="408" type="curve" smooth="yes"/>
      <point x="325" y="408"/>
      <point x="379" y="432"/>
      <point x="415" y="477" type="curve"/>
      <point x="458" y="402" type="line" smooth="yes"/>
      <point x="517" y="300"/>
      <point x="560" y="223"/>
      <point x="581" y="169" type="curve" smooth="yes"/>
      <point x="602" y="116"/>
      <point x="612" y="66"/>
      <point x="612" y="19" type="curve" smooth="yes"/>
      <point x="612" y="12"/>
      <point x="612" y="9"/>
    </contour>
  </outline>
</glyph>
<glyph name="brm_digit6" format="2">
  <advance width="599"/>
  <unicode hex="1106C"/>
  <outline>
    <contour>
      <point x="290" y="-12" type="curve" smooth="yes"/>
      <point x="429" y="-12"/>
      <point x="511" y="66"/>
      <point x="511" y="188" type="curve" smooth="yes"/>
      <point x="511" y="325"/>
      <point x="390" y="513"/>
      <point x="175" y="714" type="curve"/>
      <point x="88" y="714" type="line"/>
      <point x="148" y="655"/>
      <point x="205" y="589"/>
      <point x="259" y="518" type="curve" smooth="yes"/>
      <point x="335" y="418"/>
      <point x="420" y="285"/>
      <point x="420" y="191" type="curve" smooth="yes"/>
      <point x="420" y="108"/>
      <point x="374" y="63"/>
      <point x="295" y="63" type="curve" smooth="yes"/>
      <point x="212" y="63"/>
      <point x="181" y="94"/>
      <point x="181" y="153" type="curve" smooth="yes"/>
      <point x="181" y="182"/>
      <point x="199" y="206"/>
      <point x="227" y="215" type="curve"/>
      <point x="199" y="289" type="line"/>
      <point x="130" y="265"/>
      <point x="90" y="216"/>
      <point x="90" y="149" type="curve" smooth="yes"/>
      <point x="90" y="48"/>
      <point x="163" y="-12"/>
    </contour>
  </outline>
</glyph>
<glyph name="brm_digit7" format="2">
  <advance width="681"/>
  <unicode hex="1106D"/>
  <outline>
    <contour>
      <point x="523" y="-2" type="curve"/>
      <point x="591" y="14" type="line"/>
      <point x="592" y="54"/>
      <point x="593" y="117"/>
      <point x="593" y="157" type="curve" smooth="yes"/>
      <point x="593" y="453"/>
      <point x="532" y="724"/>
      <point x="294" y="724" type="curve" smooth="yes"/>
      <point x="175" y="724"/>
      <point x="88" y="639"/>
      <point x="88" y="536" type="curve" smooth="yes"/>
      <point x="88" y="445"/>
      <point x="156" y="379"/>
      <point x="242" y="379" type="curve" smooth="yes"/>
      <point x="269" y="379"/>
      <point x="281" y="381"/>
      <point x="311" y="389" type="curve"/>
      <point x="284" y="457" type="line"/>
      <point x="266" y="455"/>
      <point x="259" y="455"/>
      <point x="246" y="455" type="curve" smooth="yes"/>
      <point x="205" y="455"/>
      <point x="178" y="489"/>
      <point x="178" y="538" type="curve" smooth="yes"/>
      <point x="178" y="606"/>
      <point x="223" y="648"/>
      <point x="302" y="648" type="curve" smooth="yes"/>
      <point x="442" y="648"/>
      <point x="494" y="470"/>
      <point x="511" y="291" type="curve" smooth="yes"/>
      <point x="518" y="217"/>
      <point x="523" y="119"/>
    </contour>
  </outline>
</glyph>
<glyph name="brm_digit8" format="2">
  <advance width="519"/>
  <unicode hex="1106E"/>
  <outline>
    <contour>
      <point x="63" y="714" type="line"/>
      <point x="63" y="634" type="line"/>
      <point x="174" y="634" type="line"/>
      <point x="133" y="596"/>
      <point x="113" y="552"/>
      <point x="113" y="500" type="curve" smooth="yes"/>
      <point x="113" y="388"/>
      <point x="219" y="295"/>
      <point x="431" y="221" type="curve"/>
      <point x="431" y="320" type="line"/>
      <point x="276" y="371"/>
      <point x="203" y="431"/>
      <point x="203" y="502" type="curve" smooth="yes"/>
      <point x="203" y="557"/>
      <point x="236" y="608"/>
      <point x="286" y="634" type="curve"/>
      <point x="411" y="634" type="line"/>
      <point x="411" y="714" type="line"/>
    </contour>
  </outline>
</glyph>
<glyph name="brm_digit9" format="2">
  <advance width="703"/>
  <unicode hex="1106F"/>
  <outline>
    <contour>
      <point x="524" y="146" type="curve"/>
      <point x="614" y="155" type="line"/>
      <point x="615" y="183"/>
      <point x="615" y="203"/>
      <point x="615" y="227" type="curve" smooth="yes"/>
      <point x="615" y="538"/>
      <point x="505" y="724"/>
      <point x="319" y="724" type="curve" smooth="yes"/>
      <point x="173" y="724"/>
      <point x="86" y="631"/>
      <point x="86" y="514" type="curve" smooth="yes"/>
      <point x="86" y="417"/>
      <point x="150" y="345"/>
      <point x="243" y="345" type="curve" smooth="yes"/>
      <point x="336" y="345"/>
      <point x="391" y="399"/>
      <point x="394" y="494" type="curve"/>
      <point x="313" y="505" type="line"/>
      <point x="313" y="456"/>
      <point x="286" y="420"/>
      <point x="245" y="420" type="curve" smooth="yes"/>
      <point x="202" y="420"/>
      <point x="177" y="460"/>
      <point x="177" y="521" type="curve" smooth="yes"/>
      <point x="177" y="598"/>
      <point x="228" y="648"/>
      <point x="308" y="648" type="curve" smooth="yes"/>
      <point x="451" y="648"/>
      <point x="525" y="494"/>
      <point x="525" y="217" type="curve" smooth="yes"/>
      <point x="525" y="193"/>
      <point x="525" y="174"/>
    </contour>
  </outline>
</glyph>
<glyph name="u1107F" format="2">
  <advance width="1000"/>
  <unicode hex="1107F"/>
  <outline>
    <contour>
      <point x="41" y="741" type="line"/>
      <point x="41" y="593" type="line"/>
      <point x="95" y="593" type="line"/>
      <point x="95" y="687" type="line"/>
      <point x="189" y="687" type="line"/>
      <point x="189" y="741" type="line"/>
    </contour>
    <contour>
      <point x="248" y="741" type="line"/>
      <point x="248" y="687" type="line"/>
      <point x="380" y="687" type="line"/>
      <point x="380" y="741" type="line"/>
    </contour>
    <contour>
      <point x="439" y="741" type="line"/>
      <point x="439" y="687" type="line"/>
      <point x="572" y="687" type="line"/>
      <point x="572" y="741" type="line"/>
    </contour>
    <contour>
      <point x="630" y="741" type="line"/>
      <point x="630" y="687" type="line"/>
      <point x="763" y="687" type="line"/>
      <point x="763" y="741" type="line"/>
    </contour>
    <contour>
      <point x="821" y="741" type="line"/>
      <point x="821" y="687" type="line"/>
      <point x="916" y="687" type="line"/>
      <point x="916" y="593" type="line"/>
      <point x="969" y="593" type="line"/>
      <point x="969" y="741" type="line"/>
    </contour>
    <contour>
      <point x="41" y="402" type="line"/>
      <point x="95" y="402" type="line"/>
      <point x="95" y="534" type="line"/>
      <point x="41" y="534" type="line"/>
    </contour>
    <contour>
      <point x="916" y="402" type="line"/>
      <point x="969" y="402" type="line"/>
      <point x="969" y="534" type="line"/>
      <point x="916" y="534" type="line"/>
    </contour>
    <contour>
      <point x="247" y="450" type="curve" smooth="yes"/>
      <point x="163" y="450" type="line"/>
      <point x="163" y="164" type="line"/>
      <point x="264" y="164" type="line" smooth="yes"/>
      <point x="325" y="164"/>
      <point x="363" y="195"/>
      <point x="363" y="247" type="curve" smooth="yes"/>
      <point x="363" y="292"/>
      <point x="340" y="307"/>
      <point x="311" y="313" type="curve"/>
      <point x="311" y="317" type="line"/>
      <point x="339" y="322"/>
      <point x="355" y="345"/>
      <point x="355" y="377" type="curve" smooth="yes"/>
      <point x="355" y="431"/>
      <point x="318" y="450"/>
    </contour>
    <contour>
      <point x="728" y="161" type="curve" smooth="yes"/>
      <point x="785" y="161"/>
      <point x="825" y="190"/>
      <point x="825" y="256" type="curve" smooth="yes"/>
      <point x="825" y="450" type="line"/>
      <point x="764" y="450" type="line"/>
      <point x="764" y="254" type="line" smooth="yes"/>
      <point x="764" y="221"/>
      <point x="746" y="212"/>
      <point x="722" y="212" type="curve" smooth="yes"/>
      <point x="709" y="212"/>
      <point x="699" y="214"/>
      <point x="689" y="216" type="curve"/>
      <point x="689" y="166" type="line"/>
      <point x="698" y="163"/>
      <point x="711" y="161"/>
    </contour>
    <contour>
      <point x="255" y="337" type="curve" smooth="yes"/>
      <point x="223" y="337" type="line"/>
      <point x="223" y="400" type="line"/>
      <point x="252" y="400" type="line" smooth="yes"/>
      <point x="282" y="400"/>
      <point x="295" y="391"/>
      <point x="295" y="369" type="curve" smooth="yes"/>
      <point x="295" y="348"/>
      <point x="285" y="337"/>
    </contour>
    <contour>
      <point x="41" y="210" type="line"/>
      <point x="95" y="210" type="line"/>
      <point x="95" y="343" type="line"/>
      <point x="41" y="343" type="line"/>
    </contour>
    <contour>
      <point x="916" y="210" type="line"/>
      <point x="969" y="210" type="line"/>
      <point x="969" y="343" type="line"/>
      <point x="916" y="343" type="line"/>
    </contour>
    <contour>
      <point x="223" y="214" type="line"/>
      <point x="223" y="289" type="line"/>
      <point x="257" y="289" type="line" smooth="yes"/>
      <point x="291" y="289"/>
      <point x="301" y="274"/>
      <point x="301" y="253" type="curve" smooth="yes"/>
      <point x="301" y="229"/>
      <point x="291" y="214"/>
      <point x="259" y="214" type="curve" smooth="yes"/>
    </contour>
    <contour>
      <point x="41" y="19" type="line"/>
      <point x="95" y="19" type="line"/>
      <point x="95" y="151" type="line"/>
      <point x="41" y="151" type="line"/>
    </contour>
    <contour>
      <point x="916" y="19" type="line"/>
      <point x="969" y="19" type="line"/>
      <point x="969" y="151" type="line"/>
      <point x="916" y="151" type="line"/>
    </contour>
    <contour>
      <point x="41" y="-39" type="line"/>
      <point x="41" y="-187" type="line"/>
      <point x="189" y="-187" type="line"/>
      <point x="189" y="-134" type="line"/>
      <point x="95" y="-134" type="line"/>
      <point x="95" y="-39" type="line"/>
    </contour>
    <contour>
      <point x="821" y="-134" type="line"/>
      <point x="821" y="-187" type="line"/>
      <point x="969" y="-187" type="line"/>
      <point x="969" y="-39" type="line"/>
      <point x="916" y="-39" type="line"/>
      <point x="916" y="-134" type="line"/>
    </contour>
    <contour>
      <point x="248" y="-134" type="line"/>
      <point x="248" y="-187" type="line"/>
      <point x="380" y="-187" type="line"/>
      <point x="380" y="-134" type="line"/>
    </contour>
    <contour>
      <point x="439" y="-134" type="line"/>
      <point x="439" y="-187" type="line"/>
      <point x="572" y="-187" type="line"/>
      <point x="572" y="-134" type="line"/>
    </contour>
    <contour>
      <point x="630" y="-134" type="line"/>
      <point x="630" y="-187" type="line"/>
      <point x="763" y="-187" type="line"/>
      <point x="763" y="-134" type="line"/>
    </contour>
    <contour>
      <point x="659" y="164" type="line"/>
      <point x="659" y="450" type="line"/>
      <point x="597" y="450" type="line"/>
      <point x="597" y="320" type="line" smooth="yes"/>
      <point x="597" y="299"/>
      <point x="600" y="261"/>
      <point x="601" y="249" type="curve"/>
      <point x="467" y="450" type="line"/>
      <point x="395" y="450" type="line"/>
      <point x="395" y="164" type="line"/>
      <point x="456" y="164" type="line"/>
      <point x="456" y="294" type="line" smooth="yes"/>
      <point x="456" y="318"/>
      <point x="454" y="350"/>
      <point x="453" y="366" type="curve"/>
      <point x="587" y="164" type="line"/>
    </contour>
  </outline>
</glyph>
<glyph name="brm_BHAU" format="2">
  <advance width="1074"/>
  <outline>
    <contour>
      <point x="545" y="714" type="line"/>
      <point x="545" y="634" type="line"/>
      <point x="740" y="634" type="line"/>
      <point x="740" y="500" type="line"/>
      <point x="98" y="500" type="line"/>
      <point x="98" y="0" type="line"/>
      <point x="187" y="0" type="line"/>
      <point x="187" y="420" type="line"/>
      <point x="566" y="420" type="line"/>
      <point x="566" y="0" type="line"/>
      <point x="656" y="0" type="line"/>
      <point x="656" y="420" type="line"/>
      <point x="830" y="420" type="line"/>
      <point x="830" y="634" type="line"/>
      <point x="1025" y="634" type="line"/>
      <point x="1025" y="714" type="line"/>
    </contour>
    <contour>
      <point x="545" y="874" type="line"/>
      <point x="545" y="794" type="line"/>
      <point x="825" y="794" type="line"/>
      <point x="825" y="874" type="line"/>
    </contour>
  </outline>
</glyph>
<glyph name="brm_BO" format="2">
  <advance width="998"/>
  <outline>
    <contour>
      <point x="210" y="70" type="line"/>
      <point x="788" y="70" type="line"/>
      <point x="788" y="572" type="line"/>
      <point x="949" y="572" type="line"/>
      <point x="949" y="652" type="line"/>
      <point x="49" y="652" type="line"/>
      <point x="49" y="572" type="line"/>
      <point x="210" y="572" type="line"/>
    </contour>
    <contour>
      <point x="300" y="150" type="line"/>
      <point x="300" y="572" type="line"/>
      <point x="698" y="572" type="line"/>
      <point x="698" y="150" type="line"/>
    </contour>
  </outline>
</glyph>
<glyph name="brm_BU" format="2">
  <advance width="773"/>
  <outline>
    <contour>
      <point x="346" y="-110" type="line"/>
      <point x="426" y="-110" type="line"/>
      <point x="426" y="70" type="line"/>
      <point x="675" y="70" type="line"/>
      <point x="675" y="652" type="line"/>
      <point x="98" y="652" type="line"/>
      <point x="98" y="70" type="line"/>
      <point x="346" y="70" type="line"/>
    </contour>
    <contour>
      <point x="187" y="150" type="line"/>
      <point x="187" y="572" type="line"/>
      <point x="585" y="572" type="line"/>
      <point x="585" y="150" type="line"/>
    </contour>
  </outline>
</glyph>
<glyph name="brm_BUU" format="2">
  <advance width="773"/>
  <outline>
    <contour>
      <point x="417" y="-110" type="line"/>
      <point x="497" y="-110" type="line"/>
      <point x="497" y="70" type="line"/>
      <point x="675" y="70" type="line"/>
      <point x="675" y="652" type="line"/>
      <point x="98" y="652" type="line"/>
      <point x="98" y="70" type="line"/>
      <point x="275" y="70" type="line"/>
      <point x="275" y="-110" type="line"/>
      <point x="355" y="-110" type="line"/>
      <point x="355" y="70" type="line"/>
      <point x="417" y="70" type="line"/>
    </contour>
    <contour>
      <point x="187" y="150" type="line"/>
      <point x="187" y="572" type="line"/>
      <point x="585" y="572" type="line"/>
      <point x="585" y="150" type="line"/>
    </contour>
  </outline>
</glyph>
<glyph name="brm_CHU" format="2">
  <advance width="609"/>
  <outline>
    <contour>
      <point x="265" y="-159" type="line"/>
      <point x="345" y="-159" type="line"/>
      <point x="345" y="-9" type="line"/>
      <point x="463" y="10"/>
      <point x="546" y="109"/>
      <point x="546" y="222" type="curve" smooth="yes"/>
      <point x="546" y="336"/>
      <point x="459" y="432"/>
      <point x="350" y="451" type="curve"/>
      <point x="350" y="714" type="line"/>
      <point x="260" y="714" type="line"/>
      <point x="260" y="451" type="line"/>
      <point x="148" y="432"/>
      <point x="63" y="338"/>
      <point x="63" y="222" type="curve" smooth="yes"/>
      <point x="63" y="106"/>
      <point x="151" y="8"/>
      <point x="265" y="-9" type="curve"/>
    </contour>
    <contour>
      <point x="350" y="74" type="curve"/>
      <point x="350" y="369" type="line"/>
      <point x="412" y="350"/>
      <point x="456" y="291"/>
      <point x="456" y="224" type="curve" smooth="yes"/>
      <point x="456" y="158"/>
      <point x="417" y="95"/>
    </contour>
    <contour>
      <point x="260" y="369" type="curve"/>
      <point x="260" y="75" type="line"/>
      <point x="198" y="95"/>
      <point x="153" y="158"/>
      <point x="153" y="224" type="curve" smooth="yes"/>
      <point x="153" y="289"/>
      <point x="197" y="348"/>
    </contour>
  </outline>
</glyph>
<glyph name="brm_CHUU" format="2">
  <advance width="609"/>
  <outline>
    <contour>
      <point x="194" y="-159" type="line"/>
      <point x="274" y="-159" type="line"/>
      <point x="274" y="-10" type="line"/>
      <point x="284" y="-11"/>
      <point x="294" y="-12"/>
      <point x="305" y="-12" type="curve" smooth="yes"/>
      <point x="315" y="-12"/>
      <point x="325" y="-11"/>
      <point x="335" y="-10" type="curve"/>
      <point x="335" y="-159" type="line"/>
      <point x="416" y="-159" type="line"/>
      <point x="416" y="14" type="line"/>
      <point x="473" y="42"/>
      <point x="546" y="111"/>
      <point x="546" y="222" type="curve" smooth="yes"/>
      <point x="546" y="336"/>
      <point x="459" y="432"/>
      <point x="350" y="451" type="curve"/>
      <point x="350" y="714" type="line"/>
      <point x="260" y="714" type="line"/>
      <point x="260" y="451" type="line"/>
      <point x="148" y="432"/>
      <point x="63" y="338"/>
      <point x="63" y="222" type="curve" smooth="yes"/>
      <point x="63" y="141"/>
      <point x="105" y="60"/>
      <point x="194" y="14" type="curve"/>
    </contour>
    <contour>
      <point x="260" y="75" type="line"/>
      <point x="198" y="95"/>
      <point x="153" y="158"/>
      <point x="153" y="224" type="curve" smooth="yes"/>
      <point x="153" y="289"/>
      <point x="197" y="348"/>
      <point x="260" y="369" type="curve"/>
    </contour>
    <contour>
      <point x="350" y="74" type="curve"/>
      <point x="350" y="369" type="line"/>
      <point x="412" y="350"/>
      <point x="456" y="291"/>
      <point x="456" y="224" type="curve" smooth="yes"/>
      <point x="456" y="158"/>
      <point x="413" y="95"/>
    </contour>
  </outline>
</glyph>
<glyph name="brm_CUU" format="2">
  <advance width="542"/>
  <outline>
    <contour>
      <point x="195" y="-159" type="line"/>
      <point x="275" y="-159" type="line"/>
      <point x="275" y="1" type="line"/>
      <point x="288" y="0"/>
      <point x="301" y="0"/>
      <point x="315" y="0" type="curve" smooth="yes"/>
      <point x="336" y="0" type="line"/>
      <point x="336" y="-159" type="line"/>
      <point x="417" y="-159" type="line"/>
      <point x="417" y="0" type="line"/>
      <point x="444" y="0" type="line"/>
      <point x="444" y="714" type="line"/>
      <point x="354" y="714" type="line"/>
      <point x="354" y="345" type="line"/>
      <point x="346" y="345" type="line" smooth="yes"/>
      <point x="164" y="345"/>
      <point x="78" y="288"/>
      <point x="78" y="165" type="curve" smooth="yes"/>
      <point x="78" y="92"/>
      <point x="124" y="37"/>
      <point x="195" y="17" type="curve"/>
    </contour>
    <contour>
      <point x="354" y="80" type="line"/>
      <point x="234" y="80"/>
      <point x="173" y="106"/>
      <point x="173" y="168" type="curve" smooth="yes"/>
      <point x="173" y="254"/>
      <point x="236" y="265"/>
      <point x="354" y="265" type="curve"/>
    </contour>
  </outline>
</glyph>
<glyph name="brm_DAU" format="2">
  <advance width="607"/>
  <outline>
    <contour>
      <point x="544" y="634" type="line"/>
      <point x="329" y="634" type="line"/>
      <point x="329" y="714" type="line"/>
      <point x="49" y="714" type="line"/>
      <point x="49" y="634" type="line"/>
      <point x="239" y="634" type="line"/>
      <point x="239" y="554" type="line"/>
      <point x="49" y="554" type="line"/>
      <point x="49" y="474" type="line"/>
      <point x="293" y="474" type="line" smooth="yes"/>
      <point x="366" y="474"/>
      <point x="436" y="429"/>
      <point x="436" y="341" type="curve" smooth="yes"/>
      <point x="436" y="250"/>
      <point x="359" y="189"/>
      <point x="271" y="189" type="curve" smooth="yes"/>
      <point x="239" y="189" type="line"/>
      <point x="239" y="0" type="line"/>
      <point x="329" y="0" type="line"/>
      <point x="329" y="119" type="line"/>
      <point x="446" y="132"/>
      <point x="525" y="224"/>
      <point x="525" y="339" type="curve" smooth="yes"/>
      <point x="525" y="461"/>
      <point x="444" y="540"/>
      <point x="329" y="551" type="curve"/>
      <point x="329" y="554" type="line"/>
      <point x="544" y="554" type="line"/>
    </contour>
  </outline>
</glyph>
<glyph name="brm_DDHU" format="2">
  <advance width="600"/>
  <outline>
    <contour>
      <point x="268" y="-159" type="line"/>
      <point x="348" y="-159" type="line"/>
      <point x="348" y="-9" type="line"/>
      <point x="467" y="3"/>
      <point x="537" y="64"/>
      <point x="537" y="162" type="curve" smooth="yes"/>
      <point x="537" y="244"/>
      <point x="479" y="299"/>
      <point x="393" y="299" type="curve" smooth="yes"/>
      <point x="315" y="299"/>
      <point x="266" y="257"/>
      <point x="243" y="194" type="curve"/>
      <point x="327" y="155" type="line"/>
      <point x="341" y="198"/>
      <point x="365" y="220"/>
      <point x="399" y="220" type="curve" smooth="yes"/>
      <point x="427" y="220"/>
      <point x="447" y="201"/>
      <point x="447" y="162" type="curve" smooth="yes"/>
      <point x="447" y="103"/>
      <point x="395" y="72"/>
      <point x="310" y="72" type="curve" smooth="yes"/>
      <point x="216" y="72"/>
      <point x="159" y="125"/>
      <point x="159" y="211" type="curve" smooth="yes"/>
      <point x="159" y="294"/>
      <point x="226" y="362"/>
      <point x="310" y="362" type="curve" smooth="yes"/>
      <point x="355" y="362" type="line"/>
      <point x="355" y="714" type="line"/>
      <point x="265" y="714" type="line"/>
      <point x="265" y="437" type="line"/>
      <point x="151" y="420"/>
      <point x="63" y="324"/>
      <point x="63" y="215" type="curve" smooth="yes"/>
      <point x="63" y="99"/>
      <point x="142" y="3"/>
      <point x="268" y="-10" type="curve"/>
    </contour>
  </outline>
</glyph>
<glyph name="brm_DHAU" format="2">
  <advance width="759"/>
  <outline>
    <contour>
      <point x="49" y="714" type="line"/>
      <point x="49" y="634" type="line"/>
      <point x="228" y="634" type="line"/>
      <point x="228" y="554" type="line"/>
      <point x="49" y="554" type="line"/>
      <point x="49" y="474" type="line"/>
      <point x="228" y="474" type="line"/>
      <point x="228" y="0" type="line"/>
      <point x="332" y="0" type="line" smooth="yes"/>
      <point x="551" y="0"/>
      <point x="660" y="132"/>
      <point x="660" y="358" type="curve" smooth="yes"/>
      <point x="660" y="470"/>
      <point x="634" y="554"/>
      <point x="554" y="634" type="curve"/>
      <point x="710" y="634" type="line"/>
      <point x="710" y="714" type="line"/>
    </contour>
    <contour>
      <point x="317" y="80" type="line"/>
      <point x="317" y="634" type="line"/>
      <point x="481" y="634"/>
      <point x="565" y="525"/>
      <point x="565" y="357" type="curve" smooth="yes"/>
      <point x="565" y="179"/>
      <point x="479" y="80"/>
      <point x="319" y="80" type="curve" smooth="yes"/>
    </contour>
  </outline>
</glyph>
<glyph name="brm_DHU" format="2">
  <advance width="608"/>
  <outline>
    <contour>
      <point x="98" y="0" type="line"/>
      <point x="202" y="0" type="line" smooth="yes"/>
      <point x="213" y="0"/>
      <point x="224" y="0"/>
      <point x="234" y="1" type="curve"/>
      <point x="234" y="-159" type="line"/>
      <point x="314" y="-159" type="line"/>
      <point x="314" y="15" type="line"/>
      <point x="449" y="54"/>
      <point x="530" y="170"/>
      <point x="530" y="358" type="curve" smooth="yes"/>
      <point x="530" y="579"/>
      <point x="402" y="714"/>
      <point x="187" y="714" type="curve" smooth="yes"/>
      <point x="98" y="714" type="line"/>
    </contour>
    <contour>
      <point x="187" y="80" type="line"/>
      <point x="187" y="634" type="line"/>
      <point x="343" y="634"/>
      <point x="436" y="531"/>
      <point x="436" y="357" type="curve" smooth="yes"/>
      <point x="436" y="179"/>
      <point x="348" y="80"/>
      <point x="215" y="80" type="curve" smooth="yes"/>
    </contour>
  </outline>
</glyph>
<glyph name="brm_DHUU" format="2">
  <advance width="608"/>
  <outline>
    <contour>
      <point x="98" y="0" type="line"/>
      <point x="171" y="0" type="line"/>
      <point x="171" y="-159" type="line"/>
      <point x="251" y="-159" type="line"/>
      <point x="251" y="2" type="line"/>
      <point x="272" y="5"/>
      <point x="293" y="9"/>
      <point x="312" y="14" type="curve"/>
      <point x="312" y="-159" type="line"/>
      <point x="393" y="-159" type="line"/>
      <point x="393" y="50" type="line"/>
      <point x="479" y="106"/>
      <point x="530" y="210"/>
      <point x="530" y="358" type="curve" smooth="yes"/>
      <point x="530" y="579"/>
      <point x="402" y="714"/>
      <point x="187" y="714" type="curve" smooth="yes"/>
      <point x="98" y="714" type="line"/>
    </contour>
    <contour>
      <point x="187" y="80" type="line"/>
      <point x="187" y="634" type="line"/>
      <point x="343" y="634"/>
      <point x="436" y="531"/>
      <point x="436" y="357" type="curve" smooth="yes"/>
      <point x="436" y="179"/>
      <point x="348" y="80"/>
      <point x="215" y="80" type="curve" smooth="yes"/>
    </contour>
  </outline>
</glyph>
<glyph name="brm_GHU" format="2">
  <advance width="702"/>
  <outline>
    <contour>
      <point x="321" y="-159" type="line"/>
      <point x="401" y="-159" type="line"/>
      <point x="401" y="-10" type="line"/>
      <point x="559" y="1"/>
      <point x="624" y="70"/>
      <point x="624" y="250" type="curve" smooth="yes"/>
      <point x="624" y="277" type="line"/>
      <point x="534" y="277" type="line"/>
      <point x="534" y="250" type="line" smooth="yes"/>
      <point x="534" y="130"/>
      <point x="507" y="85"/>
      <point x="406" y="75" type="curve"/>
      <point x="406" y="274" type="line"/>
      <point x="316" y="274" type="line"/>
      <point x="316" y="74" type="line"/>
      <point x="219" y="82"/>
      <point x="187" y="127"/>
      <point x="187" y="249" type="curve" smooth="yes"/>
      <point x="187" y="714" type="line"/>
      <point x="98" y="714" type="line"/>
      <point x="98" y="252" type="line" smooth="yes"/>
      <point x="98" y="76"/>
      <point x="161" y="0"/>
      <point x="321" y="-11" type="curve"/>
    </contour>
  </outline>
</glyph>
<glyph name="brm_GHUU" format="2">
  <advance width="702"/>
  <outline>
    <contour>
      <point x="392" y="-159" type="line"/>
      <point x="472" y="-159" type="line"/>
      <point x="472" y="1" type="line"/>
      <point x="577" y="28"/>
      <point x="624" y="93"/>
      <point x="624" y="250" type="curve" smooth="yes"/>
      <point x="624" y="277" type="line"/>
      <point x="534" y="277" type="line"/>
      <point x="534" y="250" type="line" smooth="yes"/>
      <point x="534" y="130"/>
      <point x="507" y="85"/>
      <point x="406" y="75" type="curve"/>
      <point x="406" y="274" type="line"/>
      <point x="316" y="274" type="line"/>
      <point x="316" y="74" type="line"/>
      <point x="219" y="82"/>
      <point x="187" y="127"/>
      <point x="187" y="249" type="curve" smooth="yes"/>
      <point x="187" y="714" type="line"/>
      <point x="98" y="714" type="line"/>
      <point x="98" y="252" type="line" smooth="yes"/>
      <point x="98" y="101"/>
      <point x="144" y="26"/>
      <point x="250" y="0" type="curve"/>
      <point x="250" y="-159" type="line"/>
      <point x="330" y="-159" type="line"/>
      <point x="330" y="-11" type="line"/>
      <point x="338" y="-12"/>
      <point x="346" y="-12"/>
      <point x="355" y="-12" type="curve" smooth="yes"/>
      <point x="368" y="-12"/>
      <point x="381" y="-12"/>
      <point x="392" y="-11" type="curve"/>
    </contour>
  </outline>
</glyph>
<glyph name="brm_HU" format="2">
  <advance width="732"/>
  <outline>
    <contour>
      <point x="274" y="-159" type="line"/>
      <point x="354" y="-159" type="line"/>
      <point x="354" y="-9" type="line"/>
      <point x="461" y="2"/>
      <point x="514" y="58"/>
      <point x="527" y="175" type="curve"/>
      <point x="684" y="175" type="line"/>
      <point x="684" y="255" type="line"/>
      <point x="441" y="255" type="line"/>
      <point x="441" y="118"/>
      <point x="413" y="72"/>
      <point x="312" y="72" type="curve" smooth="yes"/>
      <point x="212" y="72"/>
      <point x="187" y="111"/>
      <point x="187" y="249" type="curve" smooth="yes"/>
      <point x="187" y="714" type="line"/>
      <point x="98" y="714" type="line"/>
      <point x="98" y="252" type="line" smooth="yes"/>
      <point x="98" y="77"/>
      <point x="144" y="2"/>
      <point x="274" y="-10" type="curve"/>
    </contour>
  </outline>
</glyph>
<glyph name="brm_HUU" format="2">
  <advance width="732"/>
  <outline>
    <contour>
      <point x="345" y="-159" type="line"/>
      <point x="425" y="-159" type="line"/>
      <point x="425" y="8" type="line"/>
      <point x="484" y="34"/>
      <point x="518" y="87"/>
      <point x="527" y="175" type="curve"/>
      <point x="684" y="175" type="line"/>
      <point x="684" y="255" type="line"/>
      <point x="441" y="255" type="line"/>
      <point x="441" y="118"/>
      <point x="413" y="72"/>
      <point x="312" y="72" type="curve" smooth="yes"/>
      <point x="212" y="72"/>
      <point x="187" y="111"/>
      <point x="187" y="249" type="curve" smooth="yes"/>
      <point x="187" y="714" type="line"/>
      <point x="98" y="714" type="line"/>
      <point x="98" y="252" type="line" smooth="yes"/>
      <point x="98" y="106"/>
      <point x="129" y="38"/>
      <point x="204" y="6" type="curve"/>
      <point x="204" y="-159" type="line"/>
      <point x="284" y="-159" type="line"/>
      <point x="284" y="-11" type="line"/>
      <point x="296" y="-12"/>
      <point x="301" y="-12"/>
      <point x="311" y="-12" type="curve" smooth="yes"/>
      <point x="323" y="-12"/>
      <point x="334" y="-11"/>
      <point x="345" y="-10" type="curve"/>
    </contour>
  </outline>
</glyph>
<glyph name="brm_JAA" format="2">
  <advance width="593"/>
  <outline>
    <contour>
      <point x="320" y="0" type="curve" smooth="yes"/>
      <point x="440" y="0" type="line"/>
      <point x="440" y="80" type="line"/>
      <point x="317" y="80" type="line" smooth="yes"/>
      <point x="228" y="80"/>
      <point x="173" y="120"/>
      <point x="173" y="188" type="curve" smooth="yes"/>
      <point x="173" y="277"/>
      <point x="233" y="319"/>
      <point x="352" y="320" type="curve"/>
      <point x="352" y="252" type="line"/>
      <point x="432" y="252" type="line"/>
      <point x="432" y="320" type="line"/>
      <point x="568" y="320" type="line"/>
      <point x="568" y="400" type="line"/>
      <point x="432" y="400" type="line"/>
      <point x="432" y="464" type="line"/>
      <point x="352" y="464" type="line"/>
      <point x="352" y="400" type="line"/>
      <point x="229" y="401"/>
      <point x="173" y="439"/>
      <point x="173" y="526" type="curve" smooth="yes"/>
      <point x="173" y="599"/>
      <point x="242" y="634"/>
      <point x="322" y="634" type="curve" smooth="yes"/>
      <point x="440" y="634" type="line"/>
      <point x="440" y="714" type="line"/>
      <point x="330" y="714" type="line" smooth="yes"/>
      <point x="179" y="714"/>
      <point x="78" y="633"/>
      <point x="78" y="526" type="curve" smooth="yes"/>
      <point x="78" y="451"/>
      <point x="115" y="394"/>
      <point x="179" y="360" type="curve"/>
      <point x="116" y="327"/>
      <point x="78" y="266"/>
      <point x="78" y="187" type="curve" smooth="yes"/>
      <point x="78" y="77"/>
      <point x="171" y="0"/>
    </contour>
  </outline>
</glyph>
<glyph name="brm_JAU" format="2">
  <advance width="733"/>
  <outline>
    <contour>
      <point x="49" y="512" type="line"/>
      <point x="49" y="432" type="line"/>
      <point x="242" y="432" type="line"/>
      <point x="259" y="402"/>
      <point x="284" y="378"/>
      <point x="319" y="360" type="curve"/>
      <point x="255" y="327"/>
      <point x="218" y="267"/>
      <point x="218" y="187" type="curve" smooth="yes"/>
      <point x="218" y="77"/>
      <point x="311" y="0"/>
      <point x="460" y="0" type="curve" smooth="yes"/>
      <point x="581" y="0" type="line"/>
      <point x="581" y="80" type="line"/>
      <point x="457" y="80" type="line" smooth="yes"/>
      <point x="368" y="80"/>
      <point x="313" y="119"/>
      <point x="313" y="188" type="curve" smooth="yes"/>
      <point x="313" y="277"/>
      <point x="372" y="319"/>
      <point x="492" y="320" type="curve"/>
      <point x="492" y="252" type="line"/>
      <point x="572" y="252" type="line"/>
      <point x="572" y="320" type="line"/>
      <point x="708" y="320" type="line"/>
      <point x="708" y="400" type="line"/>
      <point x="572" y="400" type="line"/>
      <point x="572" y="464" type="line"/>
      <point x="492" y="464" type="line"/>
      <point x="492" y="400" type="line"/>
      <point x="368" y="403"/>
      <point x="313" y="438"/>
      <point x="313" y="526" type="curve" smooth="yes"/>
      <point x="313" y="599"/>
      <point x="382" y="634"/>
      <point x="462" y="634" type="curve" smooth="yes"/>
      <point x="581" y="634" type="line"/>
      <point x="581" y="714" type="line"/>
      <point x="470" y="714" type="line" smooth="yes"/>
      <point x="403" y="714"/>
      <point x="348" y="699"/>
      <point x="305" y="672" type="curve"/>
      <point x="49" y="672" type="line"/>
      <point x="49" y="592" type="line"/>
      <point x="232" y="592" type="line"/>
      <point x="223" y="571"/>
      <point x="218" y="549"/>
      <point x="218" y="526" type="curve" smooth="yes"/>
      <point x="218" y="521"/>
      <point x="218" y="517"/>
      <point x="219" y="512" type="curve"/>
    </contour>
  </outline>
</glyph>
<glyph name="brm_JHO" format="2">
  <advance width="873"/>
  <outline>
    <contour>
      <point x="228" y="0" type="line"/>
      <point x="317" y="0" type="line"/>
      <point x="317" y="340" type="line"/>
      <point x="349" y="319"/>
      <point x="398" y="306"/>
      <point x="446" y="306" type="curve" smooth="yes"/>
      <point x="577" y="306"/>
      <point x="646" y="365"/>
      <point x="646" y="502" type="curve" smooth="yes"/>
      <point x="646" y="634" type="line"/>
      <point x="824" y="634" type="line"/>
      <point x="824" y="714" type="line"/>
      <point x="556" y="714" type="line"/>
      <point x="556" y="519" type="line" smooth="yes"/>
      <point x="556" y="429"/>
      <point x="523" y="390"/>
      <point x="436" y="390" type="curve" smooth="yes"/>
      <point x="387" y="390"/>
      <point x="345" y="408"/>
      <point x="317" y="432" type="curve"/>
      <point x="317" y="714" type="line"/>
      <point x="49" y="714" type="line"/>
      <point x="49" y="634" type="line"/>
      <point x="228" y="634" type="line"/>
    </contour>
  </outline>
</glyph>
<glyph name="brm_JNYA" format="2">
  <advance width="616"/>
  <outline>
    <contour>
      <point x="411" y="112" type="line"/>
      <point x="411" y="192" type="line"/>
      <point x="317" y="192" type="line" smooth="yes"/>
      <point x="228" y="192"/>
      <point x="173" y="212"/>
      <point x="173" y="271" type="curve" smooth="yes"/>
      <point x="173" y="353"/>
      <point x="235" y="374"/>
      <point x="358" y="374" type="curve" smooth="yes"/>
      <point x="393" y="374" type="line"/>
      <point x="393" y="454" type="line"/>
      <point x="358" y="454" type="line" smooth="yes"/>
      <point x="231" y="454"/>
      <point x="173" y="477"/>
      <point x="173" y="555" type="curve" smooth="yes"/>
      <point x="173" y="613"/>
      <point x="232" y="629"/>
      <point x="322" y="629" type="curve" smooth="yes"/>
      <point x="411" y="629" type="line"/>
      <point x="411" y="709" type="line"/>
      <point x="330" y="709" type="line" smooth="yes"/>
      <point x="179" y="709"/>
      <point x="78" y="662"/>
      <point x="78" y="556" type="curve" smooth="yes"/>
      <point x="78" y="480"/>
      <point x="115" y="447"/>
      <point x="179" y="414" type="curve"/>
      <point x="116" y="380"/>
      <point x="78" y="349"/>
      <point x="78" y="271" type="curve" smooth="yes"/>
      <point x="78" y="182"/>
      <point x="137" y="134"/>
      <point x="237" y="118" type="curve"/>
      <point x="237" y="-293" type="line"/>
      <point x="327" y="-293" type="line"/>
      <point x="327" y="-76" type="line"/>
      <point x="346" y="-69"/>
      <point x="367" y="-66"/>
      <point x="391" y="-66" type="curve" smooth="yes"/>
      <point x="449" y="-66"/>
      <point x="462" y="-93"/>
      <point x="462" y="-162" type="curve" smooth="yes"/>
      <point x="462" y="-220" type="line"/>
      <point x="552" y="-220" type="line"/>
      <point x="552" y="-162" type="line" smooth="yes"/>
      <point x="552" y="-47"/>
      <point x="507" y="17"/>
      <point x="402" y="17" type="curve" smooth="yes"/>
      <point x="376" y="17"/>
      <point x="351" y="13"/>
      <point x="327" y="6" type="curve"/>
      <point x="327" y="112" type="line"/>
    </contour>
  </outline>
</glyph>
<glyph name="brm_JO" format="2">
  <advance width="738"/>
  <outline>
    <contour>
      <point x="49" y="592" type="line"/>
      <point x="49" y="512" type="line"/>
      <point x="224" y="512" type="line"/>
      <point x="228" y="443"/>
      <point x="263" y="392"/>
      <point x="324" y="360" type="curve"/>
      <point x="260" y="327"/>
      <point x="223" y="267"/>
      <point x="223" y="187" type="curve" smooth="yes"/>
      <point x="223" y="77"/>
      <point x="316" y="0"/>
      <point x="465" y="0" type="curve" smooth="yes"/>
      <point x="585" y="0" type="line"/>
      <point x="585" y="80" type="line"/>
      <point x="462" y="80" type="line" smooth="yes"/>
      <point x="373" y="80"/>
      <point x="318" y="119"/>
      <point x="318" y="188" type="curve" smooth="yes"/>
      <point x="318" y="277"/>
      <point x="377" y="319"/>
      <point x="497" y="320" type="curve"/>
      <point x="497" y="252" type="line"/>
      <point x="577" y="252" type="line"/>
      <point x="577" y="320" type="line"/>
      <point x="713" y="320" type="line"/>
      <point x="713" y="400" type="line"/>
      <point x="577" y="400" type="line"/>
      <point x="577" y="464" type="line"/>
      <point x="497" y="464" type="line"/>
      <point x="497" y="400" type="line"/>
      <point x="373" y="403"/>
      <point x="318" y="438"/>
      <point x="318" y="526" type="curve" smooth="yes"/>
      <point x="318" y="599"/>
      <point x="387" y="634"/>
      <point x="467" y="634" type="curve" smooth="yes"/>
      <point x="585" y="634" type="line"/>
      <point x="585" y="714" type="line"/>
      <point x="475" y="714" type="line" smooth="yes"/>
      <point x="356" y="714"/>
      <point x="269" y="664"/>
      <point x="237" y="592" type="curve"/>
    </contour>
  </outline>
</glyph>
<glyph name="brm_JUU" format="2">
  <advance width="504"/>
  <outline>
    <contour>
      <point x="219" y="-159" type="line"/>
      <point x="299" y="-159" type="line"/>
      <point x="299" y="0" type="line"/>
      <point x="306" y="0"/>
      <point x="312" y="0"/>
      <point x="320" y="0" type="curve" smooth="yes"/>
      <point x="360" y="0" type="line"/>
      <point x="360" y="-159" type="line"/>
      <point x="440" y="-159" type="line"/>
      <point x="440" y="80" type="line"/>
      <point x="317" y="80" type="line" smooth="yes"/>
      <point x="228" y="80"/>
      <point x="173" y="120"/>
      <point x="173" y="188" type="curve" smooth="yes"/>
      <point x="173" y="279"/>
      <point x="235" y="320"/>
      <point x="358" y="320" type="curve" smooth="yes"/>
      <point x="422" y="320" type="line"/>
      <point x="422" y="400" type="line"/>
      <point x="358" y="400" type="line" smooth="yes"/>
      <point x="231" y="400"/>
      <point x="173" y="437"/>
      <point x="173" y="526" type="curve" smooth="yes"/>
      <point x="173" y="599"/>
      <point x="242" y="634"/>
      <point x="322" y="634" type="curve" smooth="yes"/>
      <point x="440" y="634" type="line"/>
      <point x="440" y="714" type="line"/>
      <point x="330" y="714" type="line" smooth="yes"/>
      <point x="179" y="714"/>
      <point x="78" y="633"/>
      <point x="78" y="526" type="curve" smooth="yes"/>
      <point x="78" y="451"/>
      <point x="115" y="394"/>
      <point x="179" y="360" type="curve"/>
      <point x="116" y="327"/>
      <point x="78" y="266"/>
      <point x="78" y="187" type="curve" smooth="yes"/>
      <point x="78" y="105"/>
      <point x="130" y="41"/>
      <point x="219" y="14" type="curve"/>
    </contour>
  </outline>
</glyph>
<glyph name="brm_KSSA" format="2">
  <advance width="795"/>
  <outline>
    <contour>
      <point x="717" y="-40" type="line"/>
      <point x="627" y="-40" type="line"/>
      <point x="627" y="-77" type="line" smooth="yes"/>
      <point x="627" y="-167"/>
      <point x="597" y="-209"/>
      <point x="522" y="-209" type="curve" smooth="yes"/>
      <point x="453" y="-209"/>
      <point x="422" y="-172"/>
      <point x="422" y="-77" type="curve" smooth="yes"/>
      <point x="422" y="72" type="line"/>
      <point x="644" y="144" type="line"/>
      <point x="623" y="221" type="line"/>
      <point x="422" y="155" type="line"/>
      <point x="422" y="333" type="line"/>
      <point x="676" y="333" type="line"/>
      <point x="676" y="412" type="line"/>
      <point x="422" y="412" type="line"/>
      <point x="422" y="714" type="line"/>
      <point x="332" y="714" type="line"/>
      <point x="332" y="412" type="line"/>
      <point x="78" y="412" type="line"/>
      <point x="78" y="333" type="line"/>
      <point x="332" y="333" type="line"/>
      <point x="332" y="-77" type="line" smooth="yes"/>
      <point x="332" y="-216"/>
      <point x="388" y="-293"/>
      <point x="522" y="-293" type="curve" smooth="yes"/>
      <point x="660" y="-293"/>
      <point x="717" y="-216"/>
      <point x="717" y="-77" type="curve" smooth="yes"/>
    </contour>
  </outline>
</glyph>
<glyph name="brm_LLLAU" format="2">
  <advance width="880"/>
  <outline>
    <contour>
      <point x="49" y="647" type="line"/>
      <point x="49" y="567" type="line"/>
      <point x="239" y="567" type="line"/>
      <point x="236" y="554"/>
      <point x="234" y="540"/>
      <point x="234" y="526" type="curve" smooth="yes"/>
      <point x="234" y="511"/>
      <point x="235" y="498"/>
      <point x="238" y="487" type="curve"/>
      <point x="49" y="487" type="line"/>
      <point x="49" y="407" type="line"/>
      <point x="275" y="407" type="line"/>
      <point x="308" y="367"/>
      <point x="348" y="343"/>
      <point x="395" y="333" type="curve"/>
      <point x="395" y="259" type="line"/>
      <point x="176" y="259" type="line"/>
      <point x="176" y="0" type="line"/>
      <point x="266" y="0" type="line"/>
      <point x="266" y="179" type="line"/>
      <point x="485" y="179" type="line"/>
      <point x="485" y="333" type="line"/>
      <point x="563" y="349"/>
      <point x="626" y="410"/>
      <point x="642" y="487" type="curve"/>
      <point x="831" y="487" type="line"/>
      <point x="831" y="567" type="line"/>
      <point x="641" y="567" type="line"/>
      <point x="623" y="654"/>
      <point x="540" y="724"/>
      <point x="440" y="724" type="curve" smooth="yes"/>
      <point x="379" y="724"/>
      <point x="314" y="694"/>
      <point x="277" y="647" type="curve"/>
    </contour>
    <contour>
      <point x="320" y="525" type="curve" smooth="yes"/>
      <point x="320" y="579"/>
      <point x="351" y="624"/>
      <point x="398" y="640" type="curve"/>
      <point x="398" y="412" type="line"/>
      <point x="349" y="429"/>
      <point x="320" y="473"/>
    </contour>
    <contour>
      <point x="560" y="525" type="curve" smooth="yes"/>
      <point x="560" y="473"/>
      <point x="531" y="429"/>
      <point x="482" y="412" type="curve"/>
      <point x="482" y="640" type="line"/>
      <point x="529" y="624"/>
      <point x="560" y="580"/>
    </contour>
  </outline>
</glyph>
<glyph name="brm_LLLO" format="2">
  <advance width="880"/>
  <outline>
    <contour>
      <point x="49" y="567" type="line"/>
      <point x="49" y="487" type="line"/>
      <point x="238" y="487" type="line"/>
      <point x="251" y="409"/>
      <point x="319" y="349"/>
      <point x="395" y="333" type="curve"/>
      <point x="395" y="259" type="line"/>
      <point x="176" y="259" type="line"/>
      <point x="176" y="0" type="line"/>
      <point x="266" y="0" type="line"/>
      <point x="266" y="179" type="line"/>
      <point x="485" y="179" type="line"/>
      <point x="485" y="333" type="line"/>
      <point x="563" y="349"/>
      <point x="626" y="410"/>
      <point x="642" y="487" type="curve"/>
      <point x="831" y="487" type="line"/>
      <point x="831" y="567" type="line"/>
      <point x="641" y="567" type="line"/>
      <point x="623" y="654"/>
      <point x="540" y="724"/>
      <point x="440" y="724" type="curve" smooth="yes"/>
      <point x="343" y="724"/>
      <point x="257" y="657"/>
      <point x="239" y="567" type="curve"/>
    </contour>
    <contour>
      <point x="320" y="525" type="curve" smooth="yes"/>
      <point x="320" y="579"/>
      <point x="351" y="624"/>
      <point x="398" y="640" type="curve"/>
      <point x="398" y="412" type="line"/>
      <point x="349" y="429"/>
      <point x="320" y="473"/>
    </contour>
    <contour>
      <point x="560" y="525" type="curve" smooth="yes"/>
      <point x="560" y="473"/>
      <point x="531" y="429"/>
      <point x="482" y="412" type="curve"/>
      <point x="482" y="640" type="line"/>
      <point x="529" y="624"/>
      <point x="560" y="580"/>
    </contour>
  </outline>
</glyph>
<glyph name="brm_LLU" format="2">
  <advance width="989"/>
  <outline>
    <contour>
      <point x="377" y="-159" type="line"/>
      <point x="458" y="-159" type="line"/>
      <point x="458" y="-10" type="line"/>
      <point x="586" y="2"/>
      <point x="635" y="76"/>
      <point x="635" y="252" type="curve" smooth="yes"/>
      <point x="635" y="266" type="line"/>
      <point x="653" y="272"/>
      <point x="675" y="275"/>
      <point x="701" y="275" type="curve" smooth="yes"/>
      <point x="788" y="275"/>
      <point x="821" y="236"/>
      <point x="821" y="146" type="curve" smooth="yes"/>
      <point x="821" y="0" type="line"/>
      <point x="911" y="0" type="line"/>
      <point x="911" y="163" type="line" smooth="yes"/>
      <point x="911" y="300"/>
      <point x="842" y="359"/>
      <point x="711" y="359" type="curve" smooth="yes"/>
      <point x="685" y="359"/>
      <point x="659" y="355"/>
      <point x="635" y="347" type="curve"/>
      <point x="635" y="714" type="line"/>
      <point x="545" y="714" type="line"/>
      <point x="545" y="249" type="line" smooth="yes"/>
      <point x="545" y="113"/>
      <point x="521" y="72"/>
      <point x="421" y="72" type="curve" smooth="yes"/>
      <point x="320" y="72"/>
      <point x="291" y="119"/>
      <point x="291" y="255" type="curve"/>
      <point x="49" y="255" type="line"/>
      <point x="49" y="175" type="line"/>
      <point x="205" y="175" type="line"/>
      <point x="218" y="57"/>
      <point x="271" y="3"/>
      <point x="377" y="-9" type="curve"/>
    </contour>
  </outline>
</glyph>
<glyph name="brm_LLUU" format="2">
  <advance width="989"/>
  <outline>
    <contour>
      <point x="448" y="-159" type="line"/>
      <point x="528" y="-159" type="line"/>
      <point x="528" y="7" type="line"/>
      <point x="603" y="39"/>
      <point x="635" y="105"/>
      <point x="635" y="252" type="curve" smooth="yes"/>
      <point x="635" y="266" type="line"/>
      <point x="653" y="272"/>
      <point x="675" y="275"/>
      <point x="701" y="275" type="curve" smooth="yes"/>
      <point x="788" y="275"/>
      <point x="821" y="236"/>
      <point x="821" y="146" type="curve" smooth="yes"/>
      <point x="821" y="0" type="line"/>
      <point x="911" y="0" type="line"/>
      <point x="911" y="163" type="line" smooth="yes"/>
      <point x="911" y="300"/>
      <point x="842" y="359"/>
      <point x="711" y="359" type="curve" smooth="yes"/>
      <point x="685" y="359"/>
      <point x="659" y="355"/>
      <point x="635" y="347" type="curve"/>
      <point x="635" y="714" type="line"/>
      <point x="545" y="714" type="line"/>
      <point x="545" y="249" type="line" smooth="yes"/>
      <point x="545" y="113"/>
      <point x="521" y="72"/>
      <point x="421" y="72" type="curve" smooth="yes"/>
      <point x="320" y="72"/>
      <point x="291" y="119"/>
      <point x="291" y="255" type="curve"/>
      <point x="49" y="255" type="line"/>
      <point x="49" y="175" type="line"/>
      <point x="205" y="175" type="line"/>
      <point x="215" y="87"/>
      <point x="249" y="34"/>
      <point x="307" y="8" type="curve"/>
      <point x="307" y="-159" type="line"/>
      <point x="387" y="-159" type="line"/>
      <point x="387" y="-10" type="line"/>
      <point x="397" y="-11"/>
      <point x="409" y="-12"/>
      <point x="421" y="-12" type="curve" smooth="yes"/>
      <point x="431" y="-12"/>
      <point x="439" y="-12"/>
      <point x="448" y="-11" type="curve"/>
    </contour>
  </outline>
</glyph>
<glyph name="brm_LU" format="2">
  <advance width="732"/>
  <outline>
    <contour>
      <point x="377" y="-159" type="line"/>
      <point x="458" y="-159" type="line"/>
      <point x="458" y="-10" type="line"/>
      <point x="586" y="3"/>
      <point x="635" y="77"/>
      <point x="635" y="254" type="curve" smooth="yes"/>
      <point x="635" y="714" type="line"/>
      <point x="545" y="714" type="line"/>
      <point x="545" y="251" type="line" smooth="yes"/>
      <point x="545" y="117"/>
      <point x="519" y="73"/>
      <point x="421" y="73" type="curve" smooth="yes"/>
      <point x="321" y="73"/>
      <point x="291" y="120"/>
      <point x="291" y="251" type="curve" smooth="yes"/>
      <point x="291" y="255" type="line"/>
      <point x="49" y="255" type="line"/>
      <point x="49" y="175" type="line"/>
      <point x="205" y="175" type="line"/>
      <point x="220" y="57"/>
      <point x="271" y="2"/>
      <point x="377" y="-9" type="curve"/>
    </contour>
  </outline>
</glyph>
<glyph name="brm_LUU" format="2">
  <advance width="732"/>
  <outline>
    <contour>
      <point x="448" y="-159" type="line"/>
      <point x="528" y="-159" type="line"/>
      <point x="528" y="7" type="line"/>
      <point x="603" y="40"/>
      <point x="635" y="108"/>
      <point x="635" y="254" type="curve" smooth="yes"/>
      <point x="635" y="714" type="line"/>
      <point x="545" y="714" type="line"/>
      <point x="545" y="251" type="line" smooth="yes"/>
      <point x="545" y="117"/>
      <point x="519" y="73"/>
      <point x="421" y="73" type="curve" smooth="yes"/>
      <point x="321" y="73"/>
      <point x="291" y="120"/>
      <point x="291" y="251" type="curve" smooth="yes"/>
      <point x="291" y="255" type="line"/>
      <point x="49" y="255" type="line"/>
      <point x="49" y="175" type="line"/>
      <point x="205" y="175" type="line"/>
      <point x="216" y="84"/>
      <point x="247" y="36"/>
      <point x="307" y="9" type="curve"/>
      <point x="307" y="-159" type="line"/>
      <point x="387" y="-159" type="line"/>
      <point x="387" y="-10" type="line"/>
      <point x="397" y="-11"/>
      <point x="409" y="-12"/>
      <point x="421" y="-12" type="curve" smooth="yes"/>
      <point x="431" y="-12"/>
      <point x="437" y="-12"/>
      <point x="448" y="-11" type="curve"/>
    </contour>
  </outline>
</glyph>
<glyph name="brm_MAU" format="2">
  <advance width="968"/>
  <outline>
    <contour>
      <point x="34" y="554" type="line"/>
      <point x="34" y="474" type="line"/>
      <point x="295" y="474" type="line"/>
      <point x="320" y="450"/>
      <point x="357" y="423"/>
      <point x="407" y="394" type="curve"/>
      <point x="312" y="333"/>
      <point x="271" y="263"/>
      <point x="271" y="174" type="curve" smooth="yes"/>
      <point x="271" y="57"/>
      <point x="347" y="-12"/>
      <point x="482" y="-12" type="curve" smooth="yes"/>
      <point x="621" y="-12"/>
      <point x="697" y="57"/>
      <point x="697" y="174" type="curve" smooth="yes"/>
      <point x="697" y="262"/>
      <point x="658" y="332"/>
      <point x="562" y="395" type="curve"/>
      <point x="695" y="478"/>
      <point x="741" y="534"/>
      <point x="752" y="634" type="curve"/>
      <point x="934" y="634" type="line"/>
      <point x="934" y="714" type="line"/>
      <point x="665" y="714" type="line"/>
      <point x="665" y="674" type="line" smooth="yes"/>
      <point x="665" y="550"/>
      <point x="577" y="498"/>
      <point x="484" y="442" type="curve"/>
      <point x="393" y="496"/>
      <point x="303" y="550"/>
      <point x="303" y="674" type="curve" smooth="yes"/>
      <point x="303" y="714" type="line"/>
      <point x="34" y="714" type="line"/>
      <point x="34" y="634" type="line"/>
      <point x="215" y="634" type="line"/>
      <point x="218" y="603"/>
      <point x="226" y="578"/>
      <point x="237" y="554" type="curve"/>
    </contour>
    <contour>
      <point x="485" y="350" type="curve"/>
      <point x="565" y="299"/>
      <point x="602" y="246"/>
      <point x="602" y="178" type="curve" smooth="yes"/>
      <point x="602" y="106"/>
      <point x="558" y="72"/>
      <point x="482" y="72" type="curve" smooth="yes"/>
      <point x="410" y="72"/>
      <point x="366" y="107"/>
      <point x="366" y="178" type="curve" smooth="yes"/>
      <point x="366" y="246"/>
      <point x="405" y="299"/>
    </contour>
  </outline>
</glyph>
<glyph name="brm_MO" format="2">
  <advance width="968"/>
  <outline>
    <contour>
      <point x="665" y="714" type="line"/>
      <point x="665" y="674" type="line"/>
      <point x="665" y="550"/>
      <point x="577" y="498"/>
      <point x="484" y="442" type="curve"/>
      <point x="393" y="496"/>
      <point x="303" y="550"/>
      <point x="303" y="674" type="curve" smooth="yes"/>
      <point x="303" y="714" type="line"/>
      <point x="34" y="714" type="line"/>
      <point x="34" y="634" type="line"/>
      <point x="215" y="634" type="line"/>
      <point x="229" y="520"/>
      <point x="296" y="458"/>
      <point x="407" y="394" type="curve"/>
      <point x="312" y="333"/>
      <point x="271" y="263"/>
      <point x="271" y="174" type="curve" smooth="yes"/>
      <point x="271" y="57"/>
      <point x="347" y="-12"/>
      <point x="482" y="-12" type="curve" smooth="yes"/>
      <point x="621" y="-12"/>
      <point x="697" y="57"/>
      <point x="697" y="174" type="curve" smooth="yes"/>
      <point x="697" y="262"/>
      <point x="658" y="332"/>
      <point x="562" y="395" type="curve"/>
      <point x="695" y="478"/>
      <point x="741" y="534"/>
      <point x="752" y="634" type="curve"/>
      <point x="934" y="634" type="line"/>
      <point x="934" y="714" type="line"/>
    </contour>
    <contour>
      <point x="485" y="350" type="curve"/>
      <point x="565" y="299"/>
      <point x="602" y="246"/>
      <point x="602" y="178" type="curve" smooth="yes"/>
      <point x="602" y="106"/>
      <point x="558" y="72"/>
      <point x="482" y="72" type="curve" smooth="yes"/>
      <point x="410" y="72"/>
      <point x="366" y="107"/>
      <point x="366" y="178" type="curve" smooth="yes"/>
      <point x="366" y="246"/>
      <point x="405" y="299"/>
    </contour>
  </outline>
</glyph>
<glyph name="brm_MU" format="2">
  <advance width="698"/>
  <outline>
    <contour>
      <point x="309" y="-159" type="line"/>
      <point x="389" y="-159" type="line"/>
      <point x="389" y="-9" type="line"/>
      <point x="500" y="3"/>
      <point x="562" y="68"/>
      <point x="562" y="174" type="curve" smooth="yes"/>
      <point x="562" y="262"/>
      <point x="523" y="332"/>
      <point x="427" y="395" type="curve"/>
      <point x="569" y="481"/>
      <point x="620" y="547"/>
      <point x="620" y="674" type="curve" smooth="yes"/>
      <point x="620" y="714" type="line"/>
      <point x="530" y="714" type="line"/>
      <point x="530" y="674" type="line" smooth="yes"/>
      <point x="530" y="550"/>
      <point x="437" y="495"/>
      <point x="349" y="442" type="curve"/>
      <point x="238" y="507"/>
      <point x="168" y="563"/>
      <point x="168" y="674" type="curve" smooth="yes"/>
      <point x="168" y="714" type="line"/>
      <point x="78" y="714" type="line"/>
      <point x="78" y="674" type="line" smooth="yes"/>
      <point x="78" y="534"/>
      <point x="156" y="459"/>
      <point x="272" y="394" type="curve"/>
      <point x="178" y="333"/>
      <point x="136" y="264"/>
      <point x="136" y="174" type="curve" smooth="yes"/>
      <point x="136" y="68"/>
      <point x="198" y="2"/>
      <point x="309" y="-10" type="curve"/>
    </contour>
    <contour>
      <point x="347" y="72" type="curve" smooth="yes"/>
      <point x="275" y="72"/>
      <point x="231" y="106"/>
      <point x="231" y="178" type="curve" smooth="yes"/>
      <point x="231" y="246"/>
      <point x="270" y="299"/>
      <point x="351" y="350" type="curve"/>
      <point x="431" y="299"/>
      <point x="467" y="246"/>
      <point x="467" y="178" type="curve" smooth="yes"/>
      <point x="467" y="106"/>
      <point x="423" y="72"/>
    </contour>
  </outline>
</glyph>
<glyph name="brm_MUU" format="2">
  <advance width="698"/>
  <outline>
    <contour>
      <point x="380" y="-159" type="line"/>
      <point x="460" y="-159" type="line"/>
      <point x="460" y="8" type="line"/>
      <point x="526" y="36"/>
      <point x="562" y="93"/>
      <point x="562" y="174" type="curve" smooth="yes"/>
      <point x="562" y="262"/>
      <point x="523" y="332"/>
      <point x="427" y="395" type="curve"/>
      <point x="569" y="481"/>
      <point x="620" y="547"/>
      <point x="620" y="674" type="curve" smooth="yes"/>
      <point x="620" y="714" type="line"/>
      <point x="530" y="714" type="line"/>
      <point x="530" y="674" type="line" smooth="yes"/>
      <point x="530" y="560"/>
      <point x="458" y="507"/>
      <point x="349" y="442" type="curve"/>
      <point x="239" y="508"/>
      <point x="168" y="559"/>
      <point x="168" y="674" type="curve" smooth="yes"/>
      <point x="168" y="714" type="line"/>
      <point x="78" y="714" type="line"/>
      <point x="78" y="674" type="line" smooth="yes"/>
      <point x="78" y="540"/>
      <point x="145" y="467"/>
      <point x="272" y="394" type="curve"/>
      <point x="178" y="333"/>
      <point x="136" y="264"/>
      <point x="136" y="174" type="curve" smooth="yes"/>
      <point x="136" y="93"/>
      <point x="172" y="36"/>
      <point x="238" y="7" type="curve"/>
      <point x="238" y="-159" type="line"/>
      <point x="318" y="-159" type="line"/>
      <point x="318" y="-10" type="line"/>
      <point x="333" y="-12"/>
      <point x="339" y="-12"/>
      <point x="347" y="-12" type="curve" smooth="yes"/>
      <point x="358" y="-12"/>
      <point x="369" y="-11"/>
      <point x="380" y="-10" type="curve"/>
    </contour>
    <contour>
      <point x="351" y="350" type="curve"/>
      <point x="431" y="299"/>
      <point x="467" y="246"/>
      <point x="467" y="178" type="curve" smooth="yes"/>
      <point x="467" y="106"/>
      <point x="423" y="72"/>
      <point x="347" y="72" type="curve" smooth="yes"/>
      <point x="275" y="72"/>
      <point x="231" y="106"/>
      <point x="231" y="178" type="curve" smooth="yes"/>
      <point x="231" y="246"/>
      <point x="270" y="299"/>
    </contour>
  </outline>
</glyph>
<glyph name="brm_NGU" format="2">
  <advance width="529"/>
  <outline>
    <contour>
      <point x="371" y="-159" type="line"/>
      <point x="451" y="-159" type="line"/>
      <point x="451" y="80" type="line"/>
      <point x="187" y="80" type="line"/>
      <point x="187" y="634" type="line"/>
      <point x="451" y="634" type="line"/>
      <point x="451" y="714" type="line"/>
      <point x="98" y="714" type="line"/>
      <point x="98" y="0" type="line"/>
      <point x="371" y="0" type="line"/>
    </contour>
  </outline>
</glyph>
<glyph name="brm_NNNAU" format="2">
  <advance width="844"/>
  <outline>
    <contour>
      <point x="49" y="482" type="line"/>
      <point x="49" y="402" type="line"/>
      <point x="234" y="402" type="line"/>
      <point x="234" y="79" type="line"/>
      <point x="119" y="79" type="line"/>
      <point x="119" y="0" type="line"/>
      <point x="619" y="0" type="line"/>
      <point x="619" y="79" type="line"/>
      <point x="324" y="79" type="line"/>
      <point x="324" y="497" type="line" smooth="yes"/>
      <point x="324" y="604"/>
      <point x="351" y="642"/>
      <point x="429" y="642" type="curve" smooth="yes"/>
      <point x="505" y="642"/>
      <point x="529" y="605"/>
      <point x="529" y="496" type="curve" smooth="yes"/>
      <point x="529" y="482" type="line"/>
      <point x="795" y="482" type="line"/>
      <point x="795" y="562" type="line"/>
      <point x="615" y="562" type="line"/>
      <point x="599" y="677"/>
      <point x="539" y="726"/>
      <point x="423" y="726" type="curve" smooth="yes"/>
      <point x="341" y="726"/>
      <point x="287" y="698"/>
      <point x="260" y="642" type="curve"/>
      <point x="49" y="642" type="line"/>
      <point x="49" y="562" type="line"/>
      <point x="238" y="562" type="line"/>
      <point x="235" y="541"/>
      <point x="234" y="519"/>
      <point x="234" y="494" type="curve" smooth="yes"/>
      <point x="234" y="482" type="line"/>
    </contour>
  </outline>
</glyph>
<glyph name="brm_NNNO" format="2">
  <advance width="844"/>
  <outline>
    <contour>
      <point x="49" y="562" type="line"/>
      <point x="49" y="482" type="line"/>
      <point x="234" y="482" type="line"/>
      <point x="234" y="79" type="line"/>
      <point x="119" y="79" type="line"/>
      <point x="119" y="0" type="line"/>
      <point x="619" y="0" type="line"/>
      <point x="619" y="79" type="line"/>
      <point x="324" y="79" type="line"/>
      <point x="324" y="497" type="line" smooth="yes"/>
      <point x="324" y="604"/>
      <point x="351" y="642"/>
      <point x="429" y="642" type="curve" smooth="yes"/>
      <point x="505" y="642"/>
      <point x="529" y="605"/>
      <point x="529" y="496" type="curve" smooth="yes"/>
      <point x="529" y="482" type="line"/>
      <point x="795" y="482" type="line"/>
      <point x="795" y="562" type="line"/>
      <point x="615" y="562" type="line"/>
      <point x="599" y="677"/>
      <point x="539" y="726"/>
      <point x="423" y="726" type="curve" smooth="yes"/>
      <point x="308" y="726"/>
      <point x="254" y="677"/>
      <point x="238" y="562" type="curve"/>
    </contour>
  </outline>
</glyph>
<glyph name="brm_NNNUU" format="2">
  <advance width="627"/>
  <outline>
    <contour>
      <point x="469" y="-159" type="line"/>
      <point x="549" y="-159" type="line"/>
      <point x="549" y="79" type="line"/>
      <point x="254" y="79" type="line"/>
      <point x="254" y="497" type="line" smooth="yes"/>
      <point x="254" y="604"/>
      <point x="281" y="642"/>
      <point x="359" y="642" type="curve" smooth="yes"/>
      <point x="434" y="642"/>
      <point x="459" y="605"/>
      <point x="459" y="496" type="curve" smooth="yes"/>
      <point x="459" y="482" type="line"/>
      <point x="549" y="482" type="line"/>
      <point x="549" y="496" type="line" smooth="yes"/>
      <point x="549" y="662"/>
      <point x="487" y="726"/>
      <point x="354" y="726" type="curve" smooth="yes"/>
      <point x="220" y="726"/>
      <point x="165" y="660"/>
      <point x="165" y="494" type="curve" smooth="yes"/>
      <point x="165" y="79" type="line"/>
      <point x="49" y="79" type="line"/>
      <point x="49" y="0" type="line"/>
      <point x="327" y="0" type="line"/>
      <point x="327" y="-159" type="line"/>
      <point x="407" y="-159" type="line"/>
      <point x="407" y="0" type="line"/>
      <point x="469" y="0" type="line"/>
    </contour>
  </outline>
</glyph>
<glyph name="brm_NNU" format="2">
  <advance width="538"/>
  <outline>
    <contour>
      <point x="409" y="-159" type="line"/>
      <point x="489" y="-159" type="line"/>
      <point x="489" y="80" type="line"/>
      <point x="314" y="80" type="line"/>
      <point x="314" y="634" type="line"/>
      <point x="489" y="634" type="line"/>
      <point x="489" y="714" type="line"/>
      <point x="49" y="714" type="line"/>
      <point x="49" y="634" type="line"/>
      <point x="224" y="634" type="line"/>
      <point x="224" y="80" type="line"/>
      <point x="49" y="80" type="line"/>
      <point x="49" y="0" type="line"/>
      <point x="409" y="0" type="line"/>
    </contour>
  </outline>
</glyph>
<glyph name="brm_NU" format="2">
  <advance width="538"/>
  <outline>
    <contour>
      <point x="409" y="-159" type="line"/>
      <point x="489" y="-159" type="line"/>
      <point x="489" y="80" type="line"/>
      <point x="314" y="80" type="line"/>
      <point x="314" y="714" type="line"/>
      <point x="224" y="714" type="line"/>
      <point x="224" y="80" type="line"/>
      <point x="49" y="80" type="line"/>
      <point x="49" y="0" type="line"/>
      <point x="409" y="0" type="line"/>
    </contour>
  </outline>
</glyph>
<glyph name="brm_NYO" format="2">
  <advance width="647"/>
  <outline>
    <contour>
      <point x="205" y="0" type="line"/>
      <point x="294" y="0" type="line"/>
      <point x="294" y="413" type="line"/>
      <point x="313" y="419"/>
      <point x="335" y="422"/>
      <point x="359" y="422" type="curve" smooth="yes"/>
      <point x="444" y="422"/>
      <point x="479" y="386"/>
      <point x="479" y="292" type="curve" smooth="yes"/>
      <point x="479" y="170" type="line"/>
      <point x="569" y="170" type="line"/>
      <point x="569" y="310" type="line" smooth="yes"/>
      <point x="569" y="446"/>
      <point x="500" y="505"/>
      <point x="370" y="505" type="curve" smooth="yes"/>
      <point x="344" y="505"/>
      <point x="319" y="501"/>
      <point x="294" y="494" type="curve"/>
      <point x="294" y="549" type="line"/>
      <point x="518" y="549" type="line"/>
      <point x="518" y="629" type="line"/>
      <point x="294" y="629" type="line"/>
      <point x="294" y="714" type="line"/>
      <point x="49" y="714" type="line"/>
      <point x="49" y="634" type="line"/>
      <point x="205" y="634" type="line"/>
      <point x="205" y="549" type="line"/>
      <point x="49" y="549" type="line"/>
      <point x="49" y="469" type="line"/>
      <point x="205" y="469" type="line"/>
    </contour>
  </outline>
</glyph>
<glyph name="brm_PHU" format="2">
  <advance width="576"/>
  <outline>
    <contour>
      <point x="267" y="-159" type="line"/>
      <point x="347" y="-159" type="line"/>
      <point x="347" y="-7" type="line"/>
      <point x="448" y="12"/>
      <point x="513" y="96"/>
      <point x="513" y="202" type="curve" smooth="yes"/>
      <point x="513" y="320"/>
      <point x="435" y="400"/>
      <point x="312" y="400" type="curve" smooth="yes"/>
      <point x="283" y="400"/>
      <point x="255" y="394"/>
      <point x="228" y="383" type="curve"/>
      <point x="265" y="308" type="line"/>
      <point x="284" y="313"/>
      <point x="302" y="316"/>
      <point x="321" y="316" type="curve" smooth="yes"/>
      <point x="378" y="316"/>
      <point x="418" y="269"/>
      <point x="418" y="204" type="curve" smooth="yes"/>
      <point x="418" y="116"/>
      <point x="379" y="72"/>
      <point x="300" y="72" type="curve" smooth="yes"/>
      <point x="217" y="72"/>
      <point x="187" y="111"/>
      <point x="187" y="215" type="curve" smooth="yes"/>
      <point x="187" y="714" type="line"/>
      <point x="98" y="714" type="line"/>
      <point x="98" y="215" type="line" smooth="yes"/>
      <point x="98" y="75"/>
      <point x="151" y="1"/>
      <point x="267" y="-10" type="curve"/>
    </contour>
  </outline>
</glyph>
<glyph name="brm_PHUU" format="2">
  <advance width="576"/>
  <outline>
    <contour>
      <point x="337" y="-159" type="line"/>
      <point x="417" y="-159" type="line"/>
      <point x="417" y="20" type="line"/>
      <point x="477" y="57"/>
      <point x="513" y="123"/>
      <point x="513" y="202" type="curve" smooth="yes"/>
      <point x="513" y="320"/>
      <point x="435" y="400"/>
      <point x="312" y="400" type="curve" smooth="yes"/>
      <point x="283" y="400"/>
      <point x="255" y="394"/>
      <point x="228" y="383" type="curve"/>
      <point x="265" y="308" type="line"/>
      <point x="284" y="313"/>
      <point x="302" y="316"/>
      <point x="321" y="316" type="curve" smooth="yes"/>
      <point x="378" y="316"/>
      <point x="418" y="269"/>
      <point x="418" y="204" type="curve" smooth="yes"/>
      <point x="418" y="116"/>
      <point x="379" y="72"/>
      <point x="300" y="72" type="curve" smooth="yes"/>
      <point x="217" y="72"/>
      <point x="187" y="111"/>
      <point x="187" y="215" type="curve" smooth="yes"/>
      <point x="187" y="714" type="line"/>
      <point x="98" y="714" type="line"/>
      <point x="98" y="215" type="line" smooth="yes"/>
      <point x="98" y="108"/>
      <point x="129" y="40"/>
      <point x="196" y="8" type="curve"/>
      <point x="196" y="-159" type="line"/>
      <point x="276" y="-159" type="line"/>
      <point x="276" y="-11" type="line"/>
      <point x="286" y="-12"/>
      <point x="292" y="-12"/>
      <point x="300" y="-12" type="curve" smooth="yes"/>
      <point x="313" y="-12"/>
      <point x="325" y="-11"/>
      <point x="337" y="-9" type="curve"/>
    </contour>
  </outline>
</glyph>
<glyph name="brm_PU" format="2">
  <advance width="609"/>
  <outline>
    <contour>
      <point x="273" y="-159" type="line"/>
      <point x="354" y="-159" type="line"/>
      <point x="354" y="-9" type="line"/>
      <point x="483" y="5"/>
      <point x="531" y="78"/>
      <point x="531" y="250" type="curve" smooth="yes"/>
      <point x="531" y="252" type="line"/>
      <point x="441" y="252" type="line"/>
      <point x="441" y="250" type="line" smooth="yes"/>
      <point x="441" y="116"/>
      <point x="411" y="72"/>
      <point x="312" y="72" type="curve" smooth="yes"/>
      <point x="212" y="72"/>
      <point x="187" y="111"/>
      <point x="187" y="249" type="curve" smooth="yes"/>
      <point x="187" y="714" type="line"/>
      <point x="98" y="714" type="line"/>
      <point x="98" y="252" type="line" smooth="yes"/>
      <point x="98" y="76"/>
      <point x="144" y="3"/>
      <point x="273" y="-10" type="curve"/>
    </contour>
  </outline>
</glyph>
<glyph name="brm_PUU" format="2">
  <advance width="609"/>
  <outline>
    <contour>
      <point x="344" y="-159" type="line"/>
      <point x="424" y="-159" type="line"/>
      <point x="424" y="8" type="line"/>
      <point x="500" y="42"/>
      <point x="531" y="106"/>
      <point x="531" y="250" type="curve" smooth="yes"/>
      <point x="531" y="252" type="line"/>
      <point x="441" y="252" type="line"/>
      <point x="441" y="250" type="line" smooth="yes"/>
      <point x="441" y="116"/>
      <point x="411" y="72"/>
      <point x="312" y="72" type="curve" smooth="yes"/>
      <point x="212" y="72"/>
      <point x="187" y="111"/>
      <point x="187" y="249" type="curve" smooth="yes"/>
      <point x="187" y="714" type="line"/>
      <point x="98" y="714" type="line"/>
      <point x="98" y="252" type="line" smooth="yes"/>
      <point x="98" y="105"/>
      <point x="128" y="41"/>
      <point x="203" y="7" type="curve"/>
      <point x="203" y="-159" type="line"/>
      <point x="283" y="-159" type="line"/>
      <point x="283" y="-11" type="line"/>
      <point x="296" y="-12"/>
      <point x="301" y="-12"/>
      <point x="311" y="-12" type="curve" smooth="yes"/>
      <point x="323" y="-12"/>
      <point x="328" y="-12"/>
      <point x="344" y="-10" type="curve"/>
    </contour>
  </outline>
</glyph>
<glyph name="brm_RRAU" format="2">
  <advance width="574"/>
  <outline>
    <contour>
      <point x="49" y="498" type="line"/>
      <point x="49" y="417" type="line"/>
      <point x="240" y="417" type="line"/>
      <point x="272" y="381"/>
      <point x="320" y="360"/>
      <point x="387" y="359" type="curve"/>
      <point x="387" y="318" type="line"/>
      <point x="362" y="326"/>
      <point x="337" y="330"/>
      <point x="312" y="330" type="curve" smooth="yes"/>
      <point x="173" y="330"/>
      <point x="112" y="268"/>
      <point x="112" y="139" type="curve" smooth="yes"/>
      <point x="112" y="0" type="line"/>
      <point x="202" y="0" type="line"/>
      <point x="202" y="122" type="line" smooth="yes"/>
      <point x="202" y="211"/>
      <point x="236" y="246"/>
      <point x="322" y="246" type="curve" smooth="yes"/>
      <point x="347" y="246"/>
      <point x="368" y="243"/>
      <point x="387" y="237" type="curve"/>
      <point x="387" y="0" type="line"/>
      <point x="477" y="0" type="line"/>
      <point x="477" y="439" type="line"/>
      <point x="393" y="439" type="line" smooth="yes"/>
      <point x="341" y="439"/>
      <point x="310" y="461"/>
      <point x="297" y="498" type="curve"/>
      <point x="477" y="498" type="line"/>
      <point x="477" y="578" type="line"/>
      <point x="297" y="578" type="line"/>
      <point x="309" y="615"/>
      <point x="338" y="634"/>
      <point x="393" y="634" type="curve" smooth="yes"/>
      <point x="477" y="634" type="line"/>
      <point x="477" y="714" type="line"/>
      <point x="391" y="714" type="line" smooth="yes"/>
      <point x="323" y="714"/>
      <point x="274" y="695"/>
      <point x="242" y="658" type="curve"/>
      <point x="49" y="658" type="line"/>
      <point x="49" y="578" type="line"/>
      <point x="206" y="578" type="line"/>
      <point x="203" y="563"/>
      <point x="202" y="550"/>
      <point x="202" y="535" type="curve" smooth="yes"/>
      <point x="202" y="522"/>
      <point x="203" y="509"/>
      <point x="205" y="498" type="curve"/>
    </contour>
  </outline>
</glyph>
<glyph name="brm_RRO" format="2">
  <advance width="574"/>
  <outline>
    <contour>
      <point x="49" y="578" type="line"/>
      <point x="49" y="498" type="line"/>
      <point x="205" y="498" type="line"/>
      <point x="218" y="413"/>
      <point x="282" y="360"/>
      <point x="387" y="359" type="curve"/>
      <point x="387" y="318" type="line"/>
      <point x="362" y="326"/>
      <point x="337" y="330"/>
      <point x="312" y="330" type="curve" smooth="yes"/>
      <point x="173" y="330"/>
      <point x="112" y="268"/>
      <point x="112" y="139" type="curve" smooth="yes"/>
      <point x="112" y="0" type="line"/>
      <point x="202" y="0" type="line"/>
      <point x="202" y="122" type="line" smooth="yes"/>
      <point x="202" y="211"/>
      <point x="236" y="246"/>
      <point x="322" y="246" type="curve" smooth="yes"/>
      <point x="347" y="246"/>
      <point x="368" y="243"/>
      <point x="387" y="237" type="curve"/>
      <point x="387" y="0" type="line"/>
      <point x="477" y="0" type="line"/>
      <point x="477" y="439" type="line"/>
      <point x="393" y="439" type="line" smooth="yes"/>
      <point x="341" y="439"/>
      <point x="310" y="461"/>
      <point x="297" y="498" type="curve"/>
      <point x="477" y="498" type="line"/>
      <point x="477" y="578" type="line"/>
      <point x="297" y="578" type="line"/>
      <point x="309" y="615"/>
      <point x="338" y="634"/>
      <point x="393" y="634" type="curve" smooth="yes"/>
      <point x="477" y="634" type="line"/>
      <point x="477" y="714" type="line"/>
      <point x="391" y="714" type="line" smooth="yes"/>
      <point x="286" y="714"/>
      <point x="221" y="667"/>
      <point x="206" y="578" type="curve"/>
    </contour>
  </outline>
</glyph>
<glyph name="brm_SU" format="2">
  <advance width="878"/>
  <outline>
    <contour>
      <point x="542" y="-159" type="line"/>
      <point x="622" y="-159" type="line"/>
      <point x="622" y="-10" type="line"/>
      <point x="757" y="5"/>
      <point x="814" y="85"/>
      <point x="814" y="250" type="curve" smooth="yes"/>
      <point x="814" y="252" type="line"/>
      <point x="725" y="252" type="line"/>
      <point x="725" y="250" type="line" smooth="yes"/>
      <point x="725" y="122"/>
      <point x="680" y="72"/>
      <point x="581" y="72" type="curve" smooth="yes"/>
      <point x="482" y="72"/>
      <point x="442" y="116"/>
      <point x="442" y="249" type="curve" smooth="yes"/>
      <point x="442" y="714" type="line"/>
      <point x="352" y="714" type="line"/>
      <point x="352" y="348" type="line"/>
      <point x="328" y="355"/>
      <point x="303" y="359"/>
      <point x="277" y="359" type="curve" smooth="yes"/>
      <point x="147" y="359"/>
      <point x="78" y="300"/>
      <point x="78" y="163" type="curve" smooth="yes"/>
      <point x="78" y="0" type="line"/>
      <point x="168" y="0" type="line"/>
      <point x="168" y="146" type="line" smooth="yes"/>
      <point x="168" y="237"/>
      <point x="199" y="275"/>
      <point x="288" y="275" type="curve" smooth="yes"/>
      <point x="312" y="275"/>
      <point x="334" y="272"/>
      <point x="352" y="267" type="curve"/>
      <point x="352" y="252" type="line" smooth="yes"/>
      <point x="352" y="83"/>
      <point x="410" y="3"/>
      <point x="542" y="-10" type="curve"/>
    </contour>
  </outline>
</glyph>
<glyph name="brm_SVA" format="2">
  <advance width="878"/>
  <outline>
    <contour>
      <point x="423" y="-144" type="curve" smooth="yes"/>
      <point x="423" y="-231"/>
      <point x="493" y="-303"/>
      <point x="585" y="-303" type="curve" smooth="yes"/>
      <point x="677" y="-303"/>
      <point x="747" y="-231"/>
      <point x="747" y="-144" type="curve" smooth="yes"/>
      <point x="747" y="-83"/>
      <point x="710" y="-30"/>
      <point x="659" y="-3" type="curve"/>
      <point x="774" y="23"/>
      <point x="814" y="114"/>
      <point x="814" y="249" type="curve" smooth="yes"/>
      <point x="814" y="252" type="line"/>
      <point x="725" y="252" type="line"/>
      <point x="725" y="250" type="line" smooth="yes"/>
      <point x="725" y="135"/>
      <point x="689" y="72"/>
      <point x="581" y="72" type="curve" smooth="yes"/>
      <point x="474" y="72"/>
      <point x="442" y="127"/>
      <point x="442" y="249" type="curve" smooth="yes"/>
      <point x="442" y="714" type="line"/>
      <point x="352" y="714" type="line"/>
      <point x="352" y="348" type="line"/>
      <point x="328" y="355"/>
      <point x="303" y="359"/>
      <point x="277" y="359" type="curve" smooth="yes"/>
      <point x="147" y="359"/>
      <point x="78" y="300"/>
      <point x="78" y="163" type="curve" smooth="yes"/>
      <point x="78" y="0" type="line"/>
      <point x="168" y="0" type="line"/>
      <point x="168" y="144" type="line" smooth="yes"/>
      <point x="168" y="236"/>
      <point x="199" y="275"/>
      <point x="287" y="275" type="curve" smooth="yes"/>
      <point x="311" y="275"/>
      <point x="334" y="272"/>
      <point x="352" y="267" type="curve"/>
      <point x="352" y="252" type="line" smooth="yes"/>
      <point x="352" y="117"/>
      <point x="389" y="21"/>
      <point x="507" y="-4" type="curve"/>
      <point x="456" y="-31"/>
      <point x="423" y="-83"/>
    </contour>
    <contour>
      <point x="506" y="-144" type="curve" smooth="yes"/>
      <point x="506" y="-101"/>
      <point x="542" y="-65"/>
      <point x="585" y="-65" type="curve" smooth="yes"/>
      <point x="629" y="-65"/>
      <point x="665" y="-101"/>
      <point x="665" y="-144" type="curve" smooth="yes"/>
      <point x="665" y="-188"/>
      <point x="629" y="-223"/>
      <point x="585" y="-223" type="curve" smooth="yes"/>
      <point x="542" y="-223"/>
      <point x="506" y="-188"/>
    </contour>
  </outline>
</glyph>
<glyph name="brm_THAU" format="2">
  <advance width="882"/>
  <outline>
    <contour>
      <point x="49" y="526" type="line"/>
      <point x="49" y="446" type="line"/>
      <point x="121" y="446" type="line"/>
      <point x="113" y="418"/>
      <point x="110" y="389"/>
      <point x="110" y="358" type="curve" smooth="yes"/>
      <point x="110" y="166"/>
      <point x="256" y="27"/>
      <point x="441" y="27" type="curve" smooth="yes"/>
      <point x="638" y="27"/>
      <point x="772" y="179"/>
      <point x="772" y="358" type="curve" smooth="yes"/>
      <point x="772" y="461"/>
      <point x="732" y="547"/>
      <point x="665" y="606" type="curve"/>
      <point x="833" y="606" type="line"/>
      <point x="833" y="686" type="line"/>
      <point x="490" y="686" type="line"/>
      <point x="469" y="688"/>
      <point x="458" y="689"/>
      <point x="441" y="689" type="curve" smooth="yes"/>
      <point x="424" y="689"/>
      <point x="413" y="688"/>
      <point x="391" y="686" type="curve"/>
      <point x="49" y="686" type="line"/>
      <point x="49" y="606" type="line"/>
      <point x="216" y="606" type="line"/>
      <point x="191" y="583"/>
      <point x="170" y="557"/>
      <point x="153" y="526" type="curve"/>
    </contour>
    <contour>
      <point x="205" y="359" type="curve" smooth="yes"/>
      <point x="205" y="500"/>
      <point x="314" y="605"/>
      <point x="441" y="605" type="curve" smooth="yes"/>
      <point x="578" y="605"/>
      <point x="677" y="490"/>
      <point x="677" y="359" type="curve" smooth="yes"/>
      <point x="677" y="219"/>
      <point x="569" y="111"/>
      <point x="441" y="111" type="curve" smooth="yes"/>
      <point x="304" y="111"/>
      <point x="205" y="227"/>
    </contour>
    <contour>
      <point x="379" y="362" type="curve" smooth="yes"/>
      <point x="379" y="319"/>
      <point x="401" y="294"/>
      <point x="440" y="294" type="curve" smooth="yes"/>
      <point x="480" y="294"/>
      <point x="503" y="321"/>
      <point x="503" y="362" type="curve" smooth="yes"/>
      <point x="503" y="406"/>
      <point x="481" y="430"/>
      <point x="440" y="430" type="curve" smooth="yes"/>
      <point x="399" y="430"/>
      <point x="379" y="405"/>
    </contour>
  </outline>
</glyph>
<glyph name="brm_THEE" format="2">
  <advance width="850"/>
  <outline>
    <contour>
      <point x="49" y="686" type="line"/>
      <point x="49" y="606" type="line"/>
      <point x="216" y="606" type="line"/>
      <point x="149" y="545"/>
      <point x="110" y="458"/>
      <point x="110" y="358" type="curve" smooth="yes"/>
      <point x="110" y="166"/>
      <point x="256" y="27"/>
      <point x="441" y="27" type="curve" smooth="yes"/>
      <point x="638" y="27"/>
      <point x="772" y="179"/>
      <point x="772" y="358" type="curve" smooth="yes"/>
      <point x="772" y="551"/>
      <point x="626" y="689"/>
      <point x="441" y="689" type="curve" smooth="yes"/>
      <point x="424" y="689"/>
      <point x="412" y="688"/>
      <point x="391" y="686" type="curve"/>
    </contour>
    <contour>
      <point x="205" y="359" type="curve" smooth="yes"/>
      <point x="205" y="500"/>
      <point x="314" y="605"/>
      <point x="441" y="605" type="curve" smooth="yes"/>
      <point x="578" y="605"/>
      <point x="677" y="490"/>
      <point x="677" y="359" type="curve" smooth="yes"/>
      <point x="677" y="219"/>
      <point x="569" y="111"/>
      <point x="441" y="111" type="curve" smooth="yes"/>
      <point x="304" y="111"/>
      <point x="205" y="227"/>
    </contour>
    <contour>
      <point x="379" y="362" type="curve" smooth="yes"/>
      <point x="379" y="319"/>
      <point x="401" y="294"/>
      <point x="440" y="294" type="curve" smooth="yes"/>
      <point x="480" y="294"/>
      <point x="503" y="321"/>
      <point x="503" y="362" type="curve" smooth="yes"/>
      <point x="503" y="406"/>
      <point x="481" y="430"/>
      <point x="440" y="430" type="curve" smooth="yes"/>
      <point x="399" y="430"/>
      <point x="379" y="405"/>
    </contour>
  </outline>
</glyph>
<glyph name="brm_THR" format="2">
  <advance width="850"/>
  <outline>
    <contour>
      <point x="441" y="27" type="curve" smooth="yes"/>
      <point x="626" y="27"/>
      <point x="772" y="165"/>
      <point x="772" y="358" type="curve" smooth="yes"/>
      <point x="772" y="537"/>
      <point x="638" y="689"/>
      <point x="441" y="689" type="curve" smooth="yes"/>
      <point x="256" y="689"/>
      <point x="110" y="550"/>
      <point x="110" y="358" type="curve" smooth="yes"/>
      <point x="110" y="258"/>
      <point x="149" y="171"/>
      <point x="216" y="110" type="curve"/>
      <point x="49" y="110" type="line"/>
      <point x="49" y="30" type="line"/>
      <point x="391" y="30" type="line"/>
      <point x="412" y="28"/>
      <point x="424" y="27"/>
    </contour>
    <contour>
      <point x="440" y="294" type="curve" smooth="yes"/>
      <point x="481" y="294"/>
      <point x="503" y="318"/>
      <point x="503" y="362" type="curve" smooth="yes"/>
      <point x="503" y="403"/>
      <point x="480" y="430"/>
      <point x="440" y="430" type="curve" smooth="yes"/>
      <point x="401" y="430"/>
      <point x="379" y="405"/>
      <point x="379" y="362" type="curve" smooth="yes"/>
      <point x="379" y="319"/>
      <point x="399" y="294"/>
    </contour>
    <contour>
      <point x="441" y="111" type="curve" smooth="yes"/>
      <point x="314" y="111"/>
      <point x="205" y="216"/>
      <point x="205" y="357" type="curve" smooth="yes"/>
      <point x="205" y="489"/>
      <point x="304" y="605"/>
      <point x="441" y="605" type="curve" smooth="yes"/>
      <point x="569" y="605"/>
      <point x="677" y="497"/>
      <point x="677" y="357" type="curve" smooth="yes"/>
      <point x="677" y="226"/>
      <point x="578" y="111"/>
    </contour>
  </outline>
</glyph>
<glyph name="brm_TRR" format="2">
  <advance width="818"/>
  <outline>
    <contour>
      <point x="52" y="80" type="line"/>
      <point x="52" y="0" type="line"/>
      <point x="321" y="0" type="line"/>
      <point x="321" y="80" type="line"/>
    </contour>
    <contour>
      <point x="52" y="236" type="line"/>
      <point x="52" y="156" type="line"/>
      <point x="361" y="156" type="line"/>
      <point x="361" y="236" type="line"/>
    </contour>
    <contour>
      <point x="321" y="0" type="line"/>
      <point x="506" y="351" type="line"/>
      <point x="693" y="0" type="line"/>
      <point x="789" y="0" type="line"/>
      <point x="551" y="437" type="line"/>
      <point x="551" y="714" type="line"/>
      <point x="461" y="714" type="line"/>
      <point x="461" y="441" type="line"/>
      <point x="223" y="0" type="line"/>
    </contour>
  </outline>
</glyph>
<glyph name="brm_TTHAU" format="2">
  <advance width="882"/>
  <outline>
    <contour>
      <point x="49" y="526" type="line"/>
      <point x="49" y="446" type="line"/>
      <point x="121" y="446" type="line"/>
      <point x="113" y="418"/>
      <point x="110" y="389"/>
      <point x="110" y="358" type="curve" smooth="yes"/>
      <point x="110" y="166"/>
      <point x="256" y="27"/>
      <point x="441" y="27" type="curve" smooth="yes"/>
      <point x="638" y="27"/>
      <point x="772" y="179"/>
      <point x="772" y="358" type="curve" smooth="yes"/>
      <point x="772" y="461"/>
      <point x="732" y="547"/>
      <point x="665" y="606" type="curve"/>
      <point x="833" y="606" type="line"/>
      <point x="833" y="686" type="line"/>
      <point x="490" y="686" type="line"/>
      <point x="469" y="688"/>
      <point x="458" y="689"/>
      <point x="441" y="689" type="curve" smooth="yes"/>
      <point x="424" y="689"/>
      <point x="413" y="688"/>
      <point x="391" y="686" type="curve"/>
      <point x="49" y="686" type="line"/>
      <point x="49" y="606" type="line"/>
      <point x="216" y="606" type="line"/>
      <point x="191" y="583"/>
      <point x="170" y="557"/>
      <point x="153" y="526" type="curve"/>
    </contour>
    <contour>
      <point x="205" y="359" type="curve" smooth="yes"/>
      <point x="205" y="500"/>
      <point x="314" y="605"/>
      <point x="441" y="605" type="curve" smooth="yes"/>
      <point x="578" y="605"/>
      <point x="677" y="490"/>
      <point x="677" y="359" type="curve" smooth="yes"/>
      <point x="677" y="219"/>
      <point x="569" y="111"/>
      <point x="441" y="111" type="curve" smooth="yes"/>
      <point x="304" y="111"/>
      <point x="205" y="227"/>
    </contour>
  </outline>
</glyph>
<glyph name="brm_TTHEE" format="2">
  <advance width="850"/>
  <outline>
    <contour>
      <point x="49" y="686" type="line"/>
      <point x="49" y="606" type="line"/>
      <point x="216" y="606" type="line"/>
      <point x="149" y="545"/>
      <point x="110" y="458"/>
      <point x="110" y="358" type="curve" smooth="yes"/>
      <point x="110" y="166"/>
      <point x="256" y="27"/>
      <point x="441" y="27" type="curve" smooth="yes"/>
      <point x="638" y="27"/>
      <point x="772" y="179"/>
      <point x="772" y="358" type="curve" smooth="yes"/>
      <point x="772" y="551"/>
      <point x="626" y="689"/>
      <point x="441" y="689" type="curve" smooth="yes"/>
      <point x="424" y="689"/>
      <point x="413" y="688"/>
      <point x="391" y="686" type="curve"/>
    </contour>
    <contour>
      <point x="205" y="359" type="curve" smooth="yes"/>
      <point x="205" y="500"/>
      <point x="314" y="605"/>
      <point x="441" y="605" type="curve" smooth="yes"/>
      <point x="578" y="605"/>
      <point x="677" y="490"/>
      <point x="677" y="359" type="curve" smooth="yes"/>
      <point x="677" y="219"/>
      <point x="569" y="111"/>
      <point x="441" y="111" type="curve" smooth="yes"/>
      <point x="304" y="111"/>
      <point x="205" y="227"/>
    </contour>
  </outline>
</glyph>
<glyph name="brm_TTHR" format="2">
  <advance width="850"/>
  <outline>
    <contour>
      <point x="441" y="27" type="curve" smooth="yes"/>
      <point x="626" y="27"/>
      <point x="772" y="165"/>
      <point x="772" y="358" type="curve" smooth="yes"/>
      <point x="772" y="537"/>
      <point x="638" y="689"/>
      <point x="441" y="689" type="curve" smooth="yes"/>
      <point x="256" y="689"/>
      <point x="110" y="550"/>
      <point x="110" y="358" type="curve" smooth="yes"/>
      <point x="110" y="258"/>
      <point x="149" y="171"/>
      <point x="216" y="110" type="curve"/>
      <point x="49" y="110" type="line"/>
      <point x="49" y="30" type="line"/>
      <point x="391" y="30" type="line"/>
      <point x="413" y="28"/>
      <point x="424" y="27"/>
    </contour>
    <contour>
      <point x="441" y="111" type="curve" smooth="yes"/>
      <point x="314" y="111"/>
      <point x="205" y="216"/>
      <point x="205" y="357" type="curve" smooth="yes"/>
      <point x="205" y="489"/>
      <point x="304" y="605"/>
      <point x="441" y="605" type="curve" smooth="yes"/>
      <point x="569" y="605"/>
      <point x="677" y="497"/>
      <point x="677" y="357" type="curve" smooth="yes"/>
      <point x="677" y="226"/>
      <point x="578" y="111"/>
    </contour>
  </outline>
</glyph>
<glyph name="brm_TTHRR" format="2">
  <advance width="850"/>
  <outline>
    <contour>
      <point x="441" y="27" type="curve" smooth="yes"/>
      <point x="626" y="27"/>
      <point x="772" y="165"/>
      <point x="772" y="358" type="curve" smooth="yes"/>
      <point x="772" y="537"/>
      <point x="638" y="689"/>
      <point x="441" y="689" type="curve" smooth="yes"/>
      <point x="256" y="689"/>
      <point x="110" y="550"/>
      <point x="110" y="358" type="curve" smooth="yes"/>
      <point x="110" y="327"/>
      <point x="113" y="298"/>
      <point x="121" y="270" type="curve"/>
      <point x="49" y="270" type="line"/>
      <point x="49" y="190" type="line"/>
      <point x="153" y="190" type="line"/>
      <point x="170" y="159"/>
      <point x="191" y="133"/>
      <point x="216" y="110" type="curve"/>
      <point x="49" y="110" type="line"/>
      <point x="49" y="30" type="line"/>
      <point x="391" y="30" type="line"/>
      <point x="410" y="28"/>
      <point x="424" y="27"/>
    </contour>
    <contour>
      <point x="441" y="111" type="curve" smooth="yes"/>
      <point x="314" y="111"/>
      <point x="205" y="216"/>
      <point x="205" y="357" type="curve" smooth="yes"/>
      <point x="205" y="489"/>
      <point x="304" y="605"/>
      <point x="441" y="605" type="curve" smooth="yes"/>
      <point x="569" y="605"/>
      <point x="677" y="497"/>
      <point x="677" y="357" type="curve" smooth="yes"/>
      <point x="677" y="226"/>
      <point x="578" y="111"/>
    </contour>
  </outline>
</glyph>
